<svg width="149" height="103" viewBox="0 0 149 103" fill="none" xmlns="http://www.w3.org/2000/svg">
<path fill-rule="evenodd" clip-rule="evenodd" d="M120.14 38.8287C115.933 16.65 97.187 0 74.6673 0C56.7875 0 41.2588 10.5429 33.5254 25.9715C14.9033 28.0286 0.42627 44.4216 0.42627 64.2859C0.42627 85.5645 17.0686 102.857 37.5468 102.857H117.974C135.05 102.857 148.908 88.4574 148.908 70.7145C148.908 53.743 136.225 39.9858 120.14 38.8287ZM118.678 90.0002H36.9435C23.0486 90.0002 11.7943 78.4931 11.7943 64.2859C11.7943 51.1073 21.4139 40.1144 34.1771 38.7644L40.9045 38.0573L44.0481 31.9501C50.0211 20.1858 61.7154 12.8572 74.6673 12.8572C91.14 12.8572 105.349 24.8144 108.556 41.3358L110.442 50.9787L120.062 51.6859C129.87 52.3287 137.54 60.7502 137.54 70.7145C137.54 81.3216 129.052 90.0002 118.678 90.0002ZM64.2385 57.8573H45.8983L74.6672 32.1429L103.436 57.8573H85.0959V77.143H64.2385V57.8573Z" fill="white" fill-opacity="0.54"/>
</svg>
