<svg class="SVGInline-svg" width="60px" height="44px" viewBox="405 158 60 44" version="1.1" xmlns="http://www.w3.org/2000/svg" xmlns:xlink="http://www.w3.org/1999/xlink">
    <path d="M422.54386,196 L432,182 L437.866638,190.685672 L447.514622,178 L458.900527,196 L465,196 L465,202 L405,202 L405,196 L422.54386,196 Z M405,158 L465,158 L465,164 L405,164 L405,158 Z M459,164 L465,164 L465,196 L459,196 L459,164 Z M405,164 L411,164 L411,196 L405,196 L405,164 Z M419,170 L425,170 L425,176 L419,176 L419,170 Z"></path>
</svg>