<svg class="SVGInline-svg" xmlns="http://www.w3.org/2000/svg" xmlns:xlink="http://www.w3.org/1999/xlink" width="28" height="20"><defs><rect id="SYa" width="28" height="20" x="0" y="0" rx="0"></rect></defs><g fill="none" fill-rule="evenodd"><mask id="SYb" fill="#fff"><use xlink:href="#SYa"></use></mask><rect width="27.5" height="19.5" x=".25" y=".25" rx="2"></rect><path fill="#262626" d="M0 13.3333333h28v6.66666667H0z" mask="url(#SYb)"></path><path fill="#E32139" d="M0 0h28v6.66666667H0z" mask="url(#SYb)"></path><path fill="#128A49" d="M9.33333333 11.0933333l-1.56742734 1.0640454.52760556-1.8195201-1.49632893-1.16190392 1.89350551-.06047992.6426452-1.78214143.64264521 1.78214143 1.89350546.06047992-1.4963289 1.16190392.5276056 1.8195201zM18.6666667 11.0933333l-1.5674274 1.0640454.5276056-1.8195201-1.4963289-1.16190392 1.8935055-.06047992.6426452-1.78214143.6426452 1.78214143 1.8935055.06047992-1.496329 1.16190392.5276056 1.8195201z" mask="url(#SYb)"></path></g></svg>