<svg class="SVGInline-svg" xmlns="http://www.w3.org/2000/svg" xmlns:xlink="http://www.w3.org/1999/xlink" width="28" height="20"><defs><rect id="AGa" width="28" height="20" x="0" y="0" rx="0"></rect><path id="AGc" d="M0 0h28L14 20z"></path><path id="AGf" d="M14 11l-2.2961006 2.5432772.1747803-3.4219569-3.4219569.1747803L11 8 7.99999999 5.33333324l3.87867951.66666667-.5453462-3.99999992L14 5.33333324l2.6666667-3.33333325-.5453461 3.99999992L20 5.33333333 17 8l2.5432772 2.2961006-3.4219569-.1747803.1747803 3.4219569z"></path><filter id="AGe" width="163%" height="162.4%" x="-31.5%" y="-34.2%" filterUnits="objectBoundingBox"><feMorphology in="SourceAlpha" operator="dilate" radius=".5" result="shadowSpreadOuter1"></feMorphology><feOffset in="shadowSpreadOuter1" result="shadowOffsetOuter1"></feOffset><feColorMatrix in="shadowOffsetOuter1" values="0 0 0 0 0 0 0 0 0 0 0 0 0 0 0 0 0 0 0.06 0"></feColorMatrix></filter><path id="AGh" d="M0 8h28v5.33333333H0z"></path><filter id="AGg" width="110.7%" height="156.2%" x="-5.4%" y="-28.1%" filterUnits="objectBoundingBox"><feMorphology in="SourceAlpha" operator="dilate" radius=".5" result="shadowSpreadOuter1"></feMorphology><feOffset in="shadowSpreadOuter1" result="shadowOffsetOuter1"></feOffset><feColorMatrix in="shadowOffsetOuter1" values="0 0 0 0 0 0 0 0 0 0 0 0 0 0 0 0 0 0 0.06 0"></feColorMatrix></filter></defs><g fill="none" fill-rule="evenodd"><mask id="AGb" fill="#fff"><use xlink:href="#AGa"></use></mask><use fill="#FFF" xlink:href="#AGa"></use><path fill="#E2243B" d="M0 0h28v20H0z" mask="url(#AGb)"></path><g mask="url(#AGb)"><mask id="AGd" fill="#fff"><use xlink:href="#AGc"></use></mask><use fill="#262626" xlink:href="#AGc"></use><g mask="url(#AGd)"><use fill="#000" filter="url(#AGe)" xlink:href="#AGf"></use><use fill="#FFCF3C" xlink:href="#AGf"></use></g><g mask="url(#AGd)"><use fill="#000" filter="url(#AGg)" xlink:href="#AGh"></use><use fill="#1984D8" xlink:href="#AGh"></use></g><path fill="#FFF" d="M0 13.3333333h28v6.66666667H0z" mask="url(#AGd)"></path></g></g></svg>