<svg class="SVGInline-svg" xmlns="http://www.w3.org/2000/svg" xmlns:xlink="http://www.w3.org/1999/xlink" width="28" height="20"><defs><rect id="IRa" width="28" height="20" x="0" y="0" rx="0"></rect></defs><g fill="none" fill-rule="evenodd"><mask id="IRb" fill="#fff"><use xlink:href="#IRa"></use></mask><rect width="27.5" height="19.5" x=".25" y=".25" rx="2"></rect><path fill="#38BB56" d="M0 0h28v6.66666667H0z" mask="url(#IRb)"></path><path fill="#DE1B27" d="M0 13.3333333h28v6.66666667H0z" mask="url(#IRb)"></path><path fill="#FFF" fill-opacity=".5" d="M1.33333333 5.66978963c0-.18581968.14269003-.3364563.3364563-.3364563h.66042074c.18581968 0 .3364563.14269003.3364563.3364563v.66042074c0 .18581968-.14269003.3364563-.3364563.3364563h-.66042074c-.18581968 0-.3364563-.14269003-.3364563-.3364563v-.66042074zm2.66666667 0c0-.18581968.14269002-.3364563.3364563-.3364563h.66042073c.18581969 0 .3364563.14269003.3364563.3364563v.66042074c0 .18581968-.14269002.3364563-.3364563.3364563H4.3364563C4.15063662 6.66666667 4 6.52397664 4 6.33021037v-.66042074zm2.66666667 0c0-.18581968.14269002-.3364563.3364563-.3364563h.66042073c.18581968 0 .3364563.14269003.3364563.3364563v.66042074c0 .18581968-.14269002.3364563-.3364563.3364563h-.66042073c-.18581969 0-.3364563-.14269003-.3364563-.3364563v-.66042074zm2.66666666 0c0-.18581968.14269003-.3364563.3364563-.3364563h.66042077c.1858197 0 .3364563.14269003.3364563.3364563v.66042074c0 .18581968-.1426901.3364563-.3364563.3364563h-.66042077c-.18581968 0-.3364563-.14269003-.3364563-.3364563v-.66042074zm2.66666667 0c0-.18581968.14269-.3364563.3364563-.3364563h.6604207c.1858197 0 .3364563.14269003.3364563.3364563v.66042074c0 .18581968-.14269.3364563-.3364563.3364563h-.6604207c-.1858197 0-.3364563-.14269003-.3364563-.3364563v-.66042074zm2.6666667 0c0-.18581968.14269-.3364563.3364563-.3364563h.6604207c.1858197 0 .3364563.14269003.3364563.3364563v.66042074c0 .18581968-.14269.3364563-.3364563.3364563h-.6604207c-.1858197 0-.3364563-.14269003-.3364563-.3364563v-.66042074zm2.6666666 0c0-.18581968.1426901-.3364563.3364563-.3364563h.6604208c.1858197 0 .3364563.14269003.3364563.3364563v.66042074c0 .18581968-.1426901.3364563-.3364563.3364563h-.6604208c-.1858197 0-.3364563-.14269003-.3364563-.3364563v-.66042074zm2.6666667 0c0-.18581968.14269-.3364563.3364563-.3364563h.6604207c.1858197 0 .3364563.14269003.3364563.3364563v.66042074c0 .18581968-.14269.3364563-.3364563.3364563h-.6604207c-.1858197 0-.3364563-.14269003-.3364563-.3364563v-.66042074zm2.6666667 0c0-.18581968.14269-.3364563.3364563-.3364563h.6604207c.1858197 0 .3364563.14269003.3364563.3364563v.66042074c0 .18581968-.14269.3364563-.3364563.3364563h-.6604207c-.1858197 0-.3364563-.14269003-.3364563-.3364563v-.66042074zm2.6666666 0c0-.18581968.1426901-.3364563.3364563-.3364563h.6604208c.1858197 0 .3364563.14269003.3364563.3364563v.66042074c0 .18581968-.1426901.3364563-.3364563.3364563h-.6604208c-.1858197 0-.3364563-.14269003-.3364563-.3364563v-.66042074zM1.33333333 13.6697896c0-.1858197.14269003-.3364563.3364563-.3364563h.66042074c.18581968 0 .3364563.1426901.3364563.3364563v.6604208c0 .1858197-.14269003.3364563-.3364563.3364563h-.66042074c-.18581968 0-.3364563-.1426901-.3364563-.3364563v-.6604208zm2.66666667 0c0-.1858197.14269002-.3364563.3364563-.3364563h.66042073c.18581969 0 .3364563.1426901.3364563.3364563v.6604208c0 .1858197-.14269002.3364563-.3364563.3364563H4.3364563C4.15063662 14.6666667 4 14.5239766 4 14.3302104v-.6604208zm2.66666667 0c0-.1858197.14269002-.3364563.3364563-.3364563h.66042073c.18581968 0 .3364563.1426901.3364563.3364563v.6604208c0 .1858197-.14269002.3364563-.3364563.3364563h-.66042073c-.18581969 0-.3364563-.1426901-.3364563-.3364563v-.6604208zm2.66666666 0c0-.1858197.14269003-.3364563.3364563-.3364563h.66042077c.1858197 0 .3364563.1426901.3364563.3364563v.6604208c0 .1858197-.1426901.3364563-.3364563.3364563h-.66042077c-.18581968 0-.3364563-.1426901-.3364563-.3364563v-.6604208zm2.66666667 0c0-.1858197.14269-.3364563.3364563-.3364563h.6604207c.1858197 0 .3364563.1426901.3364563.3364563v.6604208c0 .1858197-.14269.3364563-.3364563.3364563h-.6604207c-.1858197 0-.3364563-.1426901-.3364563-.3364563v-.6604208zm2.6666667 0c0-.1858197.14269-.3364563.3364563-.3364563h.6604207c.1858197 0 .3364563.1426901.3364563.3364563v.6604208c0 .1858197-.14269.3364563-.3364563.3364563h-.6604207c-.1858197 0-.3364563-.1426901-.3364563-.3364563v-.6604208zm2.6666666 0c0-.1858197.1426901-.3364563.3364563-.3364563h.6604208c.1858197 0 .3364563.1426901.3364563.3364563v.6604208c0 .1858197-.1426901.3364563-.3364563.3364563h-.6604208c-.1858197 0-.3364563-.1426901-.3364563-.3364563v-.6604208zm2.6666667 0c0-.1858197.14269-.3364563.3364563-.3364563h.6604207c.1858197 0 .3364563.1426901.3364563.3364563v.6604208c0 .1858197-.14269.3364563-.3364563.3364563h-.6604207c-.1858197 0-.3364563-.1426901-.3364563-.3364563v-.6604208zm2.6666667 0c0-.1858197.14269-.3364563.3364563-.3364563h.6604207c.1858197 0 .3364563.1426901.3364563.3364563v.6604208c0 .1858197-.14269.3364563-.3364563.3364563h-.6604207c-.1858197 0-.3364563-.1426901-.3364563-.3364563v-.6604208zm2.6666666 0c0-.1858197.1426901-.3364563.3364563-.3364563h.6604208c.1858197 0 .3364563.1426901.3364563.3364563v.6604208c0 .1858197-.1426901.3364563-.3364563.3364563h-.6604208c-.1858197 0-.3364563-.1426901-.3364563-.3364563v-.6604208z" mask="url(#IRb)"></path><path stroke="#D80915" stroke-width=".666666667" d="M12.788363 8.85552223c-.2895826.30621205-.4550297.71171855-.4550297 1.14447777 0 .9204746.7461921 1.6666667 1.6666667 1.6666667.9204746 0 1.6666667-.7461921 1.6666667-1.6666667 0-.42379656-.1586118-.82155481-.4375651-1.12570935l-2.4407386-.01876842z" mask="url(#IRb)"></path><rect width="1.33333333" height="2.66666667" x="13.3333333" y="9.33333333" fill="#D80915" mask="url(#IRb)" rx=".666666667"></rect></g></svg>