<svg class="SVGInline-svg" xmlns="http://www.w3.org/2000/svg" xmlns:xlink="http://www.w3.org/1999/xlink" width="28" height="20"><defs><rect id="JEa" width="28" height="20" x="0" y="0" rx="0"></rect><path id="JEc" d="M.666666667 3.83333333V2.67435201c0-.74062416.590213773-1.34101868 1.331942083-1.34101868h1.33611584c.73561129 0 1.33194208.58758327 1.33194208 1.34101868v1.15898132c0 1.78571429-2 2.5-2 2.5s-2.000000003-.71428571-2.000000003-2.5z"></path></defs><g fill="none" fill-rule="evenodd"><mask id="JEb" fill="#fff"><use xlink:href="#JEa"></use></mask><rect width="27.5" height="19.5" x=".25" y=".25" rx="2"></rect><path fill="#E3243B" d="M13.3256942-14.1934652h2.66666667v49.3333333H13.3256942z" mask="url(#JEb)" transform="rotate(-55 14.659027 10.473202)"></path><path fill="#E3243B" d="M13.3256942-14.1934652h2.66666667v49.3333333H13.3256942z" mask="url(#JEb)" transform="scale(-1 1) rotate(-55 0 38.6329308658)"></path><g mask="url(#JEb)"><g transform="translate(12 1.333333)"><path fill="#FAEF32" d="M1.59255439 1.33333333l.08730099-.05120175L.693044087.712295303 1.96888566.854754367 1.78950107 0l.87716559.712295303L3.54383226 0l-.17938454.854754367L4.64028925.712295322l-.98681129.569836258.08730098.05120175H1.59255439z"></path><mask id="JEd" fill="#fff"><use xlink:href="#JEc"></use></mask><use fill="#E3243B" xlink:href="#JEc"></use><rect width="1" height="1" x="2.33333333" y="5.33333333" fill="#FAEF32" mask="url(#JEd)" rx=".5"></rect><rect width="2.66666667" height="1" x="1.33333333" y="4" fill="#FAEF32" mask="url(#JEd)" rx=".5"></rect><rect width="2.66666667" height="1" x="1.33333333" y="2.66666667" fill="#FAEF32" mask="url(#JEd)" rx=".5"></rect></g></g></g></svg>