<svg class="SVGInline-svg" xmlns="http://www.w3.org/2000/svg" xmlns:xlink="http://www.w3.org/1999/xlink" width="28" height="20"><defs><rect id="WSa" width="28" height="20" x="0" y="0" rx="0"></rect></defs><g fill="none" fill-rule="evenodd"><mask id="WSb" fill="#fff"><use xlink:href="#WSa"></use></mask><use fill="#FFF" xlink:href="#WSa"></use><path fill="#E31F37" d="M0 0h28v20H0z" mask="url(#WSb)"></path><path fill="#083B9A" d="M-1.33333333-1.33333333h16v12h-16z" mask="url(#WSb)"></path><path fill="#FFF" d="M6.66666667 9.33333333l-.94280904.27614238L6 8.66666667l-.27614237-.94280904L6.66666667 8l.94280904-.27614237-.27614238.94280904.27614238.94280904-.94280904-.27614238zm0-6.66666666l-.94280904.27614237L6 2l-.27614237-.94280904.94280904.27614237.94280904-.27614237L7.33333333 2l.27614238.94280904-.94280904-.27614237zM4 6l-.94280904.27614237.27614237-.94280904-.27614237-.94280904L4 4.66666667l.94280904-.27614238-.27614237.94280904.27614237.94280904L4 6zm6-.66666667l-.94280904.27614238.27614237-.94280904-.27614237-.94280904L10 4l.942809-.27614237-.2761423.94280904.2761423.94280904L10 5.33333333zm-1.66666667 2C8.14923842 7.33333333 8 7.18409492 8 7s.14923842-.33333333.33333333-.33333333c.18409492 0 .33333334.14923841.33333334.33333333s-.14923842.33333333-.33333334.33333333z" mask="url(#WSb)"></path></g></svg>