<svg class="SVGInline-svg" xmlns="http://www.w3.org/2000/svg" xmlns:xlink="http://www.w3.org/1999/xlink" width="28" height="20"><defs><rect id="KMa" width="28" height="20" x="0" y="0" rx="0"></rect></defs><g fill="none" fill-rule="evenodd"><mask id="KMb" fill="#fff"><use xlink:href="#KMa"></use></mask><rect width="27.5" height="19.5" x=".25" y=".25" rx="2"></rect><path fill="#FFCB49" d="M0 0h28v5.33333333H0z" mask="url(#KMb)"></path><path fill="#DC1D34" d="M0 9.33333333h28v5.33333333H0z" mask="url(#KMb)"></path><path fill="#4985D4" d="M0 14.6666667h28v5.33333333H0z" mask="url(#KMb)"></path><path fill="#4BA343" d="M0 20l13.3333333-10L0 0z" mask="url(#KMb)"></path><path fill="#FFF" d="M6.33333333 6.12601749c-1.72522721.44404279-3 2.01014308-3 3.87398251 0 1.8638394 1.27477279 3.4299397 3 3.8739825-.31961992.0822645-.65470043.1260175-1 .1260175-2.209139 0-4-1.790861-4-4s1.790861-4 4-4c.34529957 0 .68038008.043753 1 .12601749zm1 1.87398251c-.36818983 0-.66666666-.29847683-.66666666-.66666667 0-.36818983.29847683-.66666666.66666666-.66666666C7.70152317 6.66666667 8 6.9651435 8 7.33333333 8 7.70152317 7.70152317 8 7.33333333 8zm0 2.6666667c-.36818983 0-.66666666-.2984769-.66666666-.6666667 0-.36818983.29847683-.66666667.66666666-.66666667C7.70152317 9.33333333 8 9.63181017 8 10c0 .3681898-.29847683.6666667-.66666667.6666667zm0 2.6666666c-.36818983 0-.66666666-.2984768-.66666666-.6666666 0-.3681899.29847683-.6666667.66666666-.6666667C7.70152317 12 8 12.2984768 8 12.6666667c0 .3681898-.29847683.6666666-.66666667.6666666z" mask="url(#KMb)"></path></g></svg>