<svg class="SVGInline-svg" xmlns="http://www.w3.org/2000/svg" xmlns:xlink="http://www.w3.org/1999/xlink" width="28" height="20"><defs><rect id="CNa" width="28" height="20" x="0" y="0" rx="0"></rect></defs><g fill="none" fill-rule="evenodd"><mask id="CNb" fill="#fff"><use xlink:href="#CNa"></use></mask><use fill="#FFF" xlink:href="#CNa"></use><path fill="#F1361D" d="M0 0h28v20H0z" mask="url(#CNb)"></path><path fill="#FFDC42" d="M13.5058794 5.97728388l-.8392127.51074999.0227161-.98215451-.51075-.83921269.9821545.02271611L14 4.17863279l-.0227161.98215451L14.4880339 6l-.9821545-.02271612zM11.0410859 3.2658627l-.968444-.16510516.6614954-.7263383.1651052-.96844401.7263383.66149541.968444.16510515-.6614954.72633831-.1651052.968444-.7263383-.6614954zm.4871619 8.7050071l-.8208766.539727-.0115744-.982349-.5397269-.8208766.982349-.0115744.8208765-.5397269.0115744.982349.539727.8208765-.982349.0115744zm1.6893201-2.64766463l-.9764373.10823008.4356642-.88053404-.10823-.97643727.880534.43566422.9764373-.10823008-.4356643.88053404.1082301.97643727-.880534-.43566422zM6.66666667 8.22666673L4.31552566 9.90273464l.86749278-2.75400144L2.8624406 5.43059869l2.88728104-.02599858.91694503-2.73793344.91694503 2.73793344 2.887281.02599858L8.15031489 7.1487332l.86749279 2.75400144z" mask="url(#CNb)"></path></g></svg>