<svg class="SVGInline-svg" xmlns="http://www.w3.org/2000/svg" xmlns:xlink="http://www.w3.org/1999/xlink" width="28" height="20"><defs><rect id="ADa" width="28" height="20" x="0" y="0" rx="0"></rect></defs><g fill="none" fill-rule="evenodd"><mask id="ADb" fill="#fff"><use xlink:href="#ADa"></use></mask><use fill="#FFF" xlink:href="#ADa"></use><path fill="#1537D1" d="M0 0h28v20H0z" mask="url(#ADb)"></path><path fill="#EA3058" d="M13.3333333 0H28v20H13.3333333z" mask="url(#ADb)"></path><path fill="#FFCF3C" d="M9.33333333 0h9.33333333v20H9.33333333z" mask="url(#ADb)"></path><path fill="#FFEDB1" d="M12.6666667 8.66666667H14v.66666666h-1.3333333z" mask="url(#ADb)"></path><path stroke="#D32E28" stroke-width=".666666667" d="M12.3872251 8.63283682l.167295 2.00753928c.0472199.5666387.5482471 1.0262906 1.1154009 1.0262906h.660158c.5663519 0 1.0684189-.4625059 1.1154009-1.0262906l.167295-2.00753928c.0146091-.17530937-.1002905-.29950349-.2732935-.29950349h-2.6789628c-.1666965 0-.2873453.13088136-.2732935.29950349z" mask="url(#ADb)"></path><path fill="#D32E28" d="M12.6666667 9.33333333h2.6666666V10h-2.6666666z" mask="url(#ADb)"></path></g></svg>