<svg class="SVGInline-svg" xmlns="http://www.w3.org/2000/svg" xmlns:xlink="http://www.w3.org/1999/xlink" width="28" height="20"><defs><rect id="DMa" width="28" height="20" x="0" y="0" rx="0"></rect><linearGradient id="DMc" x1="50%" x2="50%" y1="0%" y2="100%"><stop offset="0%" stop-color="#E02C42"></stop><stop offset="100%" stop-color="#D22036"></stop></linearGradient></defs><g fill="none" fill-rule="evenodd"><mask id="DMb" fill="#fff"><use xlink:href="#DMa"></use></mask><use fill="#FFF" xlink:href="#DMa"></use><path fill="#108753" d="M0 0h28v8H0zM0 12h28v8H0z" mask="url(#DMb)"></path><path fill="#FFF" d="M12 8V0h4v8h12v4H16v8h-4v-8H0V8h12z" mask="url(#DMb)"></path><path fill="#262626" d="M13.3333333 10.6666667H0V9.33333333h13.3333333V0h1.3333334v9.33333333H28v1.33333337H14.6666667V20h-1.3333334v-9.3333333z" mask="url(#DMb)"></path><path fill="#FCD449" d="M12 9.33333333H0V8h12V0h1.3333333v8H28v1.33333333H13.3333333V20H12V9.33333333z" mask="url(#DMb)"></path><circle cx="14" cy="10" r="4.66666667" fill="url(#DMc)" mask="url(#DMb)"></circle><path stroke="#0E673F" stroke-dasharray=".6666666667 2.6666666667" stroke-linecap="round" stroke-width="1.33333333" d="M14 13.3333333c1.8409492 0 3.3333333-1.4923841 3.3333333-3.3333333 0-1.84094917-1.4923841-3.33333333-3.3333333-3.33333333S10.6666667 8.15905083 10.6666667 10c0 1.8409492 1.4923841 3.3333333 3.3333333 3.3333333z" mask="url(#DMb)"></path><path fill="#0E673F" d="M14 11.3333333c.7363797 0 .6666667-.5969536.6666667-1.3333333 0-.73637967.069713-1.33333333-.6666667-1.33333333S13.3333333 9.26362033 13.3333333 10c0 .7363797-.069713 1.3333333.6666667 1.3333333z" mask="url(#DMb)"></path></g></svg>