<svg class="SVGInline-svg" xmlns="http://www.w3.org/2000/svg" xmlns:xlink="http://www.w3.org/1999/xlink" width="28" height="20"><defs><rect id="KEa" width="28" height="20" x="0" y="0" rx="0"></rect><path id="KEc" d="M3.33333333 14c1.33333334 0 3.33333334-2.6165785 3.33333334-6.66666667 0-4.05008816-2-6.666666663-3.33333334-6.666666663C2 .666666667 0 3.28324517 0 7.33333333 0 11.3834215 2 14 3.33333333 14z"></path><linearGradient id="KEg" x1="50%" x2="50%" y1="0%" y2="100%"><stop offset="0%" stop-color="#FFF"></stop><stop offset="100%" stop-color="#F0F0F0"></stop></linearGradient><path id="KEf" d="M3.33333333 9.33333333c-.36818983 0-.66666666-.8954305-.66666666-2s.29847683-2 .66666666-2c.36818984 0 .66666667.8954305.66666667 2s-.29847683 2-.66666667 2zm0-4c-.36818983 0-.66666666-1.19390733-.66666666-2.66666666C2.66666667 1.19390733 2.9651435 0 3.33333333 0 3.70152317 0 4 1.19390733 4 2.66666667c0 1.47275933-.29847683 2.66666666-.66666667 2.66666666zm0 9.33333337c-.36818983 0-.66666666-1.1939074-.66666666-2.6666667 0-1.4727593.29847683-2.66666667.66666666-2.66666667C3.70152317 9.33333333 4 10.5272407 4 12s-.29847683 2.6666667-.66666667 2.6666667z"></path><filter id="KEe" width="175%" height="113.1%" x="-37.5%" y="-3.4%" filterUnits="objectBoundingBox"><feOffset dy="1" in="SourceAlpha" result="shadowOffsetOuter1"></feOffset><feColorMatrix in="shadowOffsetOuter1" values="0 0 0 0 0 0 0 0 0 0 0 0 0 0 0 0 0 0 0.06 0"></feColorMatrix></filter></defs><g fill="none" fill-rule="evenodd"><mask id="KEb" fill="#fff"><use xlink:href="#KEa"></use></mask><use fill="#FFF" xlink:href="#KEa"></use><path fill="#262626" d="M0 0h28v5.33333333H0z" mask="url(#KEb)"></path><path fill="#018301" d="M0 14.6666667h28v5.33333333H0z" mask="url(#KEb)"></path><path fill="#FFF" d="M0 5.33333333h28v9.33333333H0z" mask="url(#KEb)"></path><path fill="#DC0808" d="M0 6.66666667h28v6.66666667H0z" mask="url(#KEb)"></path><g mask="url(#KEb)"><g transform="translate(10.666667 2.666667)"><mask id="KEd" fill="#fff"><use xlink:href="#KEc"></use></mask><use fill="#BC0000" xlink:href="#KEc"></use><ellipse cx="-2" cy="7.33333333" fill="#262626" mask="url(#KEd)" rx="3.33333333" ry="7.33333333"></ellipse><ellipse cx="8.66666667" cy="7.33333333" fill="#262626" mask="url(#KEd)" rx="3.33333333" ry="7.33333333"></ellipse><g mask="url(#KEd)"><use fill="#000" filter="url(#KEe)" xlink:href="#KEf"></use><use fill="url(#KEg)" xlink:href="#KEf"></use></g></g></g></g></svg>