<svg class="SVGInline-svg" xmlns="http://www.w3.org/2000/svg" xmlns:xlink="http://www.w3.org/1999/xlink" width="28" height="20"><defs><rect id="KYa" width="28" height="20" x="0" y="0" rx="0"></rect><linearGradient id="KYd" x1="50%" x2="50%" y1="0%" y2="100%"><stop offset="0%" stop-color="#FFF"></stop><stop offset="100%" stop-color="#F0F0F0"></stop></linearGradient><path id="KYc" d="M0 4.66666667V0h6.66666667v4.66666667c0 3.33333333-3.33333334 4.66666666-3.33333334 4.66666666S0 8 0 4.66666667z"></path></defs><g fill="none" fill-rule="evenodd"><mask id="KYb" fill="#fff"><use xlink:href="#KYa"></use></mask><use fill="#FFF" xlink:href="#KYa"></use><path fill="#07319C" d="M0 0h28v20H0z" mask="url(#KYb)"></path><ellipse cx="20.6666667" cy="5.33333333" fill="#FAD051" mask="url(#KYb)" rx="2" ry="1.33333333"></ellipse><g mask="url(#KYb)"><g transform="translate(17.333333 5.333333)"><mask id="KYe" fill="#fff"><use xlink:href="#KYc"></use></mask><use fill="url(#KYd)" xlink:href="#KYc"></use><path fill="#CF142C" d="M0 0h6.66666667v1.33333333H0z" mask="url(#KYe)"></path><path fill="#125FBA" d="M0 8h6.66666667v1.33333333H0V8zm0-2.66666667h6.66666667v1.33333334H0V5.33333333zm0-2.66666666h6.66666667V4H0V2.66666667z" mask="url(#KYe)"></path></g></g><path fill="#DB1E36" stroke="#FFF" stroke-width=".666666667" d="M4.33333333 4.15331164L-.901085803-.333333333h1.56775247l.193746064.062088843L5.44015502 3h1.1309129L12.3333333-.601415881v.934749214c0 .295645035-.1705232.626674936-.4175331.803110567L7.66666667 4.1715393v1.00848239l4.29936353 3.68516874c.3766735.32286301.184941.80147624-.2993635.80147624-.2574482 0-.5890636-.10636322-.8050253-.26062159L6.55984498 6.33333333h-1.1309129L-.333333333 9.93474921V8.49512737L4.33333333 5.16179403V4.15331164z" mask="url(#KYb)"></path><path fill="#FFF" d="M0 3.33333333V6h4.66666667v3.33948135c0 .36479438.30590057.66051865.67291259.66051865h1.32084148c.37163936 0 .67291259-.30065012.67291259-.66051865V6h4.65786297c.373052 0 .6754704-.30590057.6754704-.6729126V4.00624593c0-.37163936-.3020242-.6729126-.6754704-.6729126H7.33333333V0H4.66666667v3.33333333H0z" mask="url(#KYb)"></path><path fill="#DB1E36" d="M0 4h5.33333333V0h1.33333334v4H12v1.33333333H6.66666667v4H5.33333333v-4H0z" mask="url(#KYb)"></path></g></svg>