<svg class="SVGInline-svg" xmlns="http://www.w3.org/2000/svg" xmlns:xlink="http://www.w3.org/1999/xlink" width="28" height="20"><defs><rect id="DKa" width="28" height="20" x="0" y="0" rx="0"></rect></defs><g fill="none" fill-rule="evenodd"><mask id="DKb" fill="#fff"><use xlink:href="#DKa"></use></mask><rect width="27.5" height="19.5" x=".25" y=".25" rx="2"></rect><path fill="#EF264D" d="M8 0v8H0V1.99079514C0 .891309342.899897516 0 1.99124431 0H8zm4 0h14.0087557C27.1084896 0 28 .898212381 28 1.99079514V8H12V0zm16 12v6.0092049C28 19.1086907 27.1001025 20 26.0087557 20H12v-8h16zM8 20H1.99124431C.891510444 20 0 19.1017876 0 18.0092049V12h8v8z" mask="url(#DKb)"></path></g></svg>