<svg class="SVGInline-svg" xmlns="http://www.w3.org/2000/svg" xmlns:xlink="http://www.w3.org/1999/xlink" width="28" height="20"><defs><rect id="GIa" width="28" height="20" x="0" y="0" rx="0"></rect></defs><g fill="none" fill-rule="evenodd"><mask id="GIb" fill="#fff"><use xlink:href="#GIa"></use></mask><rect width="27.5" height="19.5" x=".25" y=".25" rx="2"></rect><path fill="#E34F4F" d="M0 13.3333333h28v6.66666667H0z" mask="url(#GIb)"></path><path fill="#E34F4F" d="M9.33333333 8h8v5.33333333h-8z" mask="url(#GIb)"></path><path fill="#181A1A" d="M10.6666667 12h1.33333333v1.33333333H10.6666667zM14.6666667 12h1.33333333v1.33333333H14.6666667zM9.33333333 6.66666667h1.33333333V8H9.33333333zM13.3333333 6.66666667h1.33333333V8H13.3333333z" mask="url(#GIb)"></path><path fill="#181A1A" d="M12 6.66666667h1.33333333V8H12zM16 6.66666667h1.33333333V8H16z" mask="url(#GIb)"></path><path fill="#E34F4F" d="M9.33333333 5.33333333h1.33333333v1.33333333H9.33333333zM13.3333333 5.33333333h1.33333333v1.33333333H13.3333333z" mask="url(#GIb)"></path><path fill="#E34F4F" d="M12 5.33333333h1.33333333v1.33333333H12zM16 5.33333333h1.33333333v1.33333333H16z" mask="url(#GIb)"></path></g></svg>