<svg class="SVGInline-svg" xmlns="http://www.w3.org/2000/svg" xmlns:xlink="http://www.w3.org/1999/xlink" width="28" height="20"><defs><rect id="AUa" width="28" height="20" x="0" y="0" rx="0"></rect><linearGradient id="AUc" x1="50%" x2="50%" y1="0%" y2="100%"><stop offset="0%" stop-color="#FFF"></stop><stop offset="100%" stop-color="#F0F0F0"></stop></linearGradient><linearGradient id="AUd" x1="50%" x2="50%" y1="0%" y2="100%"><stop offset="0%" stop-color="#FF2E3B"></stop><stop offset="100%" stop-color="#FC0D1B"></stop></linearGradient></defs><g fill="none" fill-rule="evenodd"><mask id="AUb" fill="#fff"><use xlink:href="#AUa"></use></mask><use fill="#FFF" xlink:href="#AUa"></use><path fill="#0A17A7" d="M0 0h28v20H0z" mask="url(#AUb)"></path><path fill="#FF2E3B" stroke="#FFF" stroke-width=".666666667" d="M4.33333333 4.15331164L-.901085803-.333333333h1.56775247l.193746064.062088843L5.44015502 3h1.1309129L12.3333333-.601415881v.934749214c0 .295645035-.1705232.626674936-.4175331.803110567L7.66666667 4.1715393v1.00848239l4.29936353 3.68516874c.3766735.32286301.184941.80147624-.2993635.80147624-.2574482 0-.5890636-.10636322-.8050253-.26062159L6.55984498 6.33333333h-1.1309129L-.333333333 9.93474921V8.49512737L4.33333333 5.16179403V4.15331164z" mask="url(#AUb)"></path><path fill="url(#AUc)" d="M0 3.33333333V6h4.66666667v3.33948135c0 .36479438.30590057.66051865.67291259.66051865h1.32084148c.37163936 0 .67291259-.30065012.67291259-.66051865V6h4.65786297c.373052 0 .6754704-.30590057.6754704-.6729126V4.00624593c0-.37163936-.3020242-.6729126-.6754704-.6729126H7.33333333V0H4.66666667v3.33333333H0z" mask="url(#AUb)"></path><path fill="url(#AUd)" d="M0 4h5.33333333V0h1.33333334v4H12v1.33333333H6.66666667v4H5.33333333v-4H0z" mask="url(#AUb)"></path><path fill="#FFF" d="M6 16.3333333l-1.1755705.618034.22451398-1.309017-.95105651-.927051 1.31432778-.190983L6 13.3333333l.58778525 1.190983 1.31432778.190983-.95105651.927051.22451398 1.309017zM20 17.3333333l-.942809.2761424.2761423-.942809-.2761423-.9428091L20 16l.942809-.2761424-.2761423.9428091.2761423.942809zM20 4.66666667l-.942809.27614237L19.3333333 4l-.2761423-.94280904L20 3.33333333l.942809-.27614237L20.6666667 4l.2761423.94280904zM24 8.66666667l-.942809.27614237L23.3333333 8l-.2761423-.94280904L24 7.33333333l.942809-.27614237L24.6666667 8l.2761423.94280904zM16 10l-.942809.2761424.2761423-.94280907-.2761423-.94280904L16 8.66666667l.942809-.27614238-.2761423.94280904.2761423.94280907zM22 11.6666667l-.4714045.1380712.1380712-.4714046-.1380712-.4714045L22 11l.4714045-.1380712-.1380712.4714045.1380712.4714046z" mask="url(#AUb)"></path></g></svg>