<svg class="SVGInline-svg" xmlns="http://www.w3.org/2000/svg" xmlns:xlink="http://www.w3.org/1999/xlink" width="28" height="20"><defs><rect id="HNa" width="28" height="20" x="0" y="0" rx="0"></rect></defs><g fill="none" fill-rule="evenodd"><mask id="HNb" fill="#fff"><use xlink:href="#HNa"></use></mask><rect width="27.5" height="19.5" x=".25" y=".25" rx="2"></rect><path fill="#0884E6" d="M0 0h28v6.66666667H0zM0 13.3333333h28v6.66666667H0z" mask="url(#HNb)"></path><path fill="#0E88E9" d="M14 10.6666667l-.942809.2761423L13.3333333 10l-.2761423-.94280904L14 9.33333333l.942809-.27614237L14.6666667 10l.2761423.942809zM19.3333333 9.33333333l-.942809.27614238.2761424-.94280904-.2761424-.94280904L19.3333333 8l.9428091-.27614237L20 8.66666667l.2761424.94280904zM19.3333333 12l-.942809.2761424.2761424-.9428091-.2761424-.942809.942809.2761424.9428091-.2761424L20 11.3333333l.2761424.9428091zM8.66666667 12l-.94280904.2761424L8 11.3333333l-.27614237-.942809.94280904.2761424.94280904-.2761424-.27614238.942809.27614238.9428091zM8.66666667 9.33333333l-.94280904.27614238L8 8.66666667l-.27614237-.94280904L8.66666667 8l.94280904-.27614237-.27614238.94280904.27614238.94280904z" mask="url(#HNb)"></path></g></svg>