<svg class="SVGInline-svg" xmlns="http://www.w3.org/2000/svg" xmlns:xlink="http://www.w3.org/1999/xlink" width="28" height="20"><defs><rect id="IQa" width="28" height="20" x="0" y="0" rx="0"></rect></defs><g fill="none" fill-rule="evenodd"><mask id="IQb" fill="#fff"><use xlink:href="#IQa"></use></mask><rect width="27.5" height="19.5" x=".25" y=".25" rx="2"></rect><path fill="#DF1E35" d="M0 0h28v6.66666667H0z" mask="url(#IQb)"></path><path fill="#262626" d="M0 13.3333333h28v6.66666667H0z" mask="url(#IQb)"></path><path fill="#0F7A40" d="M18.6666667 8.34103775c0-.18834995.1327196-.27467791.2959098-.19308281l.7415136.37075679C19.8675166 8.60042498 20 8.80989583 20 8.99846586v2.66973494C20 11.8514484 19.85731 12 19.6635437 12h-.6604207c-.1858197 0-.3364563-.1519203-.3364563-.3410378V8.34103775zM10.6666667 8.34103775c0-.18834995.1327196-.27467791.2959098-.19308281l.7415136.37075679C11.8675166 8.60042498 12 8.80989583 12 8.99846586v2.66973494C12 11.8514484 11.85731 12 11.6635437 12h-.6604207c-.1858197 0-.3364563-.1519203-.3364563-.3410378V8.34103775zM16 8.99846586c0-.18324764.1327197-.39815903.2959099-.47975413l.7415136-.37075679c.1634265-.08171326.2959098.00396538.2959098.19308281v3.31792445c0 .18835-.14269.3410378-.3364563.3410378h-.6604207C16.1506366 12 16 11.8567708 16 11.6682008V8.99846586z" mask="url(#IQb)"></path><path fill="#0F7A40" d="M13.3333333 10.3302593c0-.1823972.1327197-.39661914.2959099-.47821424l.7415136-.37075679c.1634265-.08171325.2959099.00112537.2959099.18926261v1.05582832h2V12h-2.9968771c-.1858197 0-.3364563-.1569366-.3364563-.3302593v-1.3394814zM8 10.3302593c0-.1823972.13271968-.39661914.29590988-.47821424l.74151357-.37075679c.16342652-.08171325.29590988.00112537.29590988.18926261v1.05582832h1.99999997V12H8.3364563C8.15063662 12 8 11.8430634 8 11.6697407v-1.3394814z" mask="url(#IQb)"></path></g></svg>