<svg class="SVGInline-svg" xmlns="http://www.w3.org/2000/svg" xmlns:xlink="http://www.w3.org/1999/xlink" width="28" height="20"><defs><rect id="FKa" width="28" height="20" x="0" y="0" rx="0"></rect><path id="FKc" d="M0 4.66666667V1.33245595C0 .59656085.591622194 0 1.33307666 0h4.00051335c.73623791 0 1.33307666.587946256 1.33307666 1.33245595v3.33421072c0 3.33333333-3.33333334 4.66666666-3.33333334 4.66666666S0 8 0 4.66666667z"></path><path id="FKe" d="M0 4.66666667V1.33245595C0 .59656085.591622194 0 1.33307666 0h4.00051335c.73623791 0 1.33307666.587946256 1.33307666 1.33245595v3.33421072c0 3.33333333-3.33333334 4.66666666-3.33333334 4.66666666S0 8 0 4.66666667z"></path></defs><g fill="none" fill-rule="evenodd"><mask id="FKb" fill="#fff"><use xlink:href="#FKa"></use></mask><use fill="#FFF" xlink:href="#FKa"></use><path fill="#07319C" d="M0 0h28v20H0z" mask="url(#FKb)"></path><g mask="url(#FKb)"><g transform="translate(17.333333 5.333333)"><mask id="FKd" fill="#fff"><use xlink:href="#FKc"></use></mask><use fill="#0072C4" xlink:href="#FKc"></use><path fill="#005121" d="M1.53580729 3.93436096c-.68318684.69006638.65573088.60254508.65573088.60254508l.95361325-.30532803s.42873232.0518693.71812981.13910882c.19170551.05779005.72517919.2959799.72517919.2959799s1.12670877-.22493018.73054992-.73230581c-.39615886-.50737563-3.10001621-.69006634-3.78320305 4e-8z" mask="url(#FKd)"></path><g mask="url(#FKd)"><path fill="#A3A3A3" d="M4.37659293 3.21752348c.0274074-.00622223.0914074-.0048254.11525926.02425396.03748148.04546032.11422222.03034921.1517037.07415873.03733333.04393651.08074074.08444445.08074074.14692064 0 .06247619-.00725926.21739682-.00592593.25142857.00192593.05244445.01096297.06057143.06488889.0591746.06503704-.00165079.15481482-.00673015.15762963-.1231746.00192593-.08114286-.07881481-.13180952-.10237037-.42044444.03540741-.03034921.06696296-.05739683.05511111-.09777778-.01185185-.04050794.06696297-.0608254.05911111-.12165079-.008-.06069842.07866667-.09790477.04325926-.16533334-.0354074-.06755555.04325926-.07085714.01185186-.12495238-.03155556-.05396825.05111111-.10133333.0157037-.14844444-.03540741-.04736508.04725926-.09117461.004-.14857143-.04340741-.05739683.02355555-.091174605-.0197037-.135111113.02755555-.043809524.00385185-.168761905-.08281482-.239619048-.08651852-.070984127-.20859259-.108063492-.27955556-.135111111-.132-.050285714-.37807407-.027047619-.5514074-.006730159-.17333334.020190476-.4962963.040507937-.59481482.027047619-.09837037-.013460317-.33066666-.027047619-.51392592.003301588-.06266667.010412698-.13392593-.008380953-.17125926-.043809524-.02992593-.028317461-.04725926-.025269842-.07481482-.023619048-.02755555.001650794-.0434074-.006857143-.05718518-.040634921-.0242963-.059428571-.07866667-.018539682-.1042963-.092825396-.01718518-.049650794-.10651852-.006730159-.13392592-.048888889-.02770371-.04215873-.06103704-.047238095-.136-.04215873-.00385186-.025396826-.04518519-.043936508-.08266667-.03720635.00592592-.04215873-.03540741-.075936508-.1042963-.074285714.00785185-.05231746-.08859259-.092825397-.137925924-.060698413-.031407407-.038857142-.094518518-.03047619-.110222222 0-.033481481-.038857142-.139851852-.027047619-.165481481.015111112-.045185186-.025269842-.133185186.036825396-.125925926.135111111.001925926.027047619.003703703.055111111-.041481482.064126984-.084592592.016888889-.133777778.111365079-.206814815.124825397-.07274074.013587301-.145629629.037206349-.159407407.077714285-.0137777778.040507937.011851852.082793651-.0157037037.102984127-.0275555556.020317461.0176296297.038857143.0314074077.048888889.013777777.01015873.035407407.027047619.039407407.050666667.00562963.033523809.060888889.043555555.118222222.006730159.023555556-.015111112.064888889.03047619.131851852-.001650794.066962963-.032.162074074-.015111111.145777778.037206349-.007851852.025269841.009777778.05231746.031555555.077587302.02162963.025269841.054074075.101587301.035407408.145142861-.027555556.06412698.027555555.09968254.013777778.15695238-.013777778.05752381.007851852.10984127-.02162963.18742857-.02962963.0775873-.030074074.17473016.013777778.20253968.061037037.03885714.024148148.11580952.076740741.14857143.043259259.02692063.017777777.0928254.098518518.11301587.080740741.02031746.033481482.07428572.118074074.08609524.084740742.01180952.114222222.07263492.202814812.05904762.06533334-.00990476.09970371.00596825.13777778.02095238.00785185.05409524-.00962963.25257143-.01362963.3032381-.00355555.04482539-.02755555.11631746-.02755555.16038095 0 .02692063.05511111.03365079.11822222.03365079.06281481 0 .09051852-.02526984.07466666-.09612698-.0157037-.07098413-.01955555-.24380953-.01555555-.35187302.05466667.02628572.10666667.06311111.1042963.10374603-.004.06577778-.00296297.18387302-.01392593.24469842-.0077037.0439365.004.11314285.008.15873015.004.01676191.11022222.01511112.15362963 0 .04325926-.01523809.04325926-.05574603.03925926-.23974603-.00192593-.09104762-.09851852-.18412698.0237037-.2295873.05911111-.02196825.14177778-.07263492.17333334-.11974603.0314074-.04736508.10044444-.0288254.14962962-.00507937.04918519.02361905.128.05968254.17733334.04380953.06296296-.02019048.12992592.0303492.18503704 0 .05511111-.03034921.12607407.02196825.17125925-.01511111.04533334-.03720635.12414815-.00177778.15762963-.03720635.03348149-.03542857.17125926.02031746.2205926-.02692064.04918518-.04736508.11614814.01346032.16148148-.02196825.01185185-.00939683.02592592-.01142857.04133333-.01028571-.00177778.07987301-.01674074.20698412-.0197037.24660317-.00355556.04495238-.02755556.11631746-.02755556.16025397 0 .02704762.05511111.03377778.11807408.03377778.06311111 0 .09066666-.02526985.07496296-.09612699-.01585185-.07085714.00681481-.24520635.01066667-.35339682"></path><path fill="#A3A3A3" d="M1.189926259 1.986666333c.026370371-.019174603.001925926-.059047619.015111111-.097396825.013185186-.038222222.082962963-.060571429.152740741-.073269841.069777778-.012825397.116888889-.102095238.198074074-.118095238.043259259-.008507937.041481482-.035047619.039555556-.060571429-.006814815-.092825397.077333333-.151492063.12074074-.127492063.024444445-.04.126370371-.051174604.158370371-.014476191.015111111-.028698413.075407407-.036698413.105629629 0 .047111112-.030222222.139555559.008.131999999.057396825.06607408-.001523809.10562963.030349207.1.070222223.03585185-.006349207.07540741.011174603.07925926.035047619-.00607407.039238095.08355556.049269841.04207407.074666666-.03629629.022222223-.07081481.013460318-.11214814-.016888889-.04133334-.03047619-.179259263-.003428571-.198962966.011809524-.019703704.015238096-.041333334.021968254-.057185185.01015873-.015703704-.011809523-.053037038-.03047619-.070814815-.028698412-.017777778.001650793-.055111111.001650793-.076888889-.033777778-.02162963-.035428571-.076740741-.040507937-.086518519-.027047619-.009777777.013460317.02162963.06247619.053185185.081015873.031407408.018666667.015703704.054095238.053185186.074285714.024444444.013333334.001925926.059047619-.011851852.086095238-.013777778.027047619-.066962963.018539683-.070962963-.001650793-.003851852-.020190477-.017777778-.033777778-.049185185-.003428572-.031555556.030476191-.098370371.021968254-.114222223.013587302-.015703703-.008507937-.059111111-.023619048-.088592592-.015238095-.02962963.008507936.013777778.021968254.017777778.033777777.003851851.011809524-.047407408.016888889-.076888889.016888889-.029481482 0-.039407408.016761905-.02162963.020190476.017777778.003428572.086518519.006857143.114222222-.006730158.027555556-.013460318.112148148 0 .120148148.025396825.007851852.025269841-.049185185.035428572-.082814814.032-.049481482-.004952381-.122074074.021968254-.157481482.030349206-.035407407.008507937-.129925926-.013460317-.167407407-.003301587-.037333334.010031746-.074222222-.029714286-.058518519-.044825397"></path><path fill="#FFF" d="M1.823407741 2.193523476c-.035407408.013460318-.023555556.053968254.008.070857143.031555555.016888889.10237037.023619048.147703703.015238095.045185186-.008507936.055111112.005079365.02562963.021968254-.02962963.016761905.045185185.020190476.039259259.047238092-.005777777.02692064.027555557.02184127.059111107.02019048.03155556-.00165079.07288889-.02196825.1082963-.040507937.03540741-.018539682.06103704-.005079365.02755556.027047617-.03333334.032-.14562963.07263492-.234222226.06755556-.088740741-.00507937-.136.01511111-.116296296.04380952.019703703.02869841.114222222.03377778.163407407.01853968.049333335-.01511111.041481485.01193651.004.03034921-.037481481.01866667-.090666666.02031746-.135851852.01866667-.045333333-.0016508-.08474074.03720635-.025629629.05904762.059111111.02196825.137925926.00850793.167407407.02704762.029629629.01853968.120148149-.01015873.122074079.02196825.00192592.032-.02562963.04380952-.07881482.04050794-.053185185-.00342858-.03748148.02057142.00207407.03365079.03540741.01193651.09851852.01193651.13185186.00850794.03348148-.00330159.0237037.0303492-.00977778.04215873-.03348148.01180952-.14177778.02869841-.194962964.02704762-.053185186-.0016508-.027703704.03212698.041333334.03212698.21066667 0 .28162963-.09968254.33481481-.16888889.02607408-.03390476.07674074-.05231746.0885926-.032.01185185.02019048.01377777.02526984-.00977778.04215873-.02370371.01688889-.01792593.02704762.02548148.02869841.04325926.0016508.10637037-.01015873.14385185-.02019047.03733334-.01015873.14755556.05371428.05703704.05561904-.15955556.00342858-.35644445.0608254-.42133333.08444445-.06503704.02361905-.17348149.06806349-.240296301.06577778-.049185185-.0016508-.069037037.01688889-.049185185.03885714.019555556.02196825.082666666.02196825.118074076.01180952.03540741-.01015873.04325926 0 .0197037.02019048-.02355555.02031746-.082666665.02869841-.124148146.03555556-.041185185.00673015-.06162963.03314285-.029481482.04380952.061037037.02031746.005925926.03885714.049333334.04901587.043259254.01015873-.004.04215873.043259254.05231746.04725926.01015873.07481482.00507937.11022223-.01853968.03555555-.02361905.05511111-.03720635.09259259-.03377778.03748148.00342857.06311111-.0135873.08474074-.03885714.02162963-.02526984.09451852-.07085714.11807407-.04888889.02370371.02196825.07288889-.01866667.08281482.00330159.00977778.02196825.05111111.00850793.06103704.03885714.01081481.03377778.05703703.04050794.08859259.02869841.03140741-.01180952.05703704-.04050793.05703704-.08279365 0-.04215873.01185185-.05904762.0237037-.01346032.0117037.04558731.05511111.05904762.07674074.03720635.02162963-.02196825.02948148-.09790476.01377778-.13333333-.01570371-.03555555-.01777778-.08114286-.00192593-.08952381.01570371-.00838095.05318519.06920635.06888889.10298413.01585185.03377778.05703704.02361905.05911111-.01015873.00192593-.03377778.03940741-.05066667.06696297-.02526984.02755555.02526984.01185185.10971428.0197037.15022222.00785185.04050794.08459259-.01015873.09259259.00330159.00785185.0135873.03733333.01688889.04918519-.01180953.01185185-.02869841.0394074-.05396825.05511111-.03707936.01585185.01688889.03940741.0455873.04918518.0775873.00992593.03212698.04533334.04901587.06696297.01523809.02162963-.03377777.03748148-.09955555.02962963-.14526984-.008-.04546031.00592592-.07415873.02548148-.05053968.0197037.02361905.01777777.08774603.0197037.14006349.00207407.05231746.06696296.04736508.06696296-.0303492 0-.03542858.01970371-.04215873.02562963-.02196826.00592593.02031746.00592593.05409524.01185186.06920635.01451851.03746032.06503703.01688889.07081481-.00838095.00592593-.02539683-.00385185-.11657143-.0157037-.15695238-.01185186-.04063492.01185185-.06920635.03155555-.04736508.01970371.02196825.02355556.07936508.02755556.14349206.00385185.06412699.04518518.06755556.06696296.04901588.02162963-.01866667.02162963-.07263493.01185185-.11149207-.00992592-.03873016.02162963-.03873016.03540741-.01511111s.03748148.00838095.03348148-.01015873c-.00385185-.01853968.0157037-.03542857.03540741-.01015873.0197037.02539683.01377778.08279365.004.12825397-.00992593.04571428.04918518.04050794.07674074.00177778.02755555-.03885715.01377778-.14514286-.00977778-.17892064-.0237037-.03377778-.02162963-.07771428-.008-.11644444.01392593-.03885715.03955556-.04063492.04148148-.02361905.00192593.0167619.01377778.04546032.03540741.06742857.02162963.02196825.03348148.02539683.03733333-.00850794.004-.03365079.02370371-.02526984.03155556 0 .008.02539683.02162963.04558731.04133333.02374604.01970371-.02196826.04533334-.00507937.02962963.02869841-.01585185.03377778-.01585185.06412698-.004.09790476.01185185.03377778.05318519.02869841.05718519-.01015873.00814815-.0807619.0197037-.02704762.02948148.00838095.00977778.03555556.03940741.03377778.04533333.0135873.00592593-.02031746.01185185-.02526984.01185185-.00342857 0 .02196826.00977778.04050794.03540741.04050794s.01970371-.04380952.03140741-.07085714c.01185185-.02704762.03348148.01015873.06311111.07250793.02948148.06247619.05111111.00342857.12014815.14526984.02814815.05777778.06888889.00838096.06696296-.01180952-.00207407-.02031746.00385185-.03377778.03733333-.03377778.03348149 0 .06103704-.00673016.04933334-.02869841-.01185185-.02196825-.004-.06247619-.00592593-.10806349-.00192592-.0455873.00385185-.07085714.00977778-.0455873.00592593.02526984.02562963.06082539.05703704.07936508.03155555.01853968.05318518-.03212699.02755555-.06412699-.02548148-.03212698-.06088889-.10806349-.05896296-.17219047.00148148-.0472381.02355555-.03212699.02355555.00165079s.01970371.09460317.04933334.10806349c.02948148.01346032.04133333-.04901587.02755555-.08101587-.01377777-.03212699-.02162963-.07593651.00785186-.08444445.02948148-.00838095-.00785186-.04380952-.03348149-.06920635-.02562963-.02526984-.04133333-.05053968.004-.04888888.04518519.00165079.00785186-.02704762-.01392592-.04558731-.02162963-.01853968-.05896296-.05574603 0-.05066666.05911111.00507936.03955555-.02526984.01585185-.04215873s-.03748148-.049015876.00385185-.047238098c.04148148.001650794.06696296-.018666667.06311111-.033777778-.01511111-.058539682-.11422222-.126603174-.17525926-.178920635-.06103703-.05231746-.15955555-.10463492-.21274074-.113142857-.05318518-.008507936-.05511111.025396826-.04133333.045587302.01377778.020190476.04133333.033777778.04533333.013460317.00385185-.020190476.04518519.001777778.06488889.028698413.01970371.027047619.08666667.060825397.12814815.091174603.04133333.030349206-.05525926.015238095-.10251852-.025269841-.02696296-.023238095-.0237037.004952381.01185185.037079365.03540741.032126984-.00992592.045587302-.04725926.018539682-.03748148-.026920634-.13392592-.102857142-.19496296-.151873015-.06103704-.048888889-.07096296-.037079365-.07288889-.005079365-.00192592.032126984.01970371.054095238.05911111.081015873.03940741.027047619.0885926.069206349.12607408.097904761.03733333.028698413.00592592.047238096-.01777778.026920635-.0237037-.020190476-.1042963-.075809523-.15155556-.114666666-.0474074-.038857143-.09066666-.057396826-.12014814-.052317461-.02962963.005079365-.02755556.033777778.00785185.064126985.03540741.030349206.07881481.087746031.07881481.121523809 0 .033777778-.03155555.057396825-.0474074-.003301587-.01570371-.060825397-.09051852-.13168254-.14562963-.185777778-.05511112-.053968254-.11037037-.064126984-.15170371-.060698413-.04133333.003301588-.03940741.043809524-.03940741.075936508 0 .032-.02755555.013460318-.02948148-.01015873-.00192592-.023619048-.03348148-.043809524-.05125926-.04215873-.01762963.001650794-.0117037.050666667-.01762963.072634921-.00592592.021841269-.03348148.04215873-.03348148-.008507937s-.06503703-.075936508-.09259259-.077714286c-.02755556-.001650793-.05318519.008507937-.03940741.030476191.01377778.02184127.00785185.081015873-.00192592.114793651-.00992593.033650793-.03940741-.025396826-.04533334-.087873016-.00592592-.062349207-.09837037-.106285715-.1634074-.087746032-.06503704.018666667-.01570371.059047619-.02755556.097904762-.01185185.038857143-.02962963.003428571-.03555556-.037079365-.00577777-.040507937-.03733333-.065904762-.08059259-.055746032-.04340741.01015873-.07288889.030349206-.07096296.057396825.00192593.027047619.00192593.050666667-.00785185.094476191-.00992593.043936508-.02755556.021968254-.02562963-.006730159.00207407-.028698413-.00785185-.075936508-.01777778-.102984127-.00977778-.026920635-.02562963-.001650793-.02162963.032126984.004.033777778-.00592593.11136508-.02162963.158730159-.0157037.047238095-.03940741.048888889-.02755555-.015238095.01185185-.064126984-.01777778-.158730159-.04725926-.202539683-.02118519-.031365079-.06888889-.04215873-.06888889.001650794 0 .043936508.01377777.075936508.04918518.108063492.03540741.032.00785185.111365079-.02755555.153650794-.03555556.04215873-.03348148-.018666667-.02162963-.064253969.0117037-.045587301-.05318519-.060698412-.07881482-.069206349-.02562963-.008380952.02755556-.053968254.03940741-.114793651.00577778-.029968254-.00207407-.048888889-.02562963-.050666666-.0237037-.001650794-.08666667.055746031-.11422222.097904762.00785185-.043809524 0-.082666667-.02370371-.082666667-.02355555 0-.04918518.042285714-.06681481.072634921-.01777778.030349206-.03555556.013460317-.01777778-.018539683.01777778-.032126984.04518519-.118222222.00977778-.136761905-.03540741-.018539682-.06696296.057396826-.1042963.043809524-.02118518-.007619048.00785185-.055619048.01970371-.077587301.0117037-.021968254-.01185186-.038857143-.06503704.001650793-.05318519.040634921-.07674074.106412699-.09066667.146920635-.01362963.040507937-.10814815.106285714-.1594074.141714286-.05125926.035428571-.07288889.021968254-.04725926.006730159.02562963-.015111112.07674074-.062349207.10237037-.080888889.02562963-.018666667.01377777-.029587302-.03540741.002412698-.04918519.032126984-.13881482.090412698-.23051852.110603175-.053777777.011936508-.061037036.001777777-.00785185-.013460318.05318518-.015238095.17525926-.087873016.20488889-.121523809.01851852-.02120635-.02962963-.003428572-.05318519.001650793-.02355555.005079365-.04325926-.001650793.004-.018539682.04711111-.016888889.19688889-.150222222.22844445-.199238095.0314074-.048888889.00385185-.067555556-.01585185-.065777778-.01970371.001650793-.04725926.013460317-.04133334-.006730159.00592593-.02031746-.00785185-.047365079-.03348148-.038857143-.02562963.008380953-.02355556.057396826-.03348148.08431746-.00977778.02704762-.06503704.062603175-.10044445.062603175-.0354074 0-.08459259.006730159-.12207407.032-.03748148.025269841-.055111111.001650794-.03748148-.018539682.01777778-.020317461.05718518-.025396826.09659259-.027047619.03940741-.001650794.08266667-.006730159.11614815-.038857143.03348148-.032.03540741-.057396826.00992593-.059047619-.02562963-.001650794-.06903704-.030349207-.08281482-.042158731-.06992593-.060063492-.198074073.023619048-.248148147.072507937-.027555556.027047619-.122074074.104761905-.151555556.124952381-.02962963.020190476-.017777778.048888889.031407407.01015873.049333334-.038857143.065037037-.011809524.019851852.016888889-.045481481.028698413-.078814815.070857143-.063111111.086095238.015703704.015111111.076740741-.003428571.110222222-.021968254.033481482-.018539682.049333334.026920635-.033481481.04215873-.055555556.010285715-.074962963.02984127-.031407407.032126984.033481481.001650794.084592592-.011809523.132-.035428571.047111111-.023746032.084592592-.01015873.045185185.013460317-.039407408.023619048-.126074074.055746032-.169333334.055746032-.036296296 0 .005925926.045587302-.029629629.059047619z"></path><path fill="#A3A3A3" d="M2.051852185 1.816237996c.047407405-.049333334.088740745-.070933334.132000005-.035466667.03925925.032133333.0434074.046133333-.00592593.035466667-.04918519-.010666667-.08266667 0-.112148149.031866666-.02962963.032-.063111111.019466667-.013925926-.031866666M1.272148481 1.941538785c.035407408-.035466667.092444445-.035466667.118074075-.0744.025629629-.039066667.053185185-.0248.021629629.0124-.031407407.0372-.092444444.0444-.118074074.070933333s-.039407407.0088-.02162963-.008933333M1.492741074 1.806007287c.021333333-.002933334.062962963-.0284.088592593-.058533334.025629629-.030133333.08074074-.0408.114074074-.005333333.033481481.035466667.051259259.047866667.069037037.055066667.017629629.007066666.017629629.030133333-.009925926.037066666-.027555556.0072-.064888889.012533334-.084592593.0036-.019703703-.0088-.049333333-.015866666-.072888889-.010533333-.023703703.0052-.033481481-.005333333-.013777777-.014266667.019703703-.0088.043259259-.035466666.055111111-.046133333.011851852-.010533333.043259259-.001733333.025629629.008933333-.017777777.010666667-.009925926.0336.007851852.042533334.017777778.008933333.053185185.008933333.068888889-.007066667-.023555555-.023066667-.062962963-.0532-.078666667-.062-.015851851-.008933333-.029629629-.012533333-.049333333.0088-.019703704.021333333-.066962963.072666667-.112148148.070933333-.045333333-.001733333-.033481482-.0196-.007851852-.023066666M2.73718552 2.124023572c-.01748148.0244-.03348148.055866666-.03540741.080666666-.00192592.0248.02074074.041733334.02355556.010666667.00296296-.031066667.00592592-.0496.03051852-.072666667.02474074-.023066666.00103703-.046133333-.01866667-.018666666M2.49600033 2.123455326c.02044445-.008266666.05511111-.027466666.07185186-.0452.01674074-.0176.02755555-.006133333.01081481.013333334-.01674074.019466666-.05511111.042533333-.07288889.047866666-.01762963.005333334-.03140741-.007066666-.00977778-.016M2.52651885 2.222094905c-.02829629.034031746-.13985185.114920635-.17333333.130031745-.03348148.0152381-.02162963.03720635.01585185.02539683-.02755556.02184127-.08874074.05739682-.128.06742857-.03940741.01015873-.04740741.04050793.0117037.02196825.05911112-.01853968.14177778-.06755555.16340741-.08939682.02177778-.02196826-.00577778-.03212699.02770371-.055746036.03348148-.023619047.0954074-.06679365.10429629-.084444444.01377778-.026920635-.00192592-.038857143-.02162963-.015238095M2.40444478 2.49739649c.04222222-.02057143.12103703-.09333333.1437037-.13511111.01377778-.02526984.04133333-.02196825.01970371.01688889-.02162963.03885714-.10237038.10806349-.12992593.12660317-.02755556.01853969-.07881482.01346032-.03348148-.00838095M3.30044478 2.097269508c-.01155556.023746032-.01377778.079365079-.00977778.106285714.00385185.027047619.02755556.04736508.02355556.006857143-.00385186-.040507936-.00385186-.081015873.00977777-.092825397.01392593-.011936508-.00385185-.060825397-.02355555-.02031746M3.54074107 2.196825063c.02.018412699.02948149.104761905.02755556.136761907-.00192593.03212698.03155556.03212698.02948148-.013460319-.00192592-.045587302-.00592592-.102984127-.02355555-.133333334-.01777778-.03047619-.06103704-.015238095-.03348149.010031746M3.75140774 2.252571095c.01214815.022095238.02755556.064126984.02755556.094476195 0 .03047619.02562963.01688888.02755555-.018539687.00192593-.035428571-.00385185-.065777778-.01762963-.089396825-.01377778-.023619048-.05525926-.018666667-.03748148.013460317M3.88148181 2.226168992c-.01081481-.0272-.02755555-.051466667-.03955555-.047866667-.0117037.0036-.00385185.0284.012.054933334.01555555.026666666.03925926.023066666.02755555-.007066667M3.05822256 2.41460284c-.00592593.07073016-.04340741.13333333-.0885926.15530159-.04533333.02196825-.03748148.05739682.01762963.02196825.05525926-.03542857.0965926-.09625397.10844445-.15022222.0117037-.05409524-.03348148-.07428571-.03748148-.02704762M2.95970404 2.38260284c-.02355556.02361905-.03733334.07428572-.03733334.11301587 0 .03885715.01570371.01015873.01970371-.01180952s.0117037-.05231746.03155555-.06247619c.01955556-.01015873.00977778-.06234921-.01392592-.03873016M4.66518552 2.43149173c.02074074.03415873.05125926.08952381.06103704.12152381.00992592.03212698-.01377778.04050794-.02162963.01180952-.008-.02869841-.04533334-.09282539-.05911112-.11479365-.01377777-.02184127-.004-.05739682.01970371-.01853968"></path></g><path stroke="#FFF" stroke-linecap="round" stroke-linejoin="round" stroke-width=".666666667" d="M-1.33333333 4s2.267913179.67379697 2.65071694.67379697c.10757443 0 1.57658306-.33689849 2.01699749-.33689848.1647098 0 1.68529957.23078079 2.08232435.33689848C5.81373023 4.77991466 8.00209582 4 8.00209582 4M-1.33333333 5.33333333s2.267913179.67379697 2.65071694.67379697c.10757443 0 1.57658306-.33689848 2.01699749-.33689848.1647098 0 1.68529957.23078079 2.08232435.33689848.39702478.1061177 2.58539037-.67379697 2.58539037-.67379697" mask="url(#FKd)"></path><path stroke="#FFF" stroke-linecap="round" stroke-linejoin="round" stroke-width="1.33333333" d="M-1.33333333 8s2.267913179.67379697 2.65071694.67379697c.10757443 0 .98328693-.54521624 2.01699749-.54521624s1.68529957.43909855 2.08232435.54521624C5.81373023 8.77991466 8.00209582 8 8.00209582 8l7.17734758 1.14794922" mask="url(#FKd)"></path></g><path stroke="#FFF" stroke-width=".666666667" d="M20.66666633 14.30262332c.09236475-.04346156.21358387-.10539761.35649581-.18638105.37072578-.21007794.74180131-.46983081 1.08718262-.78067399.97630897-.87867807 1.55632157-1.98070202 1.55632157-3.33556861V6.66578895c0-.557069803-.44424263-.999122617-.99974332-.999122617h-4.00051335c-.555390475 0-.999743327.445349732-.999743327.999122617v3.33421072c0 1.35486659.580012605 2.45689054 1.556321577 3.33556861.34538131.31084318.71645684.57059605 1.08718261.78067399.14291195.08098344.26413107.14291949.35649581.18638105z"></path></g><path fill="#DB1E36" stroke="#FFF" stroke-width=".666666667" d="M4.33333333 4.15331164L-.901085803-.333333333h1.56775247l.193746064.062088843L5.44015502 3h1.1309129L12.3333333-.601415881v.934749214c0 .295645035-.1705232.626674936-.4175331.803110567L7.66666667 4.1715393v1.00848239l4.29936353 3.68516874c.3766735.32286301.184941.80147624-.2993635.80147624-.2574482 0-.5890636-.10636322-.8050253-.26062159L6.55984498 6.33333333h-1.1309129L-.333333333 9.93474921V8.49512737L4.33333333 5.16179403V4.15331164z" mask="url(#FKb)"></path><path fill="#FFF" d="M0 3.33333333V6h4.66666667v3.33948135c0 .36479438.30590057.66051865.67291259.66051865h1.32084148c.37163936 0 .67291259-.30065012.67291259-.66051865V6h4.65786297c.373052 0 .6754704-.30590057.6754704-.6729126V4.00624593c0-.37163936-.3020242-.6729126-.6754704-.6729126H7.33333333V0H4.66666667v3.33333333H0z" mask="url(#FKb)"></path><path fill="#DB1E36" d="M0 4h5.33333333V0h1.33333334v4H12v1.33333333H6.66666667v4H5.33333333v-4H0z" mask="url(#FKb)"></path></g></svg>