<svg class="SVGInline-svg" xmlns="http://www.w3.org/2000/svg" xmlns:xlink="http://www.w3.org/1999/xlink" width="28" height="20"><defs><rect id="BBa" width="28" height="20" x="0" y="0" rx="0"></rect><linearGradient id="BBb" x1="50%" x2="50%" y1="0%" y2="100%"><stop offset="0%" stop-color="#1132C7"></stop><stop offset="100%" stop-color="#0522A5"></stop></linearGradient></defs><g fill="none" fill-rule="evenodd"><mask id="BBc" fill="#fff"><use xlink:href="#BBa"></use></mask><use fill="#FFF" xlink:href="#BBa"></use><path fill="url(#BBb)" d="M0 0h28v20H0z" mask="url(#BBc)"></path><path fill="#08379D" d="M13.3333333 0H28v20H13.3333333zM0 0h9.33333333v20H0z" mask="url(#BBc)"></path><path fill="#FFCC50" d="M9.33333333 0h9.33333333v20H9.33333333z" mask="url(#BBc)"></path><path fill="#262626" d="M13.837692 6.27809143c.1044496-.15358566.2748471-.14686584.3707886 0l.9431869 1.44381714c.1003313.15358566.0254158.27809144-.1568885.27809145l-.3228913 2e-8c-.1869784 1e-8-.3242314.14322918-.3053744.3317992l.2669734 2.66973486c.0183248.1832477.1878024.3317992.3665133.3317992.1840949 0 .4375-.1030477.5740153-.2380965l.1853027-.1833122c.132925-.131497.240682-.3815529.240682-.5763599v-.66396793c0-.18681774-.1041667-.4424301-.240682-.5789454l-.1853027-.18530274c-.132925-.13292498-.0968469-.28862698.071818-.34484862l1.375-.4583333c.172589-.05752965.2861586.03906251.2514785.22763253l-.490994 2.66973486c-.0337013.1832477-.1698542.4364237-.3026121.5640482l-.9037819.8688354c-.1334267.1282676-.3962129.232249-.5749238.232249-.1840949 0-.3333333.14269-.3333333.3364563v.6604207c0 .1858197-.1426901.3364563-.3364563.3364563h-.6604208c-.1858197 0-.3364563-.14269-.3364563-.3364563v-.6604207c0-.1858197-.1546224-.3364563-.3333333-.3364563-.1840949 0-.4379578-.1046245-.5655823-.232249l-.8688354-.8688354c-.1282676-.1282676-.2608948-.3754781-.2986088-.5640482l-.533947-2.66973486c-.0366495-.18324763.0774752-.28385417.2461402-.22763253l1.375.4583333c.172589.05752966.2083333.20833332.071818.34484862l-.1853027.18530274C12.107757 9.22557635 12 9.47678976 12 9.67159677v.66396793c0 .1868177.1041667.4413111.240682.5763599l.1853027.1833122c.132925.1314971.3953044.2380965.5740153.2380965.1840949 0 .3476563-.1432291.3665133-.3317992l.2669734-2.66973491C13.6518115 8.14855156 13.5104167 8 13.3281123 8h-.3228913c-.1869784 0-.2493112-.13122559-.1494316-.27809143l.9819026-1.44381714z" mask="url(#BBc)"></path></g></svg>