<svg class="SVGInline-svg" xmlns="http://www.w3.org/2000/svg" xmlns:xlink="http://www.w3.org/1999/xlink" width="28" height="20"><defs><rect id="BIa" width="28" height="20" x="0" y="0" rx="0"></rect></defs><g fill="none" fill-rule="evenodd"><mask id="BIb" fill="#fff"><use xlink:href="#BIa"></use></mask><use fill="#FFF" xlink:href="#BIa"></use><path fill="#E4233B" d="M0 0h28v20H0z" mask="url(#BIb)"></path><path fill="#34CD4E" d="M0 0l12 10L0 20z" mask="url(#BIb)"></path><path fill="#34CD4E" d="M16 0l12 10-12 10z" mask="url(#BIb)" transform="matrix(-1 0 0 1 44 0)"></path><path fill="#FFF" d="M11.0379053 6.39375132C11.843656 5.73115499 12.8753699 5.33333333 14 5.33333333c1.1246301 0 2.156344.39782166 2.9620947 1.06041799l12.3203745-8.31019755L30.7736503.29432063 18.4542388 8.60386859c.1380321.44082801.2124279.90979168.2124279 1.39613141 0 .4863397-.0743958.9553034-.2124279 1.3961314l12.3194115 8.309548-1.4911811 2.2107668-12.3203745-8.3101975c-.8057507.6625963-1.8374646 1.060418-2.9620947 1.060418-1.1246301 0-2.156344-.3978217-2.9620947-1.060418l-12.3203745 8.3101975-1.49118107-2.2107668 12.31941147-8.309548c-.13803205-.440828-.21242787-.9097917-.21242787-1.3961314 0-.48633973.07439582-.9553034.21242787-1.39613141L-2.77365027.29432063l1.49118107-2.21076686 12.3203745 8.31019755z" mask="url(#BIb)"></path><path fill="#DF2239" d="M14 8.66666667l-.942809.27614237L13.3333333 8l-.2761423-.94280904L14 7.33333333l.942809-.27614237L14.6666667 8l.2761423.94280904L14 8.66666667zM12 12l-.942809.2761424.2761423-.9428091-.2761423-.942809L12 10.6666667l.942809-.2761424-.2761423.942809.2761423.9428091L12 12zm4 0l-.942809.2761424.2761423-.9428091-.2761423-.942809L16 10.6666667l.942809-.2761424-.2761423.942809.2761423.9428091L16 12z" mask="url(#BIb)"></path></g></svg>