<svg class="SVGInline-svg" xmlns="http://www.w3.org/2000/svg" xmlns:xlink="http://www.w3.org/1999/xlink" width="28" height="20"><defs><rect id="HRa" width="28" height="20" x="0" y="0" rx="0"></rect><linearGradient id="HRc" x1="50%" x2="50%" y1="0%" y2="100%"><stop offset="0%" stop-color="#FF212E"></stop><stop offset="100%" stop-color="#FD0D1B"></stop></linearGradient></defs><g fill="none" fill-rule="evenodd"><mask id="HRb" fill="#fff"><use xlink:href="#HRa"></use></mask><rect width="27.5" height="19.5" x=".25" y=".25" rx="2"></rect><path fill="#FF202D" d="M0 0h28v6.66666667H0z" mask="url(#HRb)"></path><path fill="#1895DB" d="M10.6666667 5.33333333l.6666666-.66666666L12 5.33333333v1.33333334h-1.3333333V5.33333333zm2.6666666 0L14 4.66666667l.6666667.66666666v1.33333334h-1.3333334V5.33333333zm2.6666667 0l.6666667-.66666666.6666666.66666666v1.33333334H16V5.33333333z" mask="url(#HRb)" opacity=".5"></path><path fill="#191F94" d="M12 5.33333333l.6666667-.66666666.6666666.66666666v1.33333334H12V5.33333333zm2.6666667 0l.6666666-.66666666L16 5.33333333v1.33333334h-1.3333333V5.33333333z" mask="url(#HRb)" opacity=".5"></path><path fill="#2027AC" d="M0 13.3333333h28v6.66666667H0z" mask="url(#HRb)"></path><path fill="url(#HRc)" d="M13.3333333 6.66666667h1.3333334V8h-1.3333334V6.66666667zm2.6666667 0h.6666667L17.3333333 8H16V6.66666667zm-4.6666667 0H12V8h-1.3333333l.6666666-1.33333333zM12 8h1.3333333v1.33333333H12V8zm2.6666667 0H16v1.33333333h-1.3333333V8zm-1.3333334 1.33333333h1.3333334v1.33333337h-1.3333334V9.33333333zm2.6666667 0h1.3333333v1.33333337H16V9.33333333zm-1.3333333 1.33333337H16V12h-1.3333333v-1.3333333zm-4-1.33333337H12v1.33333337h-1.3333333V9.33333333zM12 10.6666667h1.3333333V12H12v-1.3333333zM10.6666667 12H12v1.3333333h-1.3333333V12zm2.6666666 0h1.3333334v1.3333333h-1.3333334V12zM16 12h1.3333333v1.3333333H16V12zm-1.3333333 1.3333333H16v1.3333334h-1.3333333v-1.3333334zm-2.6666667 0h1.3333333v1.3333334H12v-1.3333334z" mask="url(#HRb)"></path></g></svg>