<svg class="SVGInline-svg" xmlns="http://www.w3.org/2000/svg" xmlns:xlink="http://www.w3.org/1999/xlink" width="28" height="20"><defs><rect id="FJa" width="28" height="20" x="0" y="0" rx="0"></rect><linearGradient id="FJc" x1="50%" x2="50%" y1="0%" y2="100%"><stop offset="0%" stop-color="#042C90"></stop><stop offset="100%" stop-color="#00247E"></stop></linearGradient><path id="FJd" d="M0 4.66666667V0h6.66666667v4.66666667c0 3.33333333-3.33333334 4.66666666-3.33333334 4.66666666S0 8 0 4.66666667z"></path><linearGradient id="FJf" x1="50%" x2="50%" y1="0%" y2="100%"><stop offset="0%" stop-color="#FFF"></stop><stop offset="100%" stop-color="#F0F0F0"></stop></linearGradient></defs><g fill="none" fill-rule="evenodd"><mask id="FJb" fill="#fff"><use xlink:href="#FJa"></use></mask><use fill="#FFF" xlink:href="#FJa"></use><path fill="#79CFF6" d="M0 0h28v20H0z" mask="url(#FJb)"></path><path fill="url(#FJc)" d="M0 0h12v9.33333333H0z" mask="url(#FJb)"></path><g mask="url(#FJb)"><g transform="translate(17.333333 5.333333)"><mask id="FJe" fill="#fff"><use xlink:href="#FJd"></use></mask><use fill="#FFF" xlink:href="#FJd"></use><path fill="#2A915C" d="M1.33333333 3.33333333c-.36818983 0-.666666663-.29847683-.666666663-.66666666C.666666667 2.29847683.9651435 2 1.33333333 2 1.70152317 2 2 2.29847683 2 2.66666667c0 .36818983-.29847683.66666666-.66666667.66666666zm4 0c-.36818983 0-.66666666-.29847683-.66666666-.66666666C4.66666667 2.29847683 4.9651435 2 5.33333333 2 5.70152317 2 6 2.29847683 6 2.66666667c0 .36818983-.29847683.66666666-.66666667.66666666z" mask="url(#FJe)"></path><path fill="#EB1D43" d="M0 0h6.66666667v1.33333333H4V4h2.66666667v1.33333333H4v4H2.66666667v-4H0V4h2.66666667V1.33333333H0z" mask="url(#FJe)"></path></g></g><path fill="#DB1E36" stroke="#FFF" stroke-width=".666666667" d="M4.33333333 4.15331164L-.901085803-.333333333h1.56775247l.193746064.062088843L5.44015502 3h1.1309129L12.3333333-.601415881v.934749214c0 .295645035-.1705232.626674936-.4175331.803110567L7.66666667 4.1715393v1.00848239l4.29936353 3.68516874c.3766735.32286301.184941.80147624-.2993635.80147624-.2574482 0-.5890636-.10636322-.8050253-.26062159L6.55984498 6.33333333h-1.1309129L-.333333333 9.93474921V8.49512737L4.33333333 5.16179403V4.15331164z" mask="url(#FJb)"></path><path fill="url(#FJf)" d="M0 3.33333333V6h4.66666667v3.33948135c0 .36479438.30590057.66051865.67291259.66051865h1.32084148c.37163936 0 .67291259-.30065012.67291259-.66051865V6h4.65786297c.373052 0 .6754704-.30590057.6754704-.6729126V4.00624593c0-.37163936-.3020242-.6729126-.6754704-.6729126H7.33333333V0H4.66666667v3.33333333H0z" mask="url(#FJb)"></path><path fill="#DB1E36" d="M0 4h5.33333333V0h1.33333334v4H12v1.33333333H6.66666667v4H5.33333333v-4H0z" mask="url(#FJb)"></path></g></svg>