<svg class="SVGInline-svg" xmlns="http://www.w3.org/2000/svg" xmlns:xlink="http://www.w3.org/1999/xlink" width="28" height="20"><defs><rect id="BYa" width="28" height="20" x="0" y="0" rx="0"></rect></defs><g fill="none" fill-rule="evenodd"><mask id="BYb" fill="#fff"><use xlink:href="#BYa"></use></mask><use fill="#FFF" xlink:href="#BYa"></use><path fill="#E54252" d="M0 0h28v13.3333333H0z" mask="url(#BYb)"></path><path fill="#5CBE6B" d="M0 13.3333333h28v6.66666667H0z" mask="url(#BYb)"></path><path fill="#FFF" d="M4 17v3H0V0h4v3l-.66666667 1L4 5v2l-.66666667 1L4 9v2l-.66666667 1L4 13v2l-.66666667 1L4 17z" mask="url(#BYb)"></path><path fill="#E54252" d="M-2 4l1.333333333-2L.666666667 4-.666666667 6-2 4zm0 4l1.333333333-2L.666666667 8l-1.333333334 2L-2 8zm0 4l1.333333333-2 1.333333334 2-1.333333334 2L-2 12zm0 4l1.333333333-2 1.333333334 2-1.333333334 2L-2 16zM.666666667 2L2 0l1.33333333 2L2 4 .666666667 2zm0 4L2 4l1.33333333 2L2 8 .666666667 6zm0 4L2 8l1.33333333 2L2 12 .666666667 10zm0 4L2 12l1.33333333 2L2 16 .666666667 14zm0 4L2 16l1.33333333 2L2 20 .666666667 18z" mask="url(#BYb)"></path></g></svg>