<svg class="SVGInline-svg" xmlns="http://www.w3.org/2000/svg" xmlns:xlink="http://www.w3.org/1999/xlink" width="28" height="20"><defs><rect id="GDa" width="28" height="20" x="0" y="0" rx="0"></rect><path id="GDc" d="M0 0h22.6666667v14.6666667H0z"></path><linearGradient id="GDe" x1="50%" x2="50%" y1="0%" y2="100%"><stop offset="0%" stop-color="#E21C30"></stop><stop offset="100%" stop-color="#CE1225"></stop></linearGradient></defs><g fill="none" fill-rule="evenodd"><mask id="GDb" fill="#fff"><use xlink:href="#GDa"></use></mask><use fill="#FFF" xlink:href="#GDa"></use><path fill="#E42235" d="M0 0h28v20H0z" mask="url(#GDb)"></path><g mask="url(#GDb)"><g transform="translate(2.666667 2.666667)"><mask id="GDd" fill="#fff"><use xlink:href="#GDc"></use></mask><use fill="#079B77" xlink:href="#GDc"></use><path fill="#FFD938" d="M1.7265052 7.46513824c.37750295.60413102.91947805 1.0029115 1.42427983 1.10525293.27791253.05634285-.23091455-1.21817831-.00918318-1.35673145.18919127-.11821983 1.0994518.94166096 1.17915983.72053583.18339341-.50876799.07520802-1.2292342-.3327949-1.88217534-.58533265-.93672806-.60818354-.31847057-2.19056932-.98953718.16544824.95968111-.65622492 1.46592715-.07089226 2.40265521z" mask="url(#GDd)"></path><path fill="#FFD93B" d="M0 0h22.6666667L11.3333333 7.33333333 0 0zm0 14.6666667l11.3333333-7.33333337 11.3333334 7.33333337H0z" mask="url(#GDd)"></path><circle cx="11.3333333" cy="7.33333333" r="3.33333333" fill="url(#GDe)" mask="url(#GDd)"></circle><path fill="#FFD938" d="M11.3333333 8.36172945L9.76590599 9.49071198l.58936451-1.83958677-1.55808788-1.14183719 1.93167468-.00794462.604476-1.83467673.6044761 1.83467673 1.9316746.00794462-1.5580878 1.14183719.5893645 1.83958677z" mask="url(#GDd)"></path></g></g></g></svg>