<svg class="SVGInline-svg" xmlns="http://www.w3.org/2000/svg" xmlns:xlink="http://www.w3.org/1999/xlink" width="28" height="20"><defs><rect id="GQa" width="28" height="20" x="0" y="0" rx="0"></rect></defs><g fill="none" fill-rule="evenodd"><mask id="GQb" fill="#fff"><use xlink:href="#GQa"></use></mask><rect width="27.5" height="19.5" x=".25" y=".25" rx="2"></rect><path fill="#EC3938" d="M0 13.3333333h28v6.66666667H0z" mask="url(#GQb)"></path><path fill="#51B422" d="M0 0h28v6.66666667H0z" mask="url(#GQb)"></path><path fill="#159940" d="M13.420774 11.9089152c.1284374-.1337902.2334315-.3953451.2344108-.5666885l.0096275-1.68445336c.0010242-.17918327-.1543956-.32444001-.3367-.32444001h-.3228913c-.1869784 0-.2339299-.10462443-.1063054-.23224894l.8688355-.86883545c.1282675-.12826755.3368733-.12762451.4644978 0l.8688355.86883545c.1282675.12826755.0759989.23224894-.1063054.23224894h-.3228913c-.1869784 0-.3385544.15309652-.3385544.32444001v1.68445336c0 .1791832.1054688.4299087.2422486.5666885l-.1511638-.1511637c.1337902.1337901.0995585.2422485-.0942077.2422485h-.6604208c-.1858197 0-.2352072-.1054687-.1038997-.2422485l-.1451159.1511637z" mask="url(#GQb)"></path><path fill="#258DE7" d="M0 0l9.33333333 10L0 20z" mask="url(#GQb)"></path></g></svg>