<svg class="SVGInline-svg" xmlns="http://www.w3.org/2000/svg" xmlns:xlink="http://www.w3.org/1999/xlink" width="28" height="20"><defs><rect id="VGa" width="28" height="20" x="0" y="0" rx="0"></rect><path id="VGc" d="M0 4.66666667V1.33245595C0 .59656085.591622194 0 1.33307666 0h4.00051335c.73623791 0 1.33307666.587946256 1.33307666 1.33245595v3.33421072c0 3.33333333-3.33333334 4.66666666-3.33333334 4.66666666S0 8 0 4.66666667z"></path></defs><g fill="none" fill-rule="evenodd"><mask id="VGb" fill="#fff"><use xlink:href="#VGa"></use></mask><use fill="#FFF" xlink:href="#VGa"></use><path fill="#07319C" d="M0 0h28v20H0z" mask="url(#VGb)"></path><g mask="url(#VGb)"><g transform="translate(17.333333 5.333333)"><mask id="VGd" fill="#fff"><use xlink:href="#VGc"></use></mask><use fill="#008339" xlink:href="#VGc"></use><path fill="#FFD033" d="M2 2.66666667c-.36818983 0-.66666667-.29847684-.66666667-.66666667S1.63181017 1.33333333 2 1.33333333 2.66666667 1.63181017 2.66666667 2 2.36818983 2.66666667 2 2.66666667zM2 4c-.36818983 0-.66666667-.29847683-.66666667-.66666667 0-.36818983.29847684-.66666666.66666667-.66666666s.66666667.29847683.66666667.66666666C2.66666667 3.70152317 2.36818983 4 2 4zm0 1.33333333c-.36818983 0-.66666667-.29847683-.66666667-.66666666C1.33333333 4.29847683 1.63181017 4 2 4s.66666667.29847683.66666667.66666667c0 .36818983-.29847684.66666666-.66666667.66666666zm0 1.33333334c-.36818983 0-.66666667-.29847684-.66666667-.66666667S1.63181017 5.33333333 2 5.33333333 2.66666667 5.63181017 2.66666667 6 2.36818983 6.66666667 2 6.66666667zm2.66666667 0C4.29847683 6.66666667 4 6.36818983 4 6s.29847683-.66666667.66666667-.66666667c.36818983 0 .66666666.29847684.66666666.66666667s-.29847683.66666667-.66666666.66666667zm0-1.33333334C4.29847683 5.33333333 4 5.0348565 4 4.66666667 4 4.29847683 4.29847683 4 4.66666667 4c.36818983 0 .66666666.29847683.66666666.66666667 0 .36818983-.29847683.66666666-.66666666.66666666zm0-1.33333333C4.29847683 4 4 3.70152317 4 3.33333333c0-.36818983.29847683-.66666666.66666667-.66666666.36818983 0 .66666666.29847683.66666666.66666666C5.33333333 3.70152317 5.0348565 4 4.66666667 4zm0-1.33333333C4.29847683 2.66666667 4 2.36818983 4 2s.29847683-.66666667.66666667-.66666667c.36818983 0 .66666666.29847684.66666666.66666667s-.29847683.66666667-.66666666.66666667z" mask="url(#VGd)"></path><ellipse cx="3.33333333" cy="4" fill="#FFF" mask="url(#VGd)" rx="1" ry="2"></ellipse></g></g><path fill="#FFD033" fill-rule="nonzero" d="M16.6666667 13.3333333c0 1.2715201 1.8211998 2 4 2s4-.7284799 4-2c0-.3681898-.2984769-.6666666-.6666667-.6666666-.3681898 0-.6666667.2984768-.6666667.6666666 0 .0127465-.1615943.1655672-.5572378.3238246C22.2390168 13.8719894 21.4823891 14 20.6666667 14c-.8157225 0-1.5723502-.1280106-2.1094289-.3428421C18.1615943 13.4989005 18 13.3460798 18 13.3333333c0-.3681898-.2984768-.6666666-.6666667-.6666666-.3681898 0-.6666666.2984768-.6666666.6666666z" mask="url(#VGb)"></path><path fill="#DB1E36" stroke="#FFF" stroke-width=".666666667" d="M4.33333333 4.15331164L-.901085803-.333333333h1.56775247l.193746064.062088843L5.44015502 3h1.1309129L12.3333333-.601415881v.934749214c0 .295645035-.1705232.626674936-.4175331.803110567L7.66666667 4.1715393v1.00848239l4.29936353 3.68516874c.3766735.32286301.184941.80147624-.2993635.80147624-.2574482 0-.5890636-.10636322-.8050253-.26062159L6.55984498 6.33333333h-1.1309129L-.333333333 9.93474921V8.49512737L4.33333333 5.16179403V4.15331164z" mask="url(#VGb)"></path><path fill="#FFF" d="M0 3.33333333V6h4.66666667v3.33948135c0 .36479438.30590057.66051865.67291259.66051865h1.32084148c.37163936 0 .67291259-.30065012.67291259-.66051865V6h4.65786297c.373052 0 .6754704-.30590057.6754704-.6729126V4.00624593c0-.37163936-.3020242-.6729126-.6754704-.6729126H7.33333333V0H4.66666667v3.33333333H0z" mask="url(#VGb)"></path><path fill="#DB1E36" d="M0 4h5.33333333V0h1.33333334v4H12v1.33333333H6.66666667v4H5.33333333v-4H0z" mask="url(#VGb)"></path></g></svg>