<svg class="SVGInline-svg" xmlns="http://www.w3.org/2000/svg" xmlns:xlink="http://www.w3.org/1999/xlink" width="28" height="20"><defs><rect id="IMa" width="28" height="20" x="0" y="0" rx="0"></rect></defs><g fill="none" fill-rule="evenodd"><mask id="IMb" fill="#fff"><use xlink:href="#IMa"></use></mask><use fill="#D01129" xlink:href="#IMa"></use><g mask="url(#IMb)"><path fill="#FFF101" d="M13.88815534 10.0408566c.66093204 0 1.19673786-.5625688 1.19673786-1.25639143 0-.69394496-.53580582-1.25651377-1.19673786-1.25651377s-1.19662136.56256881-1.19662136 1.25651377c0 .69382263.53568932 1.25639143 1.19662136 1.25639143"></path><path d="M13.88815534 10.0408566c.66093204 0 1.19673786-.5625688 1.19673786-1.25639143 0-.69394496-.53580582-1.25651377-1.19673786-1.25651377s-1.19662136.56256881-1.19662136 1.25651377c0 .69382263.53568932 1.25639143 1.19662136 1.25639143z"></path><path fill="#FFF" d="M12.79732039 8.27926639c.33891262-.11351682.77860194.01859327 1.06788349.31009174.3071068-.05871559.61502913-.46360856.71044661-.82409786-.10485437-1.19792049-.85118447-2.10544342-1.07813593-2.72819572-.07176699-.19681957-.40450485-.50629969-.75052427-.36220183-.28450485.11853211-.42838835.02629969-1.38396116.52672783-.51669903.27058104-.95161165.54850153-1.1807767.59694189-.22928156.04844037-.47114563.0916208-.65452427-.05920489-.25223301-.20746177-.535106801-.2648318-.701708743-.42116208-.204116504-.19155963-.335067961-.33614679-.473126213-.39474006-.138058253-.0587156-.3717669904.07168196-.2730873788.38201835.2226407768.70091743.7474951458.81443425.9728155348 1.46960244.10636893.30972478.25759223.54250765.59557281.30776759.33798059-.23474006.81565049-.54654434 1.63001942-.57932722.54687379-.02214067 1.11203884-.23327217 1.37172816-.57969419-.00256311.29969419.09809708.5453211.07153398.9351682-.0264466.38996942-.02225243.87498471.07584466 1.42030581"></path><path d="M12.79732039 8.27926639c.33891262-.11351682.77860194.01859327 1.06788349.31009174.3071068-.05871559.61502913-.46360856.71044661-.82409786-.10485437-1.19792049-.85118447-2.10544342-1.07813593-2.72819572-.07176699-.19681957-.40450485-.50629969-.75052427-.36220183-.28450485.11853211-.42838835.02629969-1.38396116.52672783-.51669903.27058104-.95161165.54850153-1.1807767.59694189-.22928156.04844037-.47114563.0916208-.65452427-.05920489-.25223301-.20746177-.535106801-.2648318-.701708743-.42116208-.204116504-.19155963-.335067961-.33614679-.473126213-.39474006-.138058253-.0587156-.3717669904.07168196-.2730873788.38201835.2226407768.70091743.7474951458.81443425.9728155348 1.46960244.10636893.30972478.25759223.54250765.59557281.30776759.33798059-.23474006.81565049-.54654434 1.63001942-.57932722.54687379-.02214067 1.11203884-.23327217 1.37172816-.57969419-.00256311.29969419.09809708.5453211.07153398.9351682-.0264466.38996942-.02225243.87498471.07584466 1.42030581zM9.31697087 5.59620828c-.14108737-.0719266-.29580582.0885627-.38528155.47571866l.38528155-.47571866zm-.18186407-.09431192c-.13491263-.06409786-.247456315-.03107034-.415572819.34311926l.415572819-.34311926zm-.270524276-.15143731c-.103223301-.08146789-.236504854.03633027-.303145631.21198777l.303145631-.21198777z"></path><path fill="#FFF101" d="M13.43798058 8.31217159c-.10042718-.58972477.08166991-.67474006-.13572815-1.36599389-.13071845-.41565749-.21425243-.93663608-.21634952-1.17908257l-.08737864.02666667c.00209709.24244648.08574757.7635474.21634952 1.17920489.21029126.66837921.04683495.76990826.12675728 1.30923548.02469903.00525994.07654369.02262997.09634951.02996942"></path><path d="M13.43798058 8.31217159c-.10042718-.58972477.08166991-.67474006-.13572815-1.36599389-.13071845-.41565749-.21425243-.93663608-.21634952-1.17908257l-.08737864.02666667c.00209709.24244648.08574757.7635474.21634952 1.17920489.21029126.66837921.04683495.76990826.12675728 1.30923548.02469903.00525994.07654369.02262997.09634951.02996942z"></path><path fill="#FFF101" d="M12.92349515 8.24746211c.00069902-.07498471-.00384466-.15327217-.01491263-.22055046.15366991-.03877676.41685437.11033639.40951457-.0004893-.00221359-.03510703.00116505-.14862385.00326213-.20880734-.00337864.09406728-.36932039-.06470948-.43234951-.02373088-.06768932-.34311927.01619417-.69614679-.03751456-.91155964.12221359-.03510703.34683495.04146789.3193398-.05908257-.01561165-.05149847-.04543689-.17957186-.06512621-.25969419.0192233.08391438-.15914563.01443425-.21949515.06238533-.0313398-.18605505-.07712621-.53908257-.07619417-.70042814l-.16007767-.00171254c-.00256311.29969419.09809708.5453211.07153398.9351682-.0264466.38996942-.02225243.87498471.07584466 1.42030581.03506796-.01076453.09285437-.02458716.12617476-.03180428"></path><path d="M12.92349515 8.24746211c.00069902-.07498471-.00384466-.15327217-.01491263-.22055046.15366991-.03877676.41685437.11033639.40951457-.0004893-.00221359-.03510703.00116505-.14862385.00326213-.20880734-.00337864.09406728-.36932039-.06470948-.43234951-.02373088-.06768932-.34311927.01619417-.69614679-.03751456-.91155964.12221359-.03510703.34683495.04146789.3193398-.05908257-.01561165-.05149847-.04543689-.17957186-.06512621-.25969419.0192233.08391438-.15914563.01443425-.21949515.06238533-.0313398-.18605505-.07712621-.53908257-.07619417-.70042814l-.16007767-.00171254c-.00256311.29969419.09809708.5453211.07153398.9351682-.0264466.38996942-.02225243.87498471.07584466 1.42030581.03506796-.01076453.09285437-.02458716.12617476-.03180428zm-1.20198059-3.2298471c-.16543689.07449542.05382525.57529052.24699029.93321101l-.24699029-.93321101zm.24780583 1.04379205c-.06640777.03471832-.13526214.06663677-.20609709.09435542l.20609709-.09435542zm-1.23192233.27510703c-.05300971.0145593-.10403884.03037853-.1535534.0474577l.1535534-.0474577z"></path><path fill="#FFF101" d="M12.5192233 5.50801257c-.23860194.36171253-.80854369.61137614-1.33549514.66654434-.6167767.06458715-1.03083496.28012232-1.33572816.4911315-.02621359-.04954129-.07351456-.07620795-.11533981-.1088685-.44609708-.34691132-.26271844-.81700306-.0937864-.7498471-.06372816-.02593272-.1007767-.06091743-.13561165-.08721712-.05895146-.04587156-.22904855.12990825-.20772816.40905198.00908738.11889909.10601942.29431193.1848932.38727829-.144-.02752294-.21297087-.06617737-.29755339-.17345566.04753398-.03107033.10904854-.04868501.15867961-.05272171-.01689321-.04256881-.04042719-.08978593-.04601942-.16110092-.07048544-.00061162-.15646602.02519878-.23021359.07779817-.176970875-.18507645-.359184468-.33272171-.464854371-.55119266-.169048543-.34996942.002912622-.57088685.225553398-.33724771-.204116504-.19155963-.335067961-.33614679-.473126213-.39474006-.138058253-.0587156-.3717669904.07168196-.2730873788.38201835.2226407768.70091743.7474951458.81443425.9728155348 1.46960244.10636893.30972478.26318447.55107034.59557281.30776759.04380583-.03204893.05545632-.03963303.0935534-.06801223.1054369-.06397554.27250486.04342507.25467961.27694189.08539806-.21443425.03087379-.28012232-.04159223-.40868501-.05359223.02996942-.04928155-.14556575-.08236893-.16868502.1896699-.12379205.42034951-.24795107.71137864-.33639144.01071845.10483181.03821359.21614679.13013592.2.04928156-.01149847.09926214-.02189602.15180583-.03107033-.09192233.01614679-.11778641-.10568808-.12838835-.21039756.13794175-.03327217.28869903-.05847094.45390291-.07266055.19036893-.01639143.38714563-.05700305.57192233-.12.02749515.10055046.08434952.26996942.17906796.23669725.084-.02825688.16566991-.06018348.2423301-.0972477-.13176699.06593272-.18361165-.12232416-.21530097-.22189603.24081553-.10996942.44598058-.25993884.56866019-.43889908l-.01875728-.11449541"></path><path d="M12.5192233 5.50801257c-.23860194.36171253-.80854369.61137614-1.33549514.66654434-.6167767.06458715-1.03083496.28012232-1.33572816.4911315-.02621359-.04954129-.07351456-.07620795-.11533981-.1088685-.44609708-.34691132-.26271844-.81700306-.0937864-.7498471-.06372816-.02593272-.1007767-.06091743-.13561165-.08721712-.05895146-.04587156-.22904855.12990825-.20772816.40905198.00908738.11889909.10601942.29431193.1848932.38727829-.144-.02752294-.21297087-.06617737-.29755339-.17345566.04753398-.03107033.10904854-.04868501.15867961-.05272171-.01689321-.04256881-.04042719-.08978593-.04601942-.16110092-.07048544-.00061162-.15646602.02519878-.23021359.07779817-.176970875-.18507645-.359184468-.33272171-.464854371-.55119266-.169048543-.34996942.002912622-.57088685.225553398-.33724771-.204116504-.19155963-.335067961-.33614679-.473126213-.39474006-.138058253-.0587156-.3717669904.07168196-.2730873788.38201835.2226407768.70091743.7474951458.81443425.9728155348 1.46960244.10636893.30972478.26318447.55107034.59557281.30776759.04380583-.03204893.05545632-.03963303.0935534-.06801223.1054369-.06397554.27250486.04342507.25467961.27694189.08539806-.21443425.03087379-.28012232-.04159223-.40868501-.05359223.02996942-.04928155-.14556575-.08236893-.16868502.1896699-.12379205.42034951-.24795107.71137864-.33639144.01071845.10483181.03821359.21614679.13013592.2.04928156-.01149847.09926214-.02189602.15180583-.03107033-.09192233.01614679-.11778641-.10568808-.12838835-.21039756.13794175-.03327217.28869903-.05847094.45390291-.07266055.19036893-.01639143.38714563-.05700305.57192233-.12.02749515.10055046.08434952.26996942.17906796.23669725.084-.02825688.16566991-.06018348.2423301-.0972477-.13176699.06593272-.18361165-.12232416-.21530097-.22189603.24081553-.10996942.44598058-.25993884.56866019-.43889908l-.01875728-.11449541z"></path><path fill="#FFF101" d="M13.57315899 5.68759619c.11627184-.0946789.2161165-.13944954.11580582-.33993884-.16403883-.32782875-.06212083-.32895435-.42130529-.53751704-.36582525-.21211009-.31957282-.22874618-.80365049-.04954129-.11906796.0440367-.09250485.08905199-.07165048.2703364.04485436.39070336.13012689.70533403.20806863 1.02680192.30431068-.04171254.77245996-.2068384.97273181-.37014115z"></path><path fill="#FFF101" d="M12.4375534 5.59877709c-.06384466-.19180428-.04671845-.16574923.18466019-.10727829.07572816-.25284403.18031898-.46624934.23892092-.67089766.06547573-.22911315.08598058-.27033639.1823301-.2141896.12326213.07168196.25864077.14740061.34683495.1929052.15401942.07926605.13130097.10703364.05778641.23302752-.07351457.12599388-.31395005.38135638-.46226073.6477784.19561165.14458715.25840777.15767584.11941748.21993884-.15553398.06960244-.41394175.15584097-.52275728.17626911-.01992233-.12587156-.08423301-.29565749-.14493204-.47755352zM10.1408932 7.40244682l-.01537864.19730887-.13852427-.1321101-.15495146.11045872.01025243-.1969419-.17836893-.05663608.15238835-.11474006-.0672233-.18299695.17883495.05480123.09448544-.16941896.07176699.18091743.18454369-.02923548-.09040777.17259939.13607767.13333334-.18349515.03266055"></path><path d="M10.1408932 7.40244682l-.01537864.19730887-.13852427-.1321101-.15495146.11045872.01025243-.1969419-.17836893-.05663608.15238835-.11474006-.0672233-.18299695.17883495.05480123.09448544-.16941896.07176699.18091743.18454369-.02923548-.09040777.17259939.13607767.13333334z"></path><path fill="#FFF" d="M14.01700971 10.02899116c-.26318447-.25149847-.37409709-.71730887-.27821359-1.12611621-.20201942-.24978593-.68994175-.32746177-1.03502913-.23400612-.93565049.69443426-1.31102913 1.826789-1.7112233 2.34458716-.12652427.16366973-.21541748.62079511.07654369.86348624.24.19938838.23592233.37626911 1.12636893.99498467.48151456.3345566.92819418.5910704 1.08279612.7752906.15471844.1842201.31118446.3826299.2784466.6247094-.04497087.3330887.04904854.6190826.00349514.8485627-.05603883.2813456-.10974757.4727829-.08912621.6276453.02073787.1548624.24500971.3021407.45168932.0572477.46671845-.5529052.29801942-1.0868502.72582524-1.6193272.20213593-.2516208.31864078-.5055658-.04392233-.6955352-.36267961-.1898471-.85864077-.4683792-1.29297087-1.19229357-.29161165-.48623853-.74831068-.8946789-1.164-.95755351.24850485-.14740062.4008932-.36183487.73572816-.53272172.33483495-.17088685.73281553-.41700305 1.13359223-.77896024"></path><path d="M14.01700971 10.02899116c-.26318447-.25149847-.37409709-.71730887-.27821359-1.12611621-.20201942-.24978593-.68994175-.32746177-1.03502913-.23400612-.93565049.69443426-1.31102913 1.826789-1.7112233 2.34458716-.12652427.16366973-.21541748.62079511.07654369.86348624.24.19938838.23592233.37626911 1.12636893.99498467.48151456.3345566.92819418.5910704 1.08279612.7752906.15471844.1842201.31118446.3826299.2784466.6247094-.04497087.3330887.04904854.6190826.00349514.8485627-.05603883.2813456-.10974757.4727829-.08912621.6276453.02073787.1548624.24500971.3021407.45168932.0572477.46671845-.5529052.29801942-1.0868502.72582524-1.6193272.20213593-.2516208.31864078-.5055658-.04392233-.6955352-.36267961-.1898471-.85864077-.4683792-1.29297087-1.19229357-.29161165-.48623853-.74831068-.8946789-1.164-.95755351.24850485-.14740062.4008932-.36183487.73572816-.53272172.33483495-.17088685.73281553-.41700305 1.13359223-.77896024zM13.544 14.5351685c.01130097.1641591.22100971.2245872.58497087.1124159L13.544 14.5351685zm.01316505.2124771c.0144466.1546177.09809709.2404893.49083495.2062385l-.49083495-.2062385zm.01036893.3217125c-.01561165.1345566.14819418.1969419.3263301.1695413l-.3263301-.1695413z"></path><path fill="#FFF101" d="M13.72365049 9.42996975c-.43607767.38617737-.59732039.26299694-1.05879612.80636086-.27739806.32672783-.66535922.66324159-.86434952.78629969l.06570874.06605505c.19899029-.12305811.58695146-.45957187.86446602-.7862997.44621359-.52538226.61165049-.42752293 1.01662136-.76990825-.00803883-.02495413-.01980582-.08085627-.02365048-.10250765"></path><path d="M13.72365049 9.42996975c-.43607767.38617737-.59732039.26299694-1.05879612.80636086-.27739806.32672783-.66535922.66324159-.86434952.78629969l.06570874.06605505c.19899029-.12305811.58695146-.45957187.86446602-.7862997.44621359-.52538226.61165049-.42752293 1.01662136-.76990825-.00803883-.02495413-.01980582-.08085627-.02365048-.10250765z"></path><path fill="#FFF101" d="M13.92753398 9.93015324c-.06209709.03681957-.12442718.08012232-.17440777.12379205-.10881553-.12036698-.11743689-.43425077-.20504854-.37198777-.02796117.01932722-.12326214.07314985-.17405825.1012844.07945631-.04391437.13130097.36819572.19666019.40501529-.24920388.23314985-.58229126.33333334-.73304854.48990826-.09005825-.0937003-.1392233-.33602446-.20842719-.26079511-.03460194.03987768-.12535922.13100918-.18163106.18899083.05965048-.05944954.09145631.13749235.16112621.16831804-.13770874.12159022-.40601942.33969419-.53965049.41957187l.07864078.14642202c.24850485-.14740062.4008932-.36183487.73572816-.53272172.33483495-.17088685.73281553-.41700305 1.13359223-.77896024-.0264466-.02654434-.06687379-.07217125-.08947573-.09883792"></path><path d="M13.92753398 9.93015324c-.06209709.03681957-.12442718.08012232-.17440777.12379205-.10881553-.12036698-.11743689-.43425077-.20504854-.37198777-.02796117.01932722-.12326214.07314985-.17405825.1012844.07945631-.04391437.13130097.36819572.19666019.40501529-.24920388.23314985-.58229126.33333334-.73304854.48990826-.09005825-.0937003-.1392233-.33602446-.20842719-.26079511-.03460194.03987768-.12535922.13100918-.18163106.18899083.05965048-.05944954.09145631.13749235.16112621.16831804-.13770874.12159022-.40601942.33969419-.53965049.41957187l.07864078.14642202c.24850485-.14740062.4008932-.36183487.73572816-.53272172.33483495-.17088685.73281553-.41700305 1.13359223-.77896024-.0264466-.02654434-.06687379-.07217125-.08947573-.09883792zm-2.06306796 2.70776758c.14423301.11314988.44772815-.33651376.64625243-.69100917l-.64625243.69100917zm.73712621-.74715596c.05825243.04513761.11568932.09382263.17102913.14617737l-.17102913-.14617737zm.84279612.98262994c.04253333.0478777.08466667.0930955.12706667.1359334l-.12706667-.1359334z"></path><path fill="#FFF101" d="M11.87017476 11.66740094c.4176699.03608563.90850485.42948013 1.21747573.88110092.36163106.52856274.7465631.79718654 1.0730097.96892964-.02772815.048685-.02609708.1049542-.03203883.1593884-.06314563.5790826-.54256311.6473395-.57168932.4601835.01048544.070948.0001165.1220795-.00407767.1669725-.00838835.0765749.22170874.1432416.44120388-.0156575.0935534-.0677676.18966991-.2435474.22706796-.3617126.04916505.1445872.05172816.2266667.00570874.3571866-.04951456-.0276453-.09471845-.0748624-.12291262-.1177982-.02667961.0365749-.05382524.0815902-.10986408.1223242.03471845.0644648.09902913.1296636.17930097.1703975-.06419417.2534557-.09483495.4929664-.22229126.6982263-.204.328685-.47231068.2828135-.39087379-.0364526-.05603883.2813456-.10974757.4727829-.08912621.6276453.02073787.1548624.24500971.3021407.45168932.0572477.46671845-.5529052.29801942-1.0868502.72582524-1.6193272.20213593-.2516208.32295146-.5148624-.04392233-.6955352-.04846602-.0237309-.06046602-.0304587-.10287378-.0510092-.1055534-.0638532-.10042719-.2694801.10100971-.3700305-.21949515.0296024-.24640777.1120489-.31619418.2422018.05137864.0336391-.09553398.1175535-.09809709.159266-.1968932-.110581-.41452427-.2582263-.63308737-.4787767.08120388-.0620184.15926213-.1427523.09984466-.2182263-.03413593-.0390214-.06768932-.0793884-.10159224-.12256882.05941748.07559632-.02807767.15987772-.10928155.22201832-.09634952-.1087461-.19246602-.23327214-.28683495-.37639141-.10869903-.16501529-.24058253-.3235474-.38493204-.46006116.06920388-.07535168.18046602-.2116208.1056699-.28122324-.06524272-.062263-.13246602-.12061162-.20132039-.1716208.12023301.08685016-.00920388.22813456-.07537864.30666667-.2112233-.16391437-.43747573-.27559633-.64636893-.29749236l-.08504854.07412844"></path><path d="M11.87017476 11.66740094c.4176699.03608563.90850485.42948013 1.21747573.88110092.36163106.52856274.7465631.79718654 1.0730097.96892964-.02772815.048685-.02609708.1049542-.03203883.1593884-.06314563.5790826-.54256311.6473395-.57168932.4601835.01048544.070948.0001165.1220795-.00407767.1669725-.00838835.0765749.22170874.1432416.44120388-.0156575.0935534-.0677676.18966991-.2435474.22706796-.3617126.04916505.1445872.05172816.2266667.00570874.3571866-.04951456-.0276453-.09471845-.0748624-.12291262-.1177982-.02667961.0365749-.05382524.0815902-.10986408.1223242.03471845.0644648.09902913.1296636.17930097.1703975-.06419417.2534557-.09483495.4929664-.22229126.6982263-.204.328685-.47231068.2828135-.39087379-.0364526-.05603883.2813456-.10974757.4727829-.08912621.6276453.02073787.1548624.24500971.3021407.45168932.0572477.46671845-.5529052.29801942-1.0868502.72582524-1.6193272.20213593-.2516208.32295146-.5148624-.04392233-.6955352-.04846602-.0237309-.06046602-.0304587-.10287378-.0510092-.1055534-.0638532-.10042719-.2694801.10100971-.3700305-.21949515.0296024-.24640777.1120489-.31619418.2422018.05137864.0336391-.09553398.1175535-.09809709.159266-.1968932-.110581-.41452427-.2582263-.63308737-.4787767.08120388-.0620184.15926213-.1427523.09984466-.2182263-.03413593-.0390214-.06768932-.0793884-.10159224-.12256882.05941748.07559632-.02807767.15987772-.10928155.22201832-.09634952-.1087461-.19246602-.23327214-.28683495-.37639141-.10869903-.16501529-.24058253-.3235474-.38493204-.46006116.06920388-.07535168.18046602-.2116208.1056699-.28122324-.06524272-.062263-.13246602-.12061162-.20132039-.1716208.12023301.08685016-.00920388.22813456-.07537864.30666667-.2112233-.16391437-.43747573-.27559633-.64636893-.29749236l-.08504854.07412844z"></path><path fill="#FFF101" d="M11.32178641 10.69773734c-.13631068-.05834863-.06905073-.13721876-.18427404.05421855-.18838834.31302752-.22479151.24094536-.21710219.67189338.00780583.43853211.08891021.36856696.47885196.719148.29976699-.2359633.65755339-.59266055.88368932-.8243425-.18652428-.25577982-.72640777-.52024465-.96116505-.62091743z"></path><path fill="#FFF101" d="M11.98586408 11.69626945c-.12629126.15400611-.11335923.12550458-.18081554-.11425077-.24640776.05749236-.43647636.12391436-.63441811.17296635-.22182524.05492355-.26598058.05688073-.26796117-.0587156-.0024466-.14801223-.00757281-.3088685-.01421359-.41186544-.01153398-.17957187.02260194-.17296636.16333981-.16905199.14073786.00379205.43309772.04012234.72703947.04171255.02143689-.2501529.00081554-.31376146.12174757-.21847094.13502913.10654434.33541748.29847094.40671845.38715596-.09390291.08097859-.2016699.22446483-.32143689.37051988zM14.62190291 12.8829361l.1704466-.0847706-.03972815.1919266.16869903.0857492-.16765049.089052.04240777.190581-.17091262-.0812232-.11732039.1526605-.04415534-.1900917-.18699029-.0012232.11347573-.1555964-.11650486-.1531498.18768932-.004159.04194175-.1903364.11860194.150581"></path><path d="M14.62190291 12.8829361l.1704466-.0847706-.03972815.1919266.16869903.0857492-.16765049.089052.04240777.190581-.17091262-.0812232-.11732039.1526605-.04415534-.1900917-.18699029-.0012232.11347573-.1555964-.11650486-.1531498.18768932-.004159.04194175-.1903364z"></path><path fill="#FFF" d="M14.85025243 8.04513795c-.07572816.36489296-.40462136.69871559-.78966991.81602446-.10508737.30850153.07479612.79082569.32446602 1.05810398 1.04050486.50348624 2.1623301.27865443 2.78947573.38360856.19829126.03314985.61980583-.11461774.67398058-.5012844.04450486-.31792049.19234955-.40256881.25747575-1.52171254.0351844-.60513762.0234175-1.13957187.0980971-1.37223242.0746796-.23266055.1600776-.47425076.3760776-.56550458.2972039-.12562692.4860583-.35425077.6983301-.42752294.2599224-.08978593.4446991-.13663609.5620195-.23278287.1174368-.09614679.1267572-.37382263-.1784855-.43926606-.6894757-.14801223-1.0455145.2724159-1.69864076.14960245-.30862136-.05798165-.57634951-.03706422-.55165048.38776758.02469902.42470948.04299029 1.01492355-.33704855 1.77174312-.25526213.50837921-.36372815 1.12782875-.20784466 1.53724771-.24582524-.15229358-.49887378-.18360857-.80714563-.40256881-.30838835-.21908257-.7104466-.457737-1.20943689-.64122324"></path><path d="M14.85025243 8.04513795c-.07572816.36489296-.40462136.69871559-.78966991.81602446-.10508737.30850153.07479612.79082569.32446602 1.05810398 1.04050486.50348624 2.1623301.27865443 2.78947573.38360856.19829126.03314985.61980583-.11461774.67398058-.5012844.04450486-.31792049.19234955-.40256881.25747575-1.52171254.0351844-.60513762.0234175-1.13957187.0980971-1.37223242.0746796-.23266055.1600776-.47425076.3760776-.56550458.2972039-.12562692.4860583-.35425077.6983301-.42752294.2599224-.08978593.4446991-.13663609.5620195-.23278287.1174368-.09614679.1267572-.37382263-.1784855-.43926606-.6894757-.14801223-1.0455145.2724159-1.69864076.14960245-.30862136-.05798165-.57634951-.03706422-.55165048.38776758.02469902.42470948.04299029 1.01492355-.33704855 1.77174312-.25526213.50837921-.36372815 1.12782875-.20784466 1.53724771-.24582524-.15229358-.49887378-.18360857-.80714563-.40256881-.30838835-.21908257-.7104466-.457737-1.20943689-.64122324zm3.95335927-1.82311927c.1297864-.09235474.0747961-.31327217-.1998059-.58813455l.1998059.58813455zm.168699-.11816514c.120233-.09051987.1492427-.20954128-.0752622-.54948012l.0752622.54948012zm.263521-.17027523c.1358667-.053211.1010667-.23327217-.0266667-.38165137l.0266667.38165137z"></path><path fill="#FFF101" d="M14.50283495 8.61125416c.53662136.20342507.51565049.41162079 1.19452427.55963302.40823301.08892967.87972816.2733945 1.08081554.39278288l.0215534-.09284404c-.20097088-.11938838-.67258253-.30373089-1.08069903-.39278287-.65650486-.14311927-.65848544-.34250765-1.14337864-.53957187-.01654369.01993884-.05685437.05847095-.07281554.07278288"></path><path d="M14.50283495 8.61125416c.53662136.20342507.51565049.41162079 1.19452427.55963302.40823301.08892967.87972816.2733945 1.08081554.39278288l.0215534-.09284404c-.20097088-.11938838-.67258253-.30373089-1.08069903-.39278287-.65650486-.14311927-.65848544-.34250765-1.14337864-.53957187-.01654369.01993884-.05685437.05847095-.07281554.07278288z"></path><path fill="#FFF101" d="M14.81343689 8.17578015c.06151457.03804281.12838835.07302752.18932039.09675841-.04473786.15902141-.29941747.32391437-.20423301.37247706.02994175.01577982.12186408.07547401.1704466.10752294-.07584466-.05027523.23801942-.30348624.23580583-.38140673.31700971.11009174.56609709.36293578.77067961.4217737-.03215534.12868502-.20761165.29455658-.11091262.31987768.05021359.01149847.17079612.04844036.24675728.07058104-.07887379-.02446483.06768932-.15192661.05825243-.23058104.16916505.06434251.48314563.19926605.61584466.28085627l.08143689-.14470948c-.24582524-.15229358-.49887378-.18360857-.80714563-.40256881-.30838835-.21908257-.7104466-.457737-1.20943689-.64122324-.00862136.03718654-.02609709.09675841-.03681554.1306422"></path><path d="M14.81343689 8.17578015c.06151457.03804281.12838835.07302752.18932039.09675841-.04473786.15902141-.29941747.32391437-.20423301.37247706.02994175.01577982.12186408.07547401.1704466.10752294-.07584466-.05027523.23801942-.30348624.23580583-.38140673.31700971.11009174.56609709.36293578.77067961.4217737-.03215534.12868502-.20761165.29455658-.11091262.31987768.05021359.01149847.17079612.04844036.24675728.07058104-.07887379-.02446483.06768932-.15192661.05825243-.23058104.16916505.06434251.48314563.19926605.61584466.28085627l.08143689-.14470948c-.24582524-.15229358-.49887378-.18360857-.80714563-.40256881-.30838835-.21908257-.7104466-.457737-1.20943689-.64122324-.00862136.03718654-.02609709.09675841-.03681554.1306422zm3.26504851.52195719c.0213204-.18764526-.50143686-.23865444-.89312618-.24195719l.89312618.24195719zm-.9848155-.29663609c.00933334-.07547401.0224-.15204893.04013334-.22850153l-.04013334.22850153zm.38900971-1.25761468c.01826667-.0546789.03453333-.10788991.04866667-.16036697l-.04866667.16036697z"></path><path fill="#FFF101" d="M17.27506796 9.17785966C17.096 8.7800615 17.1751068 8.13700339 17.39320388 7.6302144c.25514563-.59314985.28427185-1.07743119.26260195-1.46006116.05405825.00097859.09961165-.02874618.14761165-.05051988.50912622-.23204893.80516502.16966361.66524272.28966361.0533592-.04501529.1007767-.06103976.1398058-.07963303.0673398-.03082569.0073398-.27327217-.2334757-.39339449-.1026408-.05125383-.2956893-.05076453-.41196117-.02568808.09483497-.11706422.16112617-.16036697.29184467-.18373088.0019806.05883792-.0143301.1235474-.035767.1706422.0435728.00587156.0942524.00807339.1558835.03877676.035767-.06385321.0574369-.15486239.0509126-.24831805.2411651-.06825688.4540194-.16012232.6870291-.14691131.3731651.02116208.4695146.28807339.1655534.37357798.2599224-.08978593.4446991-.13663609.5620195-.23278287.1174368-.09614679.1267572-.37382263-.1784855-.43926606-.6894757-.14801223-1.0455145.2724159-1.69864076.14960245-.30862136-.05798165-.58613592-.03620795-.55165048.38776758.00454368.05590214.0050097.07021407.00932038.11902141 0 .12795107-.17207767.22605504-.35568932.09308868.13409709.18495413.21553398.16819572.35778641.16660551.00209709-.06373089.14469903.02788991.18034952.00941896.0073398.23437309-.00570874.50617737-.07829127.81504587-.09180582-.04269113-.19724271-.0733945-.22998058.01834862-.01514563.05051988-.03157281.10116208-.05021359.15351682.03262136-.09174312.14598058-.0541896.2376699-.01149847-.04147573.14201835-.0961165.29174312-.16695145.44905199-.08178641.1812844-.14656311.38042813-.1869903.58006116-.09669903-.0253211-.26481553-.05834862-.28485436.044526-.01864078.09039755-.03320389.18067278-.04089321.2688685.01153398-.15278288.19269903-.1058104.29067961-.08489297-.02959223.27400612-.00862136.53553517.07770874.73663609l.10368932.04012232"></path><path d="M17.27506796 9.17785966C17.096 8.7800615 17.1751068 8.13700339 17.39320388 7.6302144c.25514563-.59314985.28427185-1.07743119.26260195-1.46006116.05405825.00097859.09961165-.02874618.14761165-.05051988.50912622-.23204893.80516502.16966361.66524272.28966361.0533592-.04501529.1007767-.06103976.1398058-.07963303.0673398-.03082569.0073398-.27327217-.2334757-.39339449-.1026408-.05125383-.2956893-.05076453-.41196117-.02568808.09483497-.11706422.16112617-.16036697.29184467-.18373088.0019806.05883792-.0143301.1235474-.035767.1706422.0435728.00587156.0942524.00807339.1558835.03877676.035767-.06385321.0574369-.15486239.0509126-.24831805.2411651-.06825688.4540194-.16012232.6870291-.14691131.3731651.02116208.4695146.28807339.1655534.37357798.2599224-.08978593.4446991-.13663609.5620195-.23278287.1174368-.09614679.1267572-.37382263-.1784855-.43926606-.6894757-.14801223-1.0455145.2724159-1.69864076.14960245-.30862136-.05798165-.58613592-.03620795-.55165048.38776758.00454368.05590214.0050097.07021407.00932038.11902141 0 .12795107-.17207767.22605504-.35568932.09308868.13409709.18495413.21553398.16819572.35778641.16660551.00209709-.06373089.14469903.02788991.18034952.00941896.0073398.23437309-.00570874.50617737-.07829127.81504587-.09180582-.04269113-.19724271-.0733945-.22998058.01834862-.01514563.05051988-.03157281.10116208-.05021359.15351682.03262136-.09174312.14598058-.0541896.2376699-.01149847-.04147573.14201835-.0961165.29174312-.16695145.44905199-.08178641.1812844-.14656311.38042813-.1869903.58006116-.09669903-.0253211-.26481553-.05834862-.28485436.044526-.01864078.09039755-.03320389.18067278-.04089321.2688685.01153398-.15278288.19269903-.1058104.29067961-.08489297-.02959223.27400612-.00862136.53553517.07770874.73663609l.10368932.04012232z"></path><path fill="#FFF101" d="M16.55856311 10.00943897c.02003883.15314985.00699029.26629969.22252427.27522936.35242718.01480122.32376699.06042813.67537864-.16195719.35778641-.22642202.36733163-.18171066.46158406-.71149659.02318446-.13027523-.02726214-.12868501-.18722331-.20036697-.34450485-.15461774-.64566172-.14405826-.94973939-.23396651-.11778641.29761468-.25700971.76882701-.22252427 1.0325579z"></path><path fill="#FFF101" d="M17.24104854 9.05834896c.19025243.03767584.16019418.04024465-.00372815.22152905.17067961.19522936.30133083.33258891.44090365.48818524.15623301.17418961.17988349.21333334.08551456.2729052-.12081553.07620795-.25083495.16134557-.33250485.21896025-.14248544.10030581-.15401942.0658104-.22124272-.06409786-.0672233-.12978593-.16455414-.41173265-.3100687-.67962256-.21716505.10544343-.25933981.15608563-.24116505-.00146789.02038835-.17614678.07852427-.45431192.11603884-.56342507.11370873.04477064.28590291.07107033.46625242.10703364z"></path><path d="M16.77479612 8.95131532c.11370873.04477064.28590291.07107033.46625242.10703364.19025243.03767584.16019418.04024465-.00372815.22152905.17067961.19522936.41860194.50605505.55817476.66165138.15623301.1741896.17988349.21333333.08551456.27290519-.12081554.07620796-.25083495.16134557-.33250486.21896025-.14248543.10030581-.15401941.0658104-.22124271-.06409786-.06722331-.12978593-.28182525-.58519878-.42733981-.85308869-.21716505.10544343-.25933981.15608563-.24116505-.00146789.02038835-.17614678.07852427-.45431192.11603884-.56342507z"></path><path fill="#FFF101" d="M16.90178641 6.06813489l-.15506796-.11266055.17825242-.05993884-.01374757-.19620795.15728155.10788991.13607767-.13382263.01840777.1959633.18454369.03033639-.13467961.13529052.09250485.17051988-.18512621-.0253211-.06815534.18250764-.09716505-.16856269-.17801942.05712539.06489321-.18311927"></path><path d="M16.90178641 6.06813489l-.15506796-.11266055.17825242-.05993884-.01374757-.19620795.15728155.10788991.13607767-.13382263.01840777.1959633.18454369.03033639-.13467961.13529052.09250485.17051988-.18512621-.0253211-.06815534.18250764-.09716505-.16856269-.17801942.05712539z"></path><g fill="#000" fill-rule="nonzero"><path d="M12.7995334 8.28655046c.33374273-.11178519.77099343.01646935 1.06062852.30832408.30018429-.05417309.61993407-.44005441.72250423-.8275667-.04985313-.57498803-.23451186-1.09198001-.56621215-1.72652624-.06636089-.12694911-.28166352-.521199565-.29529962-.546703741-.10514404-.196655354-.17142039-.33511654-.21683911-.459745022-.09740106-.267120509-.45957735-.4916896772-.76000962-.3665763295-.03917916.0163230541-.07727891.0293269509-.1190911.0410278194-.02686771.0075187529-.05429432.0142896028-.09184039.0228846171-.39000941.089280644-.60640813.166047965-1.17359509.463080597-.0158061.008277221-.03174033.016668447-.04782925.025186385-.15517051.082151762-.62144074.341017427-.66913211.366713521-.22291453.120106253-.36247806.183351353-.46200238.204388573-.33090836.06991108-.49701901.06694157-.64859684-.05772852-.04975013-.0409195-.10288394-.07789572-.16135489-.113094398-.04611238-.027758988-.09413427-.053668201-.15224326-.082772931-.02942328-.014737071-.12831544-.062787563-.14503671-.071084732-.115926032-.057523018-.185335276-.100052754-.242712018-.153891994-.032055377-.030083389-.199242223-.190758125-.241153478-.229008748-.07903567-.072132501-.138760151-.118151643-.196962242-.149285378-.012476093-.006673769-.024830929-.01261206-.037133849-.017833539-.180730281-.076863834-.3706127179.115124181-.2827230161.391527507.0941144811.296291099.2139624891.466229363.4896451471.757567863.010129927.01070189.010129927.01070189.020253843.02139453.263230867.27806677.372976419.42912616.462974603.69081552.13591801.39576569.3069433.51955825.60643887.31154746.53908406-.37441389.95703363-.55112306 1.62628108-.57806399.57549049-.02329924 1.12656541-.24830091 1.37717101-.58260537l-.01300309-.00479711c-.00063788.07458475.00483907.1488049.01632034.23820445.00516788.04023995.00715769.05384327.02174503.15105403.03517302.23439486.04572389.3658392.03348688.54543281-.03148487.46426133-.01171257.93494016.0759526 1.42227027l.00936806.00586471zm.00494204-.00870252c-.08741897-.48596148-.10713645-.95533538-.07573655-1.4183439.01233421-.18102004.00170432-.31344881-.03362738-.5489011-.0145658-.09706725-.01655129-.11064096-.02169819-.1507176-.01139557-.0887323-.0168212-.16225686-.01619031-.23602385l-.01300309-.00479712c-.24757469.33026127-.79467701.55364094-1.36628689.57678307-.67234498.02706563-1.09264489.20476852-1.63375617.58059039-.28951783.20108088-.45152259.08381762-.58470566-.30398449-.090909914-.26434042-.201723091-.41686935-.466344213-.69640473-.010125357-.01069417-.010125357-.01069417-.02025176-.02139233-.274229152-.28980245-.392927532-.458110598-.4861618754-.751630849-.083988219-.264133598.0943361084-.444435338.2634461184-.372513559.011908291.005053997.023879148.01080773.035985411.017283669.056928363.030452386.115803446.075817046.194019289.147201326.041741728.038095903.20882162.198667851.241002663.228869175.0586891.055070686.129091179.098208771.246194207.156315819.01680178.008337115.11566147.056371832.14498906.071060979.05780417.028952057.10551602.054693994.15126991.08223717.0578917.03484998.11044805.07142434.15961775.11186645.15613921.12842173.32548828.13144914.66045107.06068147.10129565-.02141164.24165529-.08501751.46577782-.205774628.04781713-.025763848.51402489-.284594833.66904009-.366664368.01607015-.008508001.03198538-.016889222.04777233-.025156412.5660469-.296435593.78131142-.372800559 1.17019739-.461824023.03774468-.008640483.06536794-.015459877.09248867-.0230494368.04234185-.0118490883.08097996-.0250367353.12071082-.0415896423.29207399-.1216325862.64629815.0980058321.74103839.3578290721.04573196.125488008.11227618.264508821.21774105.461764241.01369666.025617445.22894994.419777537.29523197.546575777.33082378.63286945.51484121 1.14806598.56471213 1.71782189-.1009749.37962764-.41689728.76088997-.70450008.81587661-.28697758-.29356628-.72970781-.42342808-1.06879203-.30985379l.00936806.00586472zm-3.4843241-2.68851662c-.15345533-.078231811-.30857999.10453029-.395538226.48079324l.012623358.00675545.385281558-.475718656-.00236669-.011830034zm-.00872762.001924806l-.385281551.475718654.012623357.00675545c.085071724-.3681001.233393914-.542847799.375024884-.47064407l-.00236669-.011830034zm-.17331502-.096324647c-.159274489-.075672339-.271136565.004000537-.425160324.346822851l.011086643.00927143.415572811-.343119268-.00149913-.012975013zm-.00600381.013930669l-.00149913-.012975013-.415572818.343119265.011086643.00927143c.151069651-.336247133.255740373-.410798024.405985305-.339415682zm-.26314713-.164513882c-.102848589-.081172152-.241597939.023673708-.314285511.215269864l.010801035.009192263.303145632-.211987767.000338844-.01247436zm-.008750472.012222477l.000338845-.01247436-.303145631.211987768.010801035.009192263c.069680094-.183668786.199466167-.281741552.292005751-.208705671z"></path><path d="M13.44514846 8.3108264c-.03450865-.20264042-.03810114-.32426592-.02773713-.55030798.00099804-.02173156.00099804-.02173156.00195299-.04340912.01161582-.26988264-.00892458-.45131386-.11019755-.77332835-.1209703-.38466041-.21367718-.91022242-.2159826-1.17675479l-.09669229.01939468c-.00293073.27541255.09009763.8026681.21146693 1.18894151.10070176.32006544.12103577.49961375.10949684.76769687-.00095262.02162397-.00095262.02162397-.00194978.04333663-.0095664.20864424-.00740239.31928601.01893021.49698216.02624052.01068151.07370109.02584242.10112106.03600344l.00959132-.00855505zm-.01433575.00269128l.00959132-.00855504c-.02800813-.01037898-.07601493-.02571437-.09732552-.0302527-.02040344-.17015324-.02254952-.27987817-.01302638-.48757885.0009974-.02171772.0009974-.02171772.00195178-.04338156.01161529-.26985728-.00892765-.45125048-.11021606-.77318048-.12092215-.38485031-.21367882-.91056603-.21598233-1.17687622l.08212978-.01925582c-.00699358.26095214.08598524.78805582.20740276 1.17413827.10068588.32014777.12101749.49973471.109478.76784374-.00095319.02163766-.00095319.02163766-.00195099.04336416-.01041204.22708956-.00678879.34975656.02794764.5537345z"></path><path d="M12.93077635 8.24753739c.00073773-.0791364-.00432794-.15694221-.01501852-.22192656.03311599-.0010028.08089795.00063268.14266675.01141147.02104871.00367305.04212192.00804879.0718232.01470725.09319789.02089319.10664717.02353045.13503482.0240935.04089817.00081118.06242747-.01446286.0600785-.04993059-.00179533-.02847419-.00008062-.11170124.00327481-.20799747l-.01455307-.00056763c-.00063496.01767844-.02065984.02516822-.06228484.02239349-.03447434-.00229806-.07398715-.01005031-.14961107-.02777804-.00416561-.0009771-.00416561-.0009771-.00833067-.00195568-.13859461-.03256965-.18291774-.03935197-.20868002-.02260253l.01096368.00494933c-.00443687-.02249062-.00829379-.04540588-.01160293-.06879794-.01840922-.13013346-.01950296-.24027553-.01140253-.45583334.0083387-.22189803.00700735-.3006715-.01459513-.38731386.02515472.00061295.06283855-.00170214.11571061.00014939.01251341.00043821.02383031.0009922.04408885.00209528.06938209.00377785.09348779.00401829.11827546-.0010236.03506225-.00713178.05043377-.02678047.04121951-.06047724-.00794916-.02623234-.01940882-.07115382-.03696837-.14347142-.00111838-.00460784-.00111838-.00460784-.00223609-.00921976.002905.01199064-.02062387-.08545542-.02586992-.10680329l-.01413029.00369792c.00410093.01790157-.00164593.02657743-.01882697.03135921-.01495802.00416306-.03135451.00460339-.07404824.00337757-.00929639-.00026598-.00929639-.00026598-.01870091-.00047525-.05336707-.00102333-.08405494.00341208-.10523338.02023953l.01156428.00476492c-.03912062-.2322474-.07689508-.55847733-.07608303-.6990503l-.1672849-.00940378c-.00799333.08216097-.00251638.15638112.00896489.24578067.00516788.04023995.00715769.05384327.02174503.15105403.03517302.23439486.04572389.3658392.03348688.54543281-.03148487.46426133-.01171257.93494016.0759526 1.42227027.03971817-.00344925.09354527-.0167997.13480097-.02573559l.00581004-.00741277zm-.00875236-.00756242c-.04160773.00901214-.09578114.02244849-.12674689.03195379-.07822063-.4800423-.09793811-.9494162-.06653821-1.41242472.01233421-.18102004.00170432-.31344881-.03362738-.5489011-.0145658-.09706725-.01655129-.11064096-.02169819-.1507176-.01139557-.0887323-.0168212-.16225686-.01619031-.23602385l.15272222.00928875c-.008026.13404582.02983441.46101807.06909808.69411473l.01156428.00476492c.01759195-.01397779.04613949-.01810385.09617945-.01714432.00929735.00020687.00929735.00020687.01856874.00047208.04438863.00127449.06127907.00082089.0781778-.0038823.02442856-.00679888.03531959-.02324076.0292548-.04971505l-.01413029.00369793c.00523703.02131121.02875426.11870903.02585756.10675268.0011186.00461557.0011186.00461557.002238.00922763.01763843.07264247.02913297.11770065.03714274.14412262.00650445.02379827-.00261619.03545676-.03005191.04103727-.02309617.00469784-.04688041.00446061-.11475146.00076503-.02034359-.00110771-.03172922-.00166507-.04435762-.0021073-.05422573-.00189894-.09312129.00049059-.12516182.00969454.0159605.09386974.01728133.17201998.0090091.39214912-.00813514.21648119-.00703452.3273154.01154923.45868263.003349.02367383.00725386.04687389.01174759.06965278l.01096368.00494934c.02048718-.01331981.06723388-.00616664.19783226.02452391.00416759.00097917.00416759.00097917.00833815.00195743.07641218.01791251.11634523.02574721.15186167.02811474.04897415.00326462.07668363-.00709939.07776034-.03707707l-.01455306-.00056763c-.00338292.09708504-.00509754.1803078-.0032511.20959188.00163565.02469781-.011857.03427022-.04527378.03360743-.02697177-.00053497-.04054952-.00319742-.13226896-.02375917-.02990014-.00670304-.05116277-.01111811-.07247648-.0148374-.06352853-.01108587-.11303319-.01278031-.15393125-.00246018.00505583.07274051.0100626.14964174.00933297.22790923l.00581005-.00741277zm-1.20337948-3.229385837c-.08159611.036742323-.08095661.166966177-.0150016.369817415.05274374.162218667.14618164.366021832.25852677.574189022l.01335088-.00581605-.24699029-.933211006-.00988576-.004979381zm-.00414566.009073289l.24699029.933211008.01335089-.00581605c-.11193686-.20741068-.20501473-.410428581-.25741498-.571590791-.06355365-.195465646-.06415932-.318800306.00695956-.350824786l-.00988576-.004979381zm.25191648 1.034734638c-.06853301.0358294-.1370201.0672827-.20544678.09405896l.00484727.01649576.20609709-.09435542-.00549758-.0161993zm.00581012.01606549l-.00549758-.01619931-.20609709.09435542.00484727.01649576c.06887978-.02695357.13779934-.05860548.2067474-.09465187zm-1.2364499.25859895c-.05261894.01445197-.10379143.03027951-.15393998.04757737l.00382293.0168837.15355339-.0474577-.00343634-.01700337zm.00324502.01705215l-.00343635-.01700336-.1535534.04745769.00382294.0168837c.04989179-.01720929.10080646-.03295708.15316681-.04733803z"></path><path d="M12.51323727 5.503660047c-.2254222.341732493-.77279352.604929843-1.33023159.663289783-.53726662.05626108-.949368.22269185-1.33901307.49235574-.00766057-.03141064-.02875493-.05097771-.08064782-.0889316-.00009579-.00007007-.00009579-.00007007-.00019158-.00014013-.01314562-.00961456-.01903499-.01399403-.02614756-.01954809-.19772553-.15376301-.28763615-.34616726-.27461458-.5234764.01075598-.14645955.09417464-.24478131.17390439-.21308615l.00520971-.01427853c-.02872335-.01168831-.05342407-.02573207-.07851765-.04361613-.01367536-.00974636-.05436618-.04184288-.05547438-.04267955-.08500937-.06614883-.23796937.17061638-.21923741.41587027.00841668.11012364.09580178.28459637.18671429.39175245l.00674126-.01260694c-.14399861-.02752267-.21071808-.06613368-.29324848-.17080921.04168637-.01703344.10084587-.0359307.15363298-.04022409l.00615905-.01056291c-.00259355-.00653544-.01259364-.03075855-.0146726-.03593167-.0179208-.04459265-.02738608-.07917662-.03081125-.12285609-.08269645-.0076728-.16967223.02082689-.24156222.07210138-.00169661-.01051994-.01300259-.02218095-.0249124-.03432018-.03057318-.03116212-.133657681-.13342301-.148023263-.14789923-.141642935-.14273376-.221667786-.24275034-.281334742-.36611088-.077816275-.161097614-.086949109-.306166964-.034767607-.379436972.050219012-.070514402.146508546-.056161486.248681181.051058438l.010000073-.011107545c-.032055767-.030083755-.199242613-.190758491-.241153868-.229009114-.07903567-.072132501-.138760151-.118151643-.196962242-.149285378-.012476093-.006673769-.024830929-.01261206-.037133849-.017833539-.180730281-.076863834-.3706127179.115124181-.2827230161.391527507.0941144811.296291099.2139624891.466229363.4896451471.757567863.010129927.01070189.010129927.01070189.020253843.02139453.263230867.27806677.372976419.42912616.462974603.69081552.06257244.18219825.12953693.30205017.21572183.36495021.10434607.07615456.23244111.06245538.39086403-.05350757.01816022-.01328626.03077113-.02237557.05205764-.03763962.00032096-.00023092.00032096-.00023092.00064191-.00046189.01435435-.01033026.02565421-.01858792.04090294-.02994697.11394204-.06909797.25900853.06310248.24320794.27009576l.01397619.00356013c.05543081-.13918659.05670914-.22142599.01487514-.31149417-.0069593-.01498332-.01507328-.03040885-.02620794-.0502014-.00476854-.00847637-.02530496-.04424175-.03071096-.05383258-.01976546.00278061-.02660386-.00102256-.03386353-.01608859-.00646139-.01340937-.01104916-.03070242-.01837794-.06553905-.00092511-.00440585-.00092511-.00440585-.00184893-.00880914-.01088663-.05181133-.01713225-.07137111-.03051077-.08071913l-.00018997.01285769c.22388774-.14612504.44998695-.2566597.70955888-.33554059.00551877.13805878.044523.21509056.12931301.20019661.05180643-.01207662.10143254-.02227498.15179881-.03106911l-.002396-.01508215c-.07139614.01254123-.10549005-.06089101-.11994609-.20366529.13702798-.02614566.28766524-.05052507.44725585-.06423254.19297576-.0166159.39016546-.05781662.57357749-.1203483.03802835.16772786.09520735.26615566.17912938.23667599.0892659-.03002763.16985641-.06215795.24306549-.0975536l-.00617828-.01384595c-.07831211.03918532-.13110226-.01012006-.1757276-.12867506-.00534098-.01418925-.01047718-.02908151-.01611311-.0464457-.0033216-.01023378-.01400591-.0441331-.01342145-.04229666.24804098-.10566264.44854367-.25824194.56766392-.43200994l-.01749103-.120257586-.0131622-.003056957zm.01197207.008705948l-.01316221-.003056956.01875729.114495412c-.11614775.165516789-.31456593.316509819-.5643882.430592209-.0046047.00754016.00610089.04150699.00944715.05181676.00570524.01757771.01091711.03268937.01635402.04713348.04732257.12572067.10679148.18126393.19553658.13685823l-.00617827-.01384595c-.07263435.03511778-.15268231.06703179-.24150612.09691136-.07108281.02496891-.12516846-.06813401-.16984747-.2315263-.19157973.05700173-.38765936.09797052-.57951628.11449008-.16028333.01376697-.31161348.03825852-.45493809.07282906.00970033.15947529.04715921.24015507.13122018.22538919l-.00239601-.01508216c-.05063216.00884056-.10051416.0190915-.15219092.03114883-.07216641.01266568-.10735843-.05683715-.12131637-.19335284-.27020577.07276925-.49750213.18388917-.72246278.33071447l-.00018997.01285769c.0085141.00594909.01470106.02532518.02435794.07128389.00092195.0043944.00092195.0043944.00184973.00881295.00761437.03619418.01237708.05414663.01960358.06914383.01053217.02185748.02549945.03018153.04401482.01982751-.00424196.00681027.01629019.0425682.02101527.05096732.01095447.01947225.01889636.03457062.02565748.04912724.0398834.08586858.0386758.16355751-.01522142.29889327l.01397619.00356012c.01664898-.21810738-.13967556-.36056741-.26558127-.28417209-.01575063.01169238-.02698686.01990355-.04127964.0301895-.00032006.00023032-.00032006.00023032-.00064017.00046063-.02128445.01526248-.03394257.02438582-.0521531.03770888-.15382369.11259639-.27542755.12560137-.37422476.05349653-.08303706-.06060268-.14870877-.17814079-.21033532-.3575848-.090909914-.26434042-.201723091-.41686935-.466344213-.69640473-.010125357-.01069417-.010125357-.01069417-.02025176-.02139233-.274229152-.28980245-.392927532-.458110598-.4861618754-.751630849-.083988219-.264133598.0943361084-.444435338.2634461184-.372513559.011908291.005053997.023879148.01080773.035985411.017283669.056928363.030452386.115803446.075817046.194019289.147201326.041741728.038095903.20882162.198667851.241002663.228869175l.010000073-.011107545c-.107668069-.112986829-.21405978-.128845577-.270639207-.049400277-.056121447.078802233-.04661744.229767431.03344422.39551351.060580533.12524935.141509867.22639637.284237064.37022274.014434092.01454525.117476823.11676471.147963537.14783869.01186667.01209526.02312842.02371066.03400923.03508984.0787062-.0486453.16279485-.07619895.23529205-.07556987-.00362618.03851693.00624088.07456889.02471087.12052811.00212089.00527743.0121033.02945773.01464729.03586829l.00615906-.01056291c-.05502143.00447512-.1164331.02409178-.16196555.05385383.08304761.11893016.15284659.1593233.30009762.18746761l.00674126-.01260694c-.08899027-.10489038-.17494844-.27651411-.18307215-.38280453-.0179315-.23477364.12570235-.45710299.19613437-.40229812.00094017.00071078.04186026.03298813.05588194.04298132.02595819.01850027.05161708.0330888.08143389.04522207l.00520971-.01427853c-.09115585-.0362374-.18218653.0710563-.19358104.22621049-.01341924.18272396.07883133.38013557.28045524.53693017.00726196.00567075.0132339.01011161.02650283.01981637.0000958.00007007.0000958.00007007.00019159.00014013.05009653.03664006.07002104.05512197.08661405.08648124.39814498-.2656974.80803819-.43123639 1.34281602-.48723685.56129723-.05876396 1.11253577-.32382083 1.34075854-.669798885zM14.0219109 10.02333753c-.25918741-.2476789-.37203843-.70935567-.27604446-1.11863402-.19484065-.24580718-.6730476-.34367535-1.04391809-.24323719-.35371603.26191618-.64606578.59573352-.92327706 1.0215528-.15558909.23899762-.63397527 1.10424457-.74115558 1.2567775-.01714586.024401-.03398987.04731728-.05062615.06884243-.17169622.22210341-.17582458.66357511.07767802.87429777.01135239.0094314.02233713.01896322.03307368.02868423.0328791.02976915.0627652.06056941.09803498.10023639.01457.01638648.09309626.10757186.11922324.13681775.05372922.06014315.1073094.11564283.17141341.17619656.16520916.15605937.38858124.33348485.7051249.55343122.16094529.11182488.66672897.44586979.66407272.44407785.22234076.14999397.34829612.24769343.41727865.32989146.22296069.26547486.30377012.41841547.27670063.61858034-.01884152.13955466-.01624692.25341419.00184668.46400638.01850428.2153719.02049298.2895473.00172933.3840712-.00434556.0218171-.06180465.2952602-.07334479.3614368-.01992411.1142542-.02552278.1962948-.01586446.2688269.02715328.2027703.28028277.2793599.46435054.0612595.20120391-.2383593.27693727-.4249547.38567221-.8458914.09981078-.38638934.16821451-.55942558.34026899-.77357662.25838693-.32164261.27500183-.53898857-.04623671-.70730548-.57791036-.30251108-.93306948-.59451612-1.29006124-1.18952776-.30690441-.51173796-.7680079-.90037554-1.16912277-.96104571l.00254332.01422363c.07556136-.0448192.14260733-.09495833.23531021-.1726602.01906369-.01597884.0881511-.07462186.08499971-.07195644.03465307-.02930935.06147605-.05156796.08854918-.07329178.10922564-.08764403.20921642-.1547517.32647077-.2145938.3990797-.20367489.77717723-.45673428 1.13515736-.7800402l.00015278-.01145011zm-.0096496-.00014194c-.35697302.32239636-.73402117.5747534-1.13202711.77788029-.11820996.06032981-.21899992.12797384-.32894715.21619688-.02718814.0218161-.05410062.04414899-.0888421.07353312.00311931-.0026383-.06592726.05597006-.08494959.07191423-.09214942.07723797-.15863149.1269554-.2333876.17129697l.00254332.01422364c.39626227.0599362.85404058.44577117 1.15887652.95406012.35864492.59776704.71580015.89141323 1.29588373 1.19506191.31053216.16270716.29479334.36859274.04160518.68376386-.17379365.21631574-.24286328.39103648-.34319252.77943289-.10818971.418826-.18319217.6036206-.38251604.8397527-.17589883.208421-.41362172.1364931-.43902935-.0532413-.00939944-.070588-.00390072-.1511639.01576739-.2639501.01148423-.0658559.06888048-.339.07327556-.3610657.01917553-.0965988.0171665-.1715326-.00148086-.3885699-.01799844-.20948457-.02057206-.32242354-.00193217-.46048478.02788396-.20618739-.05450136-.36211053-.28019462-.63083901-.0701933-.08364076-.19682104-.18186175-.4203312-.33264462.0025309.00170737-.50313054-.33225681-.66390801-.44396508-.3159808-.21955527-.53879158-.39653492-.70342151-.55204713-.06378403-.06025148-.11707329-.11544982-.1705319-.17529004-.0260092-.02911406-.10452008-.12028158-.11919979-.13679145-.03560176-.04004035-.06584844-.07121222-.09916968-.10138169-.01089119-.00986102-.02203394-.01952995-.03354616-.02909413-.24645242-.20486223-.24241475-.636636-.07540831-.85267279.01678224-.02171398.03376242-.04481552.05103731-.06940016.10776961-.15337158.58633538-1.01894336.74145954-1.25722679.27630644-.42442939.56751773-.75694679.91727594-1.01653526.36356934-.09794667.83605477-.00124944 1.02527562.23271176-.09873692.40771601.01552878.87518031.27886278 1.12682167l.00015278-.01145011zm-.47552391 4.51252456c.01229226.17855865.24057829.22821115.59428434.11920045l-.00073988-.014856-.58497088-.11241595-.00857358.0080715zm.00595164.00696917l.58497087.11241588-.00073988-.0148561c-.34603245.1066457-.56431226.0591695-.57565741-.10563128l-.00857358.0080715zm.00722925.20570318c.01705655.1825512.13887098.2444905.49868446.2131111l.00210267-.014717-.49083495-.2062385-.00995218.0078444zm.01449353-.0014929l-.00995217.0078444.49083495.2062386.00210267-.014717c-.35290947.0307773-.46689761-.0271826-.48298545-.199366zm-.00410595.3215345c-.01555985.1341101.14039283.2079051.33461371.1780303l.00217386-.0144168-.3263301-.1695413-.01045747.0059278zm.01445624.001849l-.01045747.0059277.32633009.1695413.00217387-.0144167c-.1861746.0286371-.33204635-.0403877-.31804649-.1610523z"></path><path d="M13.71895583 9.42412611c-.15478346.13707161-.2436238.19406844-.45735638.30974005-.01649497.00892705-.02888755.0156768-.04101237.02235724-.21071517.11609825-.35344028.23043146-.56116738.47501943-.25678095.30244438-.64395199.64957936-.86261027.7848004l.06436845.07816481c.22872873-.13498399.61706096-.4831277.87493617-.78673342.2064261-.2430509.34773763-.35627957.55679816-.47150868.01212113-.00668088.02451979-.01343604.04102941-.02237348.19924332-.10785979.27972613-.15831774.41792618-.2751599-.00437773-.02922901-.01586049-.08058734-.02105911-.10986359l-.01185286-.00444286zm.00938931.01168819l-.01185286-.00444285c.00531456.0299292.01693337.08189598.02391101.10355597-.13491752.10763327-.21469983.15765205-.41313546.2650746-.01653869.00895317-.02896618.01572404-.04112459.02242547-.21056296.11605722-.35327019.23040422-.56089824.47487032-.25692492.30248691-.64412033.64961145-.86272683.78480047l-.0569776-.06498975c.21870966-.1239719.60701838-.47212693.86474925-.77569015.2065235-.24317079.34785218-.35638536.55706427-.47165545.01208774-.00666001.02445164-.01339414.0409177-.02230554.21462464-.11615441.30426759-.17366615.46007335-.31164309z"></path><path d="M13.92395339 9.92349662c-.06551734.03884756-.12720092.08238519-.17548486.1245725-.02153896-.03420616-.04601871-.08615826-.0716947-.163957-.00687265-.02082427-.03097842-.09946008-.03665669-.11652687-.01366943-.04108523-.02510999-.0669342-.03815486-.0830301-.01665076-.02054514-.03636022-.02428316-.05796615-.00892847-.02302315.01591323-.09883335.05956756-.17337416.10085364l.00678919.01352727c.01504957-.00831768.03139528.00642451.05007249.04624377.01539812.03282834.02859448.07231668.05220875.15145787.0162663.0545151.01659458.05560681.02255817.07456904.02505484.07966593.04349892.12061142.06498641.13271622l-.00140159-.01244477c-.07088101.06631476-.15191233.12533583-.25104235.18581162-.06387726.0389693-.27406936.15517658-.30457449.17326415-.08041527.04768105-.13625079.08804783-.17770824.1311051-.01398323-.02520442-.03574472-.06099969-.06406545-.11793572-.00343125-.0068982-.02840393-.05823702-.03545466-.07207708-.0131589-.02582997-.02376864-.04408315-.03412958-.05785378-.02500888-.03323909-.0501274-.03972773-.07489422-.0128045-.01820187.02097228-.05050833.05481749-.10470586.11028272-.00127866.00130849-.00127866.00130849-.00255752.00261685.01348755-.01379783-.05922202.06048156-.07423039.07594595l.01011318.01100159c.01784045-.01778036.03248048-.00906825.05461071.0288443.0038896.00666351.00794885.01412173.01301577.02381523.00248359.00475135.00664435.01282473.01348736.02606504.02790795.05360263.04676011.0798503.07217171.09109375l-.00185886-.01289653c-.17123339.15119087-.42197747.34908831-.53856651.41877915l.07590073.15682132c.08548553-.04191802.1525315-.09205715.24523438-.16975902.01906369-.01597884.0881511-.07462186.08499971-.07195644.03465307-.02930935.06147605-.05156796.08854918-.07329178.10922564-.08764403.20921642-.1547517.32647077-.2145938.3990797-.20367489.77717723-.45673428 1.13515736-.7800402-.02291794-.03460926-.061372-.07737396-.08878459-.10971643l-.00902014-.00157459zm-.00185896.01173956c.02765089.03262362.06635289.07566405.08988368.09928181-.35668983.31107396-.73373798.563431-1.13174392.76655789-.11820996.06032981-.21899992.12797384-.32894715.21619688-.02718814.0218161-.05410062.04414899-.0888421.07353312.00311931-.0026383-.06592726.05597006-.08494959.07191423-.09214942.07723797-.15863149.1269554-.2333876.17129697l-.06871661-.14352083c.11481295-.05986774.36613161-.25821865.53799442-.40996528l-.00185887-.01289654c-.02115019-.00935797-.0388182-.03395697-.06504859-.08433751-.00680139-.01315998-.01098935-.02128616-.01349904-.02608743-.00516921-.00988919-.00933396-.01754126-.01336585-.02444853-.02627862-.0450194-.04985603-.05905003-.07705339-.03194429l.01011318.01100159c.0149823-.01543753.08765326-.08967746.07419298-.07590754.00127982-.00130933.00127982-.00130933.00255949-.00261886.0544371-.0557104.08682957-.08964573.10516109-.11077224.01742115-.01893331.03266947-.01499435.05284652.01182278.00970467.0128984.01993093.03049184.03271563.05558726.00697218.0136859.03189819.06492876.03538747.07194362.02897991.05826123.05136655.09508481.07696952.12172319.05059334-.0418994.10548859-.08158641.18487402-.12865683.0302251-.01792153.24052439-.13418807.30472972-.17335751.09991178-.06095272.18171468-.12053579.25341439-.18761651l-.00140159-.01244477c-.01652751-.00931064-.03453224-.04928079-.05804298-.124037-.0059285-.01885064-.00625734-.01994423-.02248978-.07434584-.02385483-.0799474-.03718636-.11984022-.05304112-.15364211-.02193933-.04677401-.04446352-.06708855-.06992069-.05301874l.00678919.01352728c.07509192-.04159132.15098869-.0852955.17466473-.10166077.01529878-.01087163.0267835-.00869348.03878956.00612064.01152038.01421483.02239922.03879463.0354976.07816352.00560113.01683495.02969943.09544639.03664469.11649065.02630911.07971712.05154161.13326674.08483151.17009056.0574997-.04094212.11846979-.08397615.18326962-.12239827l-.00902014-.00157459zm-2.06198678 2.70880961c.07113519.05580508.17826246-.00987829.31260744-.17123027.10746289-.12906587.22887299-.31595103.34428024-.52202831l-.01147241-.00923165-.64625243.69100918.00083716.01148105zm.0095539-.00076797l.64625242-.69100917-.01147241-.00923165c-.11498685.20532657-.23592825.39149028-.34269063.5197148-.12945572.15547987-.2309183.21769002-.29292654.16904497l.00083716.01148105zm.72760688-.74636105c.06001251.04650145.11695047.09506476.17047868.14570562l.00947115-.01160885-.17102912-.14617737-.00892071.0120806zm.00864761-.01230291l-.00892071.0120806.17102912.14617737.00947116-.01160885c-.05388927-.05098244-.11119447-.09985898-.17157957-.14664912zm.83314754.99484023c.04180709.0463273.08220871.08890902.12209449.12857919l.01123884-.0117317-.12179186-.1282615-.01154147.01141401zm.01169571-.01127356l-.01156772.01143997.12206893.12855324.0112644-.01175839c-.03976066-.03954573-.0800534-.08201267-.12176561-.12823482z"></path><path d="M11.8695776 11.67502091c.3945986.03409232.88531261.40019245 1.21215892.87794166.31493691.46031416.65817005.75166282 1.07566169.97130461-.02211981.02283362-.02769352.05185094-.03301456.11827741-.00006742.00084168-.00006742.00084168-.00013485.00168299-.00120472.01502648-.0018955.02287121-.00286164.03172228-.02798699.25665713-.1417443.4346025-.29451245.51140617-.1261875.06344034-.24900925.03674996-.26275642-.05158506l-.01438169.00240518c.00663946.04492488.00572122.07839902-.0005917.13297261-.00192081.01635863-.00277431.02391435-.0035373.0320812-.01209016.1103583.25970882.1310111.45258396-.00861697.08657719-.0627142.18667092-.2291814.22984468-.36559581l-.01376763.00015972c.04914905.14454012.050656.22456479.00573769.35196172-.03481622-.02925618-.07989738-.07350574-.11008915-.11948358l-.01177568-.000309c-.00318178.00436188-.0218575.03075275-.0277161.03868457-.01148695.01555191-.02203763.02846162-.03369488.040811-.01414073.01498029-.02946054.02857517-.04681697.04119135.03495393.07902424.10195825.14382398.18027713.18356689-.01709606.04337802-.02011818.0564436-.04903514.18392555-.05766477.2542184-.09672363.375271-.17618723.5032419-.09390476.1512994-.2089813.2321461-.29551599.221339-.08328303-.010401-.11959479-.1051313-.08222444-.2516384l-.01416104-.0035428c-.00434657.0218222-.06180566.2952653-.0733458.3614419-.01992411.1142542-.02552278.1962948-.01586446.2688269.02715328.2027703.28028277.2793599.46435054.0612595.20120391-.2383593.27693727-.4249547.38567221-.8458914.09981078-.38638934.16821451-.55942558.34026899-.77357662.11897123-.14809658.18430181-.26886243.19310758-.37866113.01066463-.1329766-.06465135-.24261655-.23950358-.32872529-.02100777-.01028625-.02444988-.01200469-.057549-.02862699-.00026993-.00013556-.00026993-.00013556-.00053989-.00027111-.01636816-.00821859-.02826586-.01410624-.0448256-.02213095-.11401417-.0690074-.07750228-.26703974.10108477-.35618433l-.00405415-.01448763c-.16130829.02175502-.22382434.06614169-.28629225.17963791-.00718482.01305389-.03260493.06133384-.03531938.06639633.01168282.0162552.01230409.02369547.00493554.03652037-.00682754.01188327-.01880674.02518794-.04049466.04619276-.00330283.00319169-.00330283.00319169-.006629.0063877-.04403935.04228973-.05574414.05574784-.05683026.07342356l.01070094-.00624917c-.23241277-.13052988-.43653646-.28083528-.6314762-.47754757.11108011-.07372334.15524246-.14793678.10041143-.21758495-.0349865-.0400091-.06839886-.08029209-.10158612-.12256103l-.01123468.00972924c.04615389.0587212.00278144.12623412-.10795426.21097379-.08983088-.11127572-.18526138-.23610303-.27655929-.3745648-.11006992-.16709644-.24262041-.32575042-.3860456-.46139003.11942047-.11864081.17188356-.21960764.10562633-.28126412-.06937201-.06620451-.13621723-.12344792-.20195212-.1721461l-.00832515.0125454c.04787135.0345798.05679255.07923554.0346981.13529678-.01266534.03213631-.03455853.0660582-.06623036.10581245-.01196807.01502225-.02379506.02907429-.04517273.05419291-.2115188-.17281667-.43752206-.27879015-.64019206-.30003386l-.09042284.07585339.0040538.013502zm.00119432-.01523902l.0040538.013502.08504854-.07412844c.19438399.02266346.41803712.12753497.63738997.29775807.03112283-.02615624.04310154-.04038856.05521756-.0555965.0325407-.04084486.05516538-.07590013.06851653-.10977658.02455528-.06230521.01407818-.11474913-.03990026-.15374038l-.00832515.0125454c.06520991.04830926.13159898.10516204.20062073.17103147.05613296.05223603.00650769.14774139-.10601387.27025891.14294934.14582874.2747523.30358798.38418487.46971686.09169434.13906299.18756228.26446249.28749232.37724988.12689258-.08877071.17455927-.16296798.12022907-.23209181l-.01123468.00972924c.03335348.04248065.06693649.08296937.10184805.12287742.0466598.05928514.00682211.12623112-.09876523.206872.19520482.20944389.40040955.36054531.63393619.49170077l.01070094-.00624918c.00070086-.01140599.01303125-.0255834.05212588-.06312486.00334041-.00320969.00334041-.00320969.00667461-.00643168.02271342-.02199802.03530418-.03598192.04309039-.04953376.01107782-.01928085.00967314-.03610312-.00720732-.04715527.00526671.0050634.03062826-.04310533.03773039-.05600899.06021496-.1094029.11877452-.15098044.27553856-.17212259l-.00405414-.01448763c-.18817759.09393187-.22752336.30733453-.1015184.38355966.01707719.00830977.02891678.01416865.04522921.02235927.0002695.00013532.0002695.00013532.00053899.00027065.03314341.01664455.03661161.01837601.0576632.0286837.16975997.083601.24125911.18768466.23116146.31359173-.00848435.10579075-.0725552.22422796-.18972763.37008536-.17379365.21631574-.24286328.39103648-.34319252.77943289-.10818971.418826-.18319217.6036206-.38251604.8397527-.17589883.208421-.41362172.1364931-.43902935-.0532413-.00939944-.070588-.00390072-.1511639.01576739-.2639501.01148423-.0658559.06888048-.339.07327556-.3610657l-.01416104-.0035428c-.03938071.1543885.00074141.2590592.09457168.2707775.09306838.0116231.21282369-.0725107.30943633-.2281731.08065694-.1298926.120116-.2521856.17815387-.5080487.02887849-.12731242.03189377-.14034843.04507383-.19238682-.07955768-.04725678-.14433376-.10990159-.17999958-.1761255.01591562-.00311438.03191947-.01731628.04667743-.03295045.01211581-.01283515.02303714-.02619839.03485935-.04220421.00597362-.00808756.02468485-.03452859.02776978-.03875771l-.01177568-.00030901c.03145628.0479035.07825033.09383435.12548868.12020875.05640206-.13499941.05482579-.21870554.00456763-.36650736l-.01376764.00015972c-.04226497.13354294-.14072819.29729842-.22429295.3578305-.18462867.1336582-.43985184.11426493-.429835.02282398.00075905-.00811361.00159312-.01549738.00351353-.03185757.00646029-.05584753.00741256-.09056206.00052572-.13716078l-.01438169.00240518c.01571679.10099123.14974124.13011606.28341833.06291036.15743337-.07914909.2741512-.26172546.30269153-.52345709.00098767-.00904831.0016884-.01700609.00290493-.03217982.00006751-.00084224.00006751-.00084224.00013494-.00168409.00513764-.06413701.01040296-.09154877.02801409-.12247035-.41847454-.22934616-.75986824-.51913344-1.07334528-.97731383-.32910916-.48105681-.82329094-.84974409-1.22279241-.88426001z"></path><path d="M14.62502005 12.88984588l.1704466-.08477064-.01023258-.008533-.03972815.19192661.17264161.09425421-.00011422-.01370323-.16765048.08905199.03860423.19914232.01009317-.00870436-.17091262-.08122325-.12598979.15482466.01274104.00298943-.04415534-.19009174-.19401912-.00705687.00573595.01229312.11347573-.15559633-.11659669-.16256916-.00553584.01241486.18768932-.00415902.04888226-.19625665-.01270552.00314891.11860194.15058104.0087285.0020371zm.00249423-.01178153l-.11860194-.15058104-.01270553.00314891-.04194175.1903364-.1807488-.00176124-.00553584.01241486.11650485.15314985-.11356756.14617702.00573595.01229312.18699029.00122324.03712651.18425812.01274104.00298943.11732039-.15266055.16224322.08338735.01009317-.00870437-.04240777-.19058104.16384696-.08049071-.00011422-.01370322-.16869903-.08574924.04367074-.18342163-.01023258-.00853299-.1704466.08477064.0087285.00203709zM14.84313782 8.04351069c-.074568.3593028-.39904025.6928499-.78458446.81030978-.10538099.29996056.05293922.78351592.32129663 1.07079968.14474355.07058875.29287549.1279054.44711961.17466705.47480975.14394641.8632387.17526993 1.63441511.17717051.39435745.0009719.54821446.0065589.71199342.03396765.26908161.04498441.6352917-.17198542.68233075-.50772167.00748285-.05345379.01810536-.10245152.03369157-.15867466.009683-.03492889.05244724-.17472916.0483848-.16116914.02185989-.07296623.03901739-.13683758.05571782-.2105682.05425913-.23954824.09394263-.54854464.11974553-.99194697.0099298-.17078305.0126193-.23841361.025527-.60279298.0160904-.45422781.0310524-.63926375.0722023-.76746406.1077673-.33574352.1933503-.48542332.3718956-.56085359.1042518-.04406686.1976551-.10042495.3135455-.1837789.0285387-.02052639.1237686-.09097426.1410205-.10347652.0528025-.03826552.0934812-.06555682.1328636-.08832794.0387422-.02240093.0749583-.03951607.1104565-.05176937.0373732-.01290996.2606702-.08702157.3150295-.10682167.1158959-.04221449.1909415-.07945631.2491961-.1271973.1537407-.125869117.0903572-.394495916-.181509-.452783479-.2953492-.063403673-.4901736-.039064294-.8837304.070300207-.0134666.003742651-.0134666.003742651-.0269265.007478465-.3470415.096244699-.5307533.120190963-.788157.071788936-.39459733-.074134223-.58208426.019379441-.56020217.395758921.03937281.67703086-.02387607 1.14569828-.33622166 1.76771169-.268609.53496077-.35859964 1.14854292-.20816483 1.54365124l.01046164-.00942241c-.08275897-.05127082-.15914705-.08686557-.2963859-.14246367-.2671916-.10824447-.35808798-.15168256-.51038005-.25985302-.36706119-.26076442-.76514404-.47811799-1.21111008-.64210641l-.00952143.00558783zm.00470779.00884326c.44471323.16352774.84169127.38027808 1.20776319.64033971.15349583.10902548.24510028.15280194.51329815.26145407.13654228.05531591.21233598.0906337.29422767.14136721l.01046164-.0094224c-.14861577-.39033071-.05927387-.99948946.20752461-1.53084441.31379177-.62489339.37739627-1.09619591.3378753-1.77577445-.02115301-.363839173.15644131-.452418658.54309991-.379775907.26000952.048892027.44550852.024712815.79444232-.072056682.0134666-.003737674.0134666-.003737674.0269335-.007480408.3915503-.108806926.5844994-.132912021.8770889-.070100787.2597944.055699388.3193192.307973051.1754665.425746754-.0567193.0464828-.1305002.08309705-.2450113.12480713-.0541309.01971688-.2772642.09377417-.3148062.10674243-.0364183.01257089-.0734441.03006869-.1129318.05290067-.0398884.02306372-.0809406.05060554-.134111.08913774-.0173374.01256422-.112539.08299117-.1409783.10344602-.1150922.08277982-.2076489.13862713-.3107527.18220872-.1839203.07770105-.2711705.23029674-.3802586.57015506-.0418088.13025325-.0567948.31558631-.0729549.77177901-.0129025.36423525-.0155902.43181921-.0255099.60242918-.025755.44257935-.0653291.75072332-.11937749.98934136-.01661296.07334448-.03367905.1368755-.05544191.20951787.00412365-.01376433-.03872678.1263177-.04847559.16148395-.01576195.05685712-.02652992.1065258-.03411691.16072346-.04573052.32639684-.40389845.53860189-.66563145.49484601-.1648252-.02758385-.31904545-.03318404-.71425036-.03415803-.76986398-.00189734-1.15730572-.03314126-1.63040932-.17657042-.15355583-.04655298-.30100118-.10360397-.44291329-.17227333-.26265202-.28188844-.41907766-.75965723-.32065752-1.04858598.38562794-.11418823.71416622-.45191507.78992827-.81697138l-.00952142.00558783zm3.95985119-1.82400609c.1411817-.1004635.0679814-.33289581-.1988666-.59999688l-.0118827.00810213.1998058.58813456.0109435.00376019zm.0027732-.00889726l-.1998059-.58813455-.0118827.00810213c.2610588.2613064.3310499.48354857.2007451.57627224l.0109435.00376018zm.1660838-.10938354c.1419615-.10687857.1321546-.24862076-.0735215-.560049642l-.0131912.005444738.0752622.549480124.0114505.00512478zm-.0084863-.01242612l.0114506.00512478-.0752622-.54948012-.0131911.005444737c.2017306.305454653.2109079.438097363.0770027.538910603zm.2720856-.15703079c.1354093-.05303187.1158636-.23164956-.0233987-.39342122l-.014856.005227541.0266667.381651379.011588.0065423zm-.0067677-.01406276l.011588.0065423-.0266667-.381651372-.014856.005227541c.1334992.155076981.1517827.322160791.0299347.369881531z"></path><path d="M14.50036218 8.61844553c.03835272.01453894.07468721.02941918.10936323.04473044.13846194.06113815.19900734.09785036.38376468.22228208.2251447.15163211.38138642.22292828.70238867.29291516.37788747.08231918.85774283.26075988 1.07871185.39195226l.03221198-.09768853c-.22541773-.14030323-.70679247-.319271-1.08629185-.40207866-.31910898-.06956634-.4737506-.14012103-.69742-.29075104-.18652787-.12561707-.24817187-.16294623-.38913463-.22492978-.01809622-.00795719-.0366376-.01579768-.05567716-.0235355-.02181058.01860951-.05797421.05419413-.08017278.07409896l.00225601.01300461zm.00494555-.01438184l.002256.01300461c.02270131-.02035562.05930353-.05637182.0735771-.07357465.0107976.00979564.02921608.01758416.04718971.02548745.13995013.06153827.20105358.0985401.38689763.22369665.22508715.15158479.38135046.22287937.70232065.29285146.37810251.08250286.85806994.26094742 1.07859361.39195129l-.02504211.08437955c-.21171448-.13687049-.69297833-.31583496-1.07226184-.39845825-.31913831-.06958049-.47375845-.1401367-.69748551-.29081405-.18543624-.12488896-.24651561-.16192494-.38598202-.22350661-.03490872-.01541402-.0714766-.03038984-.11006322-.04501745z"></path><path d="M14.80974136 8.18236807c.06472464.04002803.1315073.07436979.19048353.09733895-.00648968-.00208683-.00901684.00529649-.01202335.01282474-.01760869.04409185-.04864241.08871886-.10028094.14987902-.00900169.01066151-.04665414.05433386-.05575278.06516957-.01994921.02375782-.03357383.0415076-.04354144.05734588-.02574215.0409036-.02591359.07031907.00671544.08696626.02452542.01292603.0966319.05888207.16975523.10712008l.00776105-.01293824c-.01405514-.00931675-.01055117-.030753.01167484-.06631689.01858469-.02973743.04499179-.06231161.09527233-.11981593.0032585-.00372511.0032585-.00372511.00652076-.00745001.09975905-.1138844.12664242-.14943355.12572899-.18158715l-.00956494.00748645c.11624764.04037071.22512755.09889145.36677686.19055687.00169006.00109369.16955978.11210928.21408406.13946901.07604717.04673024.13554592.07614972.19018163.09186294-.01111491.01467972-.02256781.04143143-.039602.07287321-.00880019.01624343-.01860099.03293024-.03196998.05475634-.05709647.09321521-.05629443.0918429-.06621378.1181937-.01472637.03912066-.00743846.06507185.02703479.07409884.02656954.00608763.07083266.0185875.14467931.04041285.00283408.00083778.00283408.00083778.00566731.00167592.02567035.00760691.02567035.00760691.05047736.01496632.02401822.00711065.03326958.00983757.04574758.01347457l.00401074-.01469867c-.01746365-.00541682-.02152766-.01560283-.01580909-.03518076.0047911-.01640263.0101823-.02646769.03759978-.07346405.00588276-.01008366.01011601-.01750733.01411949-.02484932.02094625-.03841333.03044069-.06623144.02750371-.09071044l-.00970454.00814367c.20976024.07978303.49875199.20900832.61464516.28026543l.09138547-.1474176c-.08532763-.06174449-.16171571-.09733924-.29895456-.15293734-.2671916-.10824447-.35808798-.15168256-.51038005-.25985302-.36706119-.26076442-.76514404-.47811799-1.21111008-.64210641-.01702564.03794628-.03305307.09409974-.04613274.13544796l.00321485.00899725zm.01060591-.00417768c.01319425-.04171046.02932621-.09823015.03698012-.13124377.43523145.16893507.83220949.38568541 1.19828141.64574704.15349583.10902548.24510028.15280194.51329815.26145407.13654228.05531591.21233598.0906337.29422767.14136721l-.08400555.13423581c-.10690294-.07455445-.39656072-.20407757-.60709558-.28415523l-.00970455.00814368c.00241887.02016075-.00623668.04552097-.02569316.08120221-.00391798.00718519-.00808565.01449385-.01389969.02445971-.02836411.048619-.03377395.05871884-.03910427.07696758-.00793034.02715004-.00029189.04629503.02560617.05432801l.00401073-.01469868c-.01245343-.00362984-.02168517-.00635097-.04568699-.01345676-.02480073-.00735755-.02480073-.00735755-.0504834-.01496811-.00283514-.00083871-.00283514-.00083871-.00567135-.00167712-.07417311-.02192183-.11855062-.034454-.14531168-.04058205-.02424891-.00635316-.02866595-.02208159-.0168048-.05359079.00937353-.0249008.00885758-.02401801.06491887-.1155432.01349945-.02203908.02342473-.03893783.03237973-.055467.01760654-.03249823.02953987-.06037215.0359104-.08586688-.05828179-.02460324-.1167505-.05351341-.19179254-.09962601-.04428236-.02721107-.21192583-.13807704-.21379891-.13928916-.1425303-.09223554-.25230781-.15123873-.36984473-.19205718l-.00956494.00748645c.00072798.02562537-.02789437.06347407-.12189128.17078043-.00326564.00372876-.00326564.00372876-.00652968.0074602-.05083461.05813799-.07754727.0910891-.09672035.12176801-.02622488.0419625-.03110795.07183563-.00727343.08763485l.00776106-.01293825c-.0736647-.04859514-.14583073-.09458914-.17105389-.10788218-.02269051-.0115773-.02257987-.03056031-.00101424-.06482753.00951113-.01511293.0227762-.0323943.04231513-.05566351.00901833-.01074007.04665289-.05439168.05572647-.06513834.05263512-.0623405.0844158-.10804165.10281359-.1541094.00320762-.00803183.00591477-.01594101.00810879-.0237397-.062561-.03196564-.12858314-.06591631-.19260813-.10551166l.00321485.00899725zm3.26536843.52045303c.0105157-.09255101-.09721159-.15706973-.29750683-.19851365-.1601672-.03314086-.37497982-.05007326-.60279117-.05199418l-.0018777.01504782.8931262.24195719.0090495-.00649718zm-.005411-.00830844l-.89312625-.24195718-.0018777.01504782c.22698327.00191394.44096816.01878108.60009232.05170613.19300023.03993448.29502693.10103902.28586213.18170041l.0090495-.00649718zm-.9773162-.28837143c.0096533-.07806143.02290566-.15405732.04000395-.22777209l-.01637804-.00280751-.04013333.22850153.01650742.00207807zm-.01655374-.00172369l.01650743.00207808.04013333-.22850153-.01637803-.00280751c-.0172134.07421103-.03055043.1506925-.04026273.22923096zm.40522561-1.25451251c.01880539-.0562915.03496335-.10943806.04878919-.16077341l-.01611804-.00388444-.04866666.16036697.01599551.00429088zm-.01594267-.00448064l.01599552.00429087.04866667-.16036697-.01611804-.00388444c-.01374918.05105071-.0298253.10392811-.04854415.15996054z"></path><path d="M17.28165125 9.17459322c-.16918006-.37583226-.11251977-1.0051375.11818825-1.54123032.2222341-.51663877.29093643-.97453379.26323504-1.46366301.0292474.00876124.05667044-.00075348.11151206-.02779334.00126152-.00062211.00126152-.00062211.00252211-.00124394.01437992-.00709323.02103915-.01031013.02919668-.01401053.22566141-.10285168.42929791-.08838284.56901161.01210254.115412.08300702.1547708.20798983.0887368.26462175l.0091672.01188083c.0382082-.03223347.0485104-.03767798.1284462-.07407245.0049481-.00226533.0049481-.00226533.0098075-.00455823.0970167-.04440979-.0217379-.30170207-.2333598-.40726218-.0949735-.04742518-.2822924-.05522705-.41655089-.02627141l.00701164.01244228c.09483165-.11706019.15996205-.15834839.28752015-.18114743-.0066936.0463673-.0206675.10951862-.0435588.15980868l.0056429.01087975c.007572.00098995.007572.00098995.0152905.0019261.0658112.00793176.0946212.01436579.1383985.03617477.0477077-.07142423.067656-.16468327.0612961-.25578411.0332686-.00299433.0710354-.01441891.1249872-.03126965.1709149-.053381817.2001898-.062093418.2726151-.07883654.1027524-.023754102.1928233-.033655251.2817721-.028612098.1717678.009740902.2960168.073955936.3304007.158042558.0330883.08091817-.0268556.16127963-.1663391.20051648l.0041601.01464712c.0373717-.01290944.2606687-.08702105.315028-.10682115.1158959-.04221449.1909415-.07945631.2491961-.1271973.1537407-.125869117.0903572-.394495916-.181509-.452783479-.2953492-.063403673-.4901736-.039064294-.8837304.070300207-.0134666.003742651-.0134666.003742651-.0269265.007478465-.3470415.096244699-.5307533.120190963-.788157.071788936-.18164817-.034126803-.31391789-.033143139-.40887352.013757356-.11500034.056800978-.16775156.18011913-.15131577.382186295.00184033.02264203.00183521.02257393.00485066.06357781.00011716.00159191.00011716.00159191.00023461.00318173.00136445.01844959.00251304.03276592.00423982.05231725-.00003111.1382215-.18152398.20397042-.34430463.08608928l-.00992807.01092429c.06002118.08278453.11188322.12893672.16717968.15134851.04423436.01792828.07730698.02053338.16754448.01875213.01420549-.00027785.02054591-.00038736.02893359-.00048112.00759035-.01925307.01399816-.0235784.02967482-.022798.01407549.0007007.03086041.00516368.0622255.01554845.00213867.0007088.00213867.0007088.00427875.00141992.0547699.0182048.07236446.02220586.08731515.01445972l-.01049984-.00660471c.00864843.27615994-.01329481.53726197-.07808319.81296321-.11663844-.06405625-.19953816-.06710977-.22972972.0174977-.01581623.05272027-.03224086.10303837-.05021546.15352206l.01364221.00535106c.02532603-.07122599.10268177-.06548428.22789642-.00718354-.04682054.1373594-.10205334.28660704-.17058254.43879535-.082786.18350005-.14734686.38331233-.18752972.5817389-.1572916-.049342-.26711318-.04655423-.28486592.04458411-.01992362.09661625-.03369642.18581106-.04101055.26970346l.01451002.00130103c.00631483-.08364828.06454356-.11019062.16794368-.09895849.02313759.00251338.04691568.00665813.07719726.0130235.00834077.00175328.0345944.00745283.03682902.00792989-.03678782.27872015-.01123651.53717697.07252121.7322857l.10780973.04415435.00910127-.0104405zm-.01316658.00653379l.00910127-.0104405-.10368932-.04012232c-.07843661-.18827972-.10372245-.4440514-.07299153-.72860109-.00797716-.00882149-.03426087-.01452757-.04265618-.01629231-.03069285-.00645183-.05487915-.01066773-.07855745-.01323985-.11044101-.01199696-.17681054.01825618-.18395996.11295964l.01451003.00130102c.00725594-.08322497.02093576-.17181761.04075863-.26794765.01504138-.07721637.11891381-.07985313.27597567-.03872573.04883072-.20308663.1130268-.40176995.19533294-.58420637.06882854-.15285306.12431509-.30278638.16733247-.45008354-.1366266-.07097739-.22163128-.07728684-.25145319.00658323l.01364221.00535105c.01806642-.0507416.034574-.10131381.05033863-.15389845.025711-.07202012.10049503-.06926554.2200863-.01365374.07514809-.28231325.09720762-.54479899.08851758-.82228746l-.01049985-.00660471c-.00961695.00498265-.02785711.00083479-.07647538-.0153253-.00214513-.00071279-.00214513-.00071279-.00429431-.00142508-.03263955-.01080673-.05011161-.01545242-.06591555-.01623916-.02290075-.00114003-.03700246.00837876-.03771926.03016256-.00123844-.00728653-.00762127-.00717628-.02185261-.0068979-.08833173.00174363-.12016922-.00076418-.16202625-.01772893-.05245724-.02126104-.10231541-.06562997-.16083651-.14634551l-.00992807.01092429c.17152236.12421164.36710512.05335843.36710512-.09938217-.00175071-.02017595-.00289329-.03441746-.00425242-.05279506-.00011717-.00158614-.00011717-.00158614-.00023412-.00317513-.00301887-.04105047-.00301517-.04100111-.00486022-.06370129-.0159586-.196200375.0341193-.313269016.14300458-.367049645.0914886-.045188058.22120751-.046152752.40010816-.012542132.26000952.048892027.44550852.024712815.79444232-.072056682.0134666-.003737674.0134666-.003737674.0269335-.007480408.3915503-.108806926.5844994-.132912021.8770889-.070100787.2597944.055699388.3193192.307973051.1754665.425746754-.0567193.0464828-.1305002.08309705-.2450113.12480713-.0541309.01971688-.2772642.09377417-.3148062.10674243l.00416.01464713c.1469924-.04134911.2132318-.13015037.1759522-.22131839-.0369787-.090432291-.1662767-.157256767-.3429972-.167278538-.0903913-.005124937-.181739.004916559-.285689.028947531-.0729221.016857966-.1022982.025599684-.2736359.079113557-.0538416.01681634-.0915029.028209-.1299922.0391026.0007797.0959865-.0185059.18614806-.0552939.25182405-.0362223-.02575851-.0662791-.03247099-.1335826-.04058261-.0076662-.00092988-.0076662-.00092988-.0150975-.00190146l.0056429.01087975c.0238589-.05241575.0383669-.11798097.0364742-.17420893-.1395689.01615994-.2077006.05935078-.3046682.17904755l.00701165.01244228c.13143375-.02834643.31569955-.02067172.40736865.02510337.202586.10105285.3141065.34267183.233693.37948215-.0048251.00227633-.0048251.00227633-.0096826.00450015-.0812422.03698933-.0921514.04275464-.1317739.07618125l.0091671.01188083c.0754981-.06474857.0325459-.20114248-.0897194-.28907855-.1439806-.10355418-.3529165-.11839955-.58302911-.01351911-.00833146.00377929-.01508517.00704182-.02960177.01420248-.00126046.00062176-.00126046.00062176-.00251986.00124282-.05288902.02607713-.0787607.03505358-.11246501.03444345.02017396.49487536-.04816004.95031544-.26936359 1.46455844-.23230492.53980352-.28936563 1.1735561-.11808309 1.554059z"></path></g></g></g></svg>