<svg  xmlns="http://www.w3.org/2000/svg" xmlns:xlink="http://www.w3.org/1999/xlink" width="28" height="20"><defs><rect id="USa" width="28" height="20" x="0" y="0" rx="0"></rect><linearGradient id="USe" x1="50%" x2="50%" y1="0%" y2="100%"><stop offset="0%" stop-color="#FFF"></stop><stop offset="100%" stop-color="#F0F0F0"></stop></linearGradient><path id="USd" d="M2 2.66666667c-.36818983 0-.66666667-.29847684-.66666667-.66666667S1.63181017 1.33333333 2 1.33333333 2.66666667 1.63181017 2.66666667 2 2.36818983 2.66666667 2 2.66666667zm2.66666667 0C4.29847683 2.66666667 4 2.36818983 4 2s.29847683-.66666667.66666667-.66666667c.36818983 0 .66666666.29847684.66666666.66666667s-.29847683.66666667-.66666666.66666667zm2.66666666 0c-.36818983 0-.66666666-.29847684-.66666666-.66666667s.29847683-.66666667.66666666-.66666667C7.70152317 1.33333333 8 1.63181017 8 2s-.29847683.66666667-.66666667.66666667zm2.66666667 0c-.36818983 0-.66666667-.29847684-.66666667-.66666667S9.63181017 1.33333333 10 1.33333333c.3681898 0 .6666667.29847684.6666667.66666667S10.3681898 2.66666667 10 2.66666667zM3.33333333 4c-.36818983 0-.66666666-.29847683-.66666666-.66666667 0-.36818983.29847683-.66666666.66666666-.66666666C3.70152317 2.66666667 4 2.9651435 4 3.33333333 4 3.70152317 3.70152317 4 3.33333333 4zM6 4c-.36818983 0-.66666667-.29847683-.66666667-.66666667 0-.36818983.29847684-.66666666.66666667-.66666666s.66666667.29847683.66666667.66666666C6.66666667 3.70152317 6.36818983 4 6 4zm2.66666667 0C8.29847683 4 8 3.70152317 8 3.33333333c0-.36818983.29847683-.66666666.66666667-.66666666.36818983 0 .66666666.29847683.66666666.66666666C9.33333333 3.70152317 9.0348565 4 8.66666667 4zM10 5.33333333c-.36818983 0-.66666667-.29847683-.66666667-.66666666C9.33333333 4.29847683 9.63181017 4 10 4c.3681898 0 .6666667.29847683.6666667.66666667 0 .36818983-.2984769.66666666-.6666667.66666666zm-2.66666667 0c-.36818983 0-.66666666-.29847683-.66666666-.66666666C6.66666667 4.29847683 6.9651435 4 7.33333333 4 7.70152317 4 8 4.29847683 8 4.66666667c0 .36818983-.29847683.66666666-.66666667.66666666zm-2.66666666 0C4.29847683 5.33333333 4 5.0348565 4 4.66666667 4 4.29847683 4.29847683 4 4.66666667 4c.36818983 0 .66666666.29847683.66666666.66666667 0 .36818983-.29847683.66666666-.66666666.66666666zM2 5.33333333c-.36818983 0-.66666667-.29847683-.66666667-.66666666C1.33333333 4.29847683 1.63181017 4 2 4s.66666667.29847683.66666667.66666667c0 .36818983-.29847684.66666666-.66666667.66666666zm1.33333333 1.33333334c-.36818983 0-.66666666-.29847684-.66666666-.66666667s.29847683-.66666667.66666666-.66666667C3.70152317 5.33333333 4 5.63181017 4 6s-.29847683.66666667-.66666667.66666667zm2.66666667 0c-.36818983 0-.66666667-.29847684-.66666667-.66666667S5.63181017 5.33333333 6 5.33333333 6.66666667 5.63181017 6.66666667 6 6.36818983 6.66666667 6 6.66666667zm2.66666667 0C8.29847683 6.66666667 8 6.36818983 8 6s.29847683-.66666667.66666667-.66666667c.36818983 0 .66666666.29847684.66666666.66666667s-.29847683.66666667-.66666666.66666667zM10 8c-.36818983 0-.66666667-.29847683-.66666667-.66666667 0-.36818983.29847684-.66666666.66666667-.66666666.3681898 0 .6666667.29847683.6666667.66666666C10.6666667 7.70152317 10.3681898 8 10 8zM7.33333333 8c-.36818983 0-.66666666-.29847683-.66666666-.66666667 0-.36818983.29847683-.66666666.66666666-.66666666C7.70152317 6.66666667 8 6.9651435 8 7.33333333 8 7.70152317 7.70152317 8 7.33333333 8zM4.66666667 8C4.29847683 8 4 7.70152317 4 7.33333333c0-.36818983.29847683-.66666666.66666667-.66666666.36818983 0 .66666666.29847683.66666666.66666666C5.33333333 7.70152317 5.0348565 8 4.66666667 8zM2 8c-.36818983 0-.66666667-.29847683-.66666667-.66666667 0-.36818983.29847684-.66666666.66666667-.66666666s.66666667.29847683.66666667.66666666C2.66666667 7.70152317 2.36818983 8 2 8z"></path><filter id="USc" width="110.7%" height="130%" x="-5.4%" y="-7.5%" filterUnits="objectBoundingBox"><feOffset dy="1" in="SourceAlpha" result="shadowOffsetOuter1"></feOffset><feColorMatrix in="shadowOffsetOuter1" values="0 0 0 0 0 0 0 0 0 0 0 0 0 0 0 0 0 0 0.06 0"></feColorMatrix></filter></defs><g fill="none" fill-rule="evenodd"><mask id="USb" fill="#fff"><use xlink:href="#USa"></use></mask><use fill="#FFF" xlink:href="#USa"></use><path fill="#D02F44" d="M0 0h28v1.33333333H0V0zm0 2.66666667h28V4H0V2.66666667zm0 2.66666666h28v1.33333334H0V5.33333333zM0 8h28v1.33333333H0V8zm0 2.6666667h28V12H0v-1.3333333zm0 2.6666666h28v1.3333334H0v-1.3333334zM0 16h28v1.3333333H0V16zm0 2.6666667h28V20H0v-1.3333333z" mask="url(#USb)"></path><path fill="#46467F" d="M0 0h12v9.33333333H0z" mask="url(#USb)"></path><g mask="url(#USb)"><use fill="#000" filter="url(#USc)" xlink:href="#USd"></use><use fill="url(#USe)" xlink:href="#USd"></use></g></g></svg>