<svg class="SVGInline-svg" xmlns="http://www.w3.org/2000/svg" xmlns:xlink="http://www.w3.org/1999/xlink" width="28" height="20"><defs><rect id="AOa" width="28" height="20" x="0" y="0" rx="0"></rect><linearGradient id="AOb" x1="50%" x2="50%" y1="0%" y2="100%"><stop offset="0%" stop-color="#FF323E"></stop><stop offset="100%" stop-color="#FD0D1B"></stop></linearGradient><path id="AOe" d="M0 10.6666667h28v9.33333333H0z"></path><filter id="AOd" width="110.7%" height="132.1%" x="-5.4%" y="-16.1%" filterUnits="objectBoundingBox"><feMorphology in="SourceAlpha" operator="dilate" radius=".5" result="shadowSpreadOuter1"></feMorphology><feOffset in="shadowSpreadOuter1" result="shadowOffsetOuter1"></feOffset><feColorMatrix in="shadowOffsetOuter1" values="0 0 0 0 0 0 0 0 0 0 0 0 0 0 0 0 0 0 0.06 0"></feColorMatrix></filter><path id="AOg" d="M0 0h28v10.6666667H0z"></path><filter id="AOf" width="110.7%" height="128.1%" x="-5.4%" y="-14.1%" filterUnits="objectBoundingBox"><feMorphology in="SourceAlpha" operator="dilate" radius=".5" result="shadowSpreadOuter1"></feMorphology><feOffset in="shadowSpreadOuter1" result="shadowOffsetOuter1"></feOffset><feColorMatrix in="shadowOffsetOuter1" values="0 0 0 0 0 0 0 0 0 0 0 0 0 0 0 0 0 0 0.06 0"></feColorMatrix></filter><path id="AOi" d="M14.1741364 11.8062134l-1.8772699-1.2515132c-.3063524-.204235-.389135-.61814787-.1849-.92450033.2042349-.30635246.6181478-.38913504.9245003-.18490007l2.0475727 1.3650484c.0901821-.1718261.1628887-.3562272.2152197-.5515292.3811781-1.42257623-.4630418-2.88480811-1.8856181-3.26598628-.3556441-.09529454-.5666991-.46085251-.4714045-.81649658.0952945-.35564407.4608525-.56669906.8164965-.47140452 2.1338644.57176725 3.4001944 2.76511507 2.8284272 4.89897948-.0909905.339581-.2230478.6571914-.3893969.9489198l.8387034.5591356c.3063525.2042349.389135.6181478.1849001.9245003-.204235.3063525-.6181479.389135-.9245004.1849001l-.9495495-.6330331c-.9696432.8409919-2.3259984 1.2012176-3.6591362.8440044-.3556441-.0952945-.5666991-.4608525-.4714045-.8164966.0952945-.355644.4608525-.566699.8164965-.4714045.7590872.2033968 1.5294654.0578869 2.1408636-.3382237zm-1.5074697-3.13954673C12.2984768 8.66666667 12 8.36818983 12 8s.2984768-.66666667.6666667-.66666667c.3681898 0 .6666666.29847684.6666666.66666667s-.2984768.66666667-.6666666.66666667z"></path><filter id="AOh" width="116.3%" height="125.4%" x="-8.1%" y="-6.3%" filterUnits="objectBoundingBox"><feOffset dy="1" in="SourceAlpha" result="shadowOffsetOuter1"></feOffset><feColorMatrix in="shadowOffsetOuter1" values="0 0 0 0 0 0 0 0 0 0 0 0 0 0 0 0 0 0 0.06 0"></feColorMatrix></filter></defs><g fill="none" fill-rule="evenodd"><mask id="AOc" fill="#fff"><use xlink:href="#AOa"></use></mask><use fill="#FFF" xlink:href="#AOa"></use><path fill="url(#AOb)" d="M0 0h28v20H0z" mask="url(#AOc)"></path><g mask="url(#AOc)"><use fill="#000" filter="url(#AOd)" xlink:href="#AOe"></use><use fill="#262626" xlink:href="#AOe"></use></g><g mask="url(#AOc)"><use fill="#000" filter="url(#AOf)" xlink:href="#AOg"></use><use fill="#DD2137" xlink:href="#AOg"></use></g><g fill-rule="nonzero" mask="url(#AOc)"><use fill="#000" filter="url(#AOh)" xlink:href="#AOi"></use><use fill="#F8D84B" xlink:href="#AOi"></use></g></g></svg>