<svg class="SVGInline-svg" xmlns="http://www.w3.org/2000/svg" xmlns:xlink="http://www.w3.org/1999/xlink" width="28" height="20"><defs><rect id="ALa" width="28" height="20" x="0" y="0" rx="0"></rect></defs><g fill="none" fill-rule="evenodd"><mask id="ALb" fill="#fff"><use xlink:href="#ALa"></use></mask><path fill="#EE343C" d="M0 0h28v20H0z" mask="url(#ALb)"></path><path fill="#262626" d="M12.4739721 4.47397208c-.2617676-.26176755-.7192114-.31047924-1.0204809-.10963289l-.9069824.60465495c-.3018285.20121898-.2810694.49705887.045311.66024907l1.4830271.74151358c.326853.16342651.5918198.59181976.5918198.96257654C12.6666667 7.70152317 12.3707568 8 12 8c-.3681898 0-.932106-.13271968-1.2584864-.29590988l-1.48302717-.74151357c-.32685303-.16342652-.8001531-.08757655-1.05815506.17042541l-.40066274.40066274c-.25754987.25754988-.20089595.59905498.12548447.76224518l1.48302714.74151357c.32685303.16342652.3465805.45940272.04531097.66024908l-.90698242.60465497c-.30182847.201219-.26231066.4211788.11205061.496051l2.0162145.403243c.3637123.0727424.4124657.3162821.1189196.5364417l-1.58738704 1.1905403c-.29803483.2235261-.24372991.4047298.12702687.4047298.36818984 0 .95204667-.071345 1.31219227-.1613814l1.3756155-.3439038c.3565139-.0891285.4820327.0838578.2811864.3851274l-.604655.9069824c-.201219.3018284-.0692323.5465088.3016319.5465088h.6680579c.3678056 0 .7586682.2780914.8769085.6328125l.2447917.734375c.1164976.3494927.3036346.354721.421875 0l.2447917-.734375c.1164975-.3494927.5060444-.6328125.8769085-.6328125h.6680579c.3678057 0 .5024782-.2452393.3016319-.5465088l-.604655-.9069824c-.201219-.3018285-.0789591-.4751638.2811864-.3851274l1.3756155.3439038c.3565139.0891285.9414355.1613814 1.3121923.1613814.3681898 0 .4205729-.1845703.1270268-.4047298l-1.587387-1.1905403c-.2980349-.2235261-.2554417-.4615695.1189196-.5364417l2.0162145-.403243c.3637123-.0727424.4133201-.2952047.1120506-.496051l-.9069824-.60465497c-.3018285-.20121898-.2810694-.49705887.045311-.66024908l1.4830271-.74151357c.326853-.16342651.3834864-.50424321.1254845-.76224518l-.4006628-.40066274c-.2575498-.25754987-.7317746-.33361562-1.058155-.17042541l-1.4830272.74151357C16.9316334 7.86751663 16.3707568 8 16 8c-.3681898 0-.6666667-.29590988-.6666667-.66666667 0-.36818983.2712403-.80228678.6026904-.96801185L18 5.33333333l-1.4534912-.96899414c-.3018285-.20121898-.7605438-.15030416-1.0204809.10963289l-1.0520558 1.05205584c-.2617676.26176755-.6880071.25993705-.9479442 0l-1.0520558-1.05205584z" mask="url(#ALb)"></path></g></svg>