<svg class="SVGInline-svg" xmlns="http://www.w3.org/2000/svg" xmlns:xlink="http://www.w3.org/1999/xlink" width="28" height="20"><defs><rect id="CAa" width="28" height="20" x="0" y="0" rx="0"></rect></defs><g fill="none" fill-rule="evenodd"><mask id="CAb" fill="#fff"><use xlink:href="#CAa"></use></mask><rect width="27.5" height="19.5" x=".25" y=".25" rx="2"></rect><path fill="#FF3131" d="M20 0h8v20h-8zM0 0h8v20H0zM15.5655823 9.76775106c-.1282676.12826755-.2036031.08901977-.1658891-.09955025L16 6.66666667l-1.3333333.66666666-.6666667-2-.6666667 2L12 6.66666667l.6003068 3.00153414c.0366496.18324763-.0382646.22717476-.1658891.09955025l-.8688354-.86883545c-.1282676-.12826755-.3364156-.12808228-.4729309.00843302l-.4259847.4259847-1.33333337-.66666666L10 10l-.4259847.4259847c-.13292498.132925-.13315328.3482107-.01125654.4701074l1.77057454 1.7705746h2l.3333334 2h.6666666l.3333334-2h2l1.7705745-1.7705746c.1267082-.1267082.1252588-.3335921-.0112565-.4701074L18 10l.6666667-1.33333333-1.3333334.66666666-.4259847-.4259847c-.1329249-.13292498-.3453064-.13605753-.4729309-.00843302l-.8688354.86883545z" mask="url(#CAb)"></path></g></svg>