<svg class="SVGInline-svg" xmlns="http://www.w3.org/2000/svg" xmlns:xlink="http://www.w3.org/1999/xlink" width="28" height="20"><defs><rect id="KZa" width="28" height="20" x="0" y="0" rx="0"></rect></defs><g fill="none" fill-rule="evenodd"><mask id="KZb" fill="#fff"><use xlink:href="#KZa"></use></mask><use fill="#FFF" xlink:href="#KZa"></use><path fill="#30C6E0" d="M0 0h28v20H0z" mask="url(#KZb)"></path><circle cx="14" cy="10" r="4" fill="#FFCD4B" mask="url(#KZb)"></circle><path fill="#FFCD4B" d="M14 14.713613l-1.6318202 2.4358584-.4133398-2.9026528-2.52709855 1.4866123.88700745-2.7945413-2.92185393.2429245 2.01167214-2.1329365L6.66666667 10l2.73790044-1.04887757-2.01167214-2.13293652 2.92185393.24292445-.88700745-2.79454123L11.95484 5.75318142l.4133398-2.90265278L14 5.28638699l1.6318202-2.43585835.4133398 2.90265278 2.5270985-1.48661229-.8870074 2.79454123 2.9218539-.24292445-2.0116721 2.13293652L21.3333333 10l-2.7379004 1.0488776 2.0116721 2.1329365-2.9218539-.2429245.8870074 2.7945413-2.5270985-1.4866123-.4133398 2.9026528L14 14.713613zm0-.0469463c2.5773288 0 4.6666667-2.0893379 4.6666667-4.6666667 0-2.57732883-2.0893379-4.66666667-4.6666667-4.66666667-2.5773288 0-4.66666667 2.08933784-4.66666667 4.66666667 0 2.5773288 2.08933787 4.6666667 4.66666667 4.6666667zM1.33333333 1.66978963c0-.18581968.14269003-.3364563.3364563-.3364563h.66042074c.18581968 0 .3364563.14269003.3364563.3364563v.66042074c0 .18581968-.14269003.3364563-.3364563.3364563h-.66042074c-.18581968 0-.3364563-.14269003-.3364563-.3364563v-.66042074zm0 2.66666667c0-.18581968.14269003-.3364563.3364563-.3364563h.66042074c.18581968 0 .3364563.14269002.3364563.3364563v.66042073c0 .18581969-.14269003.3364563-.3364563.3364563h-.66042074c-.18581968 0-.3364563-.14269002-.3364563-.3364563V4.3364563zm0 2.66666667c0-.18581969.14269003-.3364563.3364563-.3364563h.66042074c.18581968 0 .3364563.14269002.3364563.3364563v.66042073c0 .18581968-.14269003.3364563-.3364563.3364563h-.66042074c-.18581968 0-.3364563-.14269002-.3364563-.3364563v-.66042073zm0 2.66666666c0-.18581968.14269003-.3364563.3364563-.3364563h.66042074c.18581968 0 .3364563.14269003.3364563.3364563v.66042077c0 .1858197-.14269003.3364563-.3364563.3364563h-.66042074c-.18581968 0-.3364563-.1426901-.3364563-.3364563v-.66042077zm0 2.66666667c0-.1858197.14269003-.3364563.3364563-.3364563h.66042074c.18581968 0 .3364563.14269.3364563.3364563v.6604207c0 .1858197-.14269003.3364563-.3364563.3364563h-.66042074c-.18581968 0-.3364563-.14269-.3364563-.3364563v-.6604207zm0 2.6666667c0-.1858197.14269003-.3364563.3364563-.3364563h.66042074c.18581968 0 .3364563.14269.3364563.3364563v.6604207c0 .1858197-.14269003.3364563-.3364563.3364563h-.66042074c-.18581968 0-.3364563-.14269-.3364563-.3364563v-.6604207zm0 2.6666666c0-.1858197.14269003-.3364563.3364563-.3364563h.66042074c.18581968 0 .3364563.1426901.3364563.3364563v.6604208c0 .1858197-.14269003.3364563-.3364563.3364563h-.66042074c-.18581968 0-.3364563-.1426901-.3364563-.3364563v-.6604208zm1.33333334-1.3333333c0-.1858197.14269002-.3364563.3364563-.3364563h.66042073C3.84936338 16 4 16.14269 4 16.3364563v.6604207c0 .1858197-.14269002.3364563-.3364563.3364563h-.66042073c-.18581969 0-.3364563-.14269-.3364563-.3364563v-.6604207zm0-2.6666667c0-.1858197.14269002-.3364563.3364563-.3364563h.66042073c.18581968 0 .3364563.1426901.3364563.3364563v.6604208c0 .1858197-.14269002.3364563-.3364563.3364563h-.66042073c-.18581969 0-.3364563-.1426901-.3364563-.3364563v-.6604208zm0-2.6666666c0-.1858197.14269002-.3364563.3364563-.3364563h.66042073c.18581968 0 .3364563.14269.3364563.3364563v.6604207C4 11.8493634 3.85730998 12 3.6635437 12h-.66042073c-.18581969 0-.3364563-.14269-.3364563-.3364563v-.6604207zm0-2.6666667c0-.18581968.14269002-.3364563.3364563-.3364563h.66042073C3.84936338 8 4 8.14269002 4 8.3364563v.66042073c0 .18581969-.14269002.3364563-.3364563.3364563h-.66042073c-.18581969 0-.3364563-.14269002-.3364563-.3364563V8.3364563zm0-2.66666667c0-.18581968.14269002-.3364563.3364563-.3364563h.66042073c.18581968 0 .3364563.14269003.3364563.3364563v.66042074c0 .18581968-.14269002.3364563-.3364563.3364563h-.66042073c-.18581969 0-.3364563-.14269003-.3364563-.3364563v-.66042074zm0-2.66666666c0-.18581969.14269002-.3364563.3364563-.3364563h.66042073c.18581968 0 .3364563.14269002.3364563.3364563v.66042073C4 3.84936338 3.85730998 4 3.6635437 4h-.66042073c-.18581969 0-.3364563-.14269002-.3364563-.3364563v-.66042073z" mask="url(#KZb)"></path></g></svg>