<svg class="SVGInline-svg" xmlns="http://www.w3.org/2000/svg" xmlns:xlink="http://www.w3.org/1999/xlink" width="28" height="20"><defs><rect id="PFa" width="28" height="20" x="0" y="0" rx="0"></rect><circle id="PFc" cx="3.33333333" cy="3.33333333" r="3.33333333"></circle></defs><g fill="none" fill-rule="evenodd"><mask id="PFb" fill="#fff"><use xlink:href="#PFa"></use></mask><rect width="27.5" height="19.5" x=".25" y=".25" rx="2"></rect><path fill="#D82332" d="M0 0h28v5.33333333H0zM0 14.6666667h28v5.33333333H0z" mask="url(#PFb)"></path><g mask="url(#PFb)"><path fill="#064A89" d="M13.06751356 10.75268851l-.28444444.26526881c.25714285.07215054.61386243-.01182795.75587301-.26526881h-.47142857M10.772487106 10.93340191c.192486772.19247312.511322751.17.703809524.04817204.19259259-.12193548.33407407-.12967742.45407407-.11688172.01269842.10860215.0410582.24784946.08973545.38548387h-1.141904758c-.028359789-.07053763-.083703704-.23494624-.105714286-.31677419M10.984127317 11.44779182c.224126985-.10591398.453227514-.02193549.552380953.0544086.18306878.14118279.48550265.10290322.63386243.0227957.05661376.09236559.12539683.1832258.20835979.25258064h-1.22179894c-.049629629-.08010752-.156931217-.27698924-.172804233-.32978494M16.29809557 12.32489488c.0536508-.05451613.12624339-.14430108.1736508-.2083871-.0789418-.00967742-.17068784-.06677419-.26825397-.11548387-.18-.08989247-.35195768-.08989247-.50507937.0160215-.22719577.15709678-.51132275.1955914-.73227513.03849463-.24243386-.17247312-.46708995-.13473119-.65650794-.0255914-.18941799.10892473-.30931217.11537634-.42296296.11537634s-.23354497-.00645161-.42296296-.11537634c-.18941799-.10913979-.41407408-.14688172-.65650794.0255914-.22095238.15709677-.50507936.11860215-.73227513-.03849463-.15312169-.10591397-.32507937-.10591397-.505079367-.0160215-.097671957.04870968-.189312169.10580645-.268253968.11548387.047407407.06408602.12.15387097.173650794.2083871h4.822857141M15.706667 12.86118313c.05047619-.03204301.18941799-.13784946.25883598-.19236559-.0757672.0160215-.24846561-.04021506-.33767196-.08666667-.2589418-.13473118-.42931217-.12182796-.62179894-.01924731-.19259259.10268817-.46402116.1572043-.66285714.04817204-.19883598-.10903226-.34095238-.13795699-.44507937-.13795699-.10412698 0-.24624338.02892473-.44507936.13795699-.19883598.10903226-.47026455.05451613-.66285715-.04817204-.19248677-.10258065-.36285714-.11548387-.62179894.01924731-.08920635.04645161-.26190476.10268817-.33767196.08666667.06941799.05451613.20835979.16032258.25883598.19236559H15.706667M14.56836012 11.7950541c-.05365079-.02881721-.11640211-.09602151-.17365079-.18225807-.09153439-.13795699-.23671958-.21494623-.45449736-.21494623-.21777777 0-.36296296.07698924-.45449735.21494623-.05724868.08623656-.12.15344086-.17354497.18225807h1.25619047M14.2103707 11.29989281c-.0221164-.03849463-.06941799-.16043011-.08518518-.22462366-.05058201.01612903-.14835979.02247312-.20518519.02247312-.05682539 0-.15460317-.00634409-.20518518-.02247312-.0157672.06419355-.06306878.18612903-.08518519.22462366h.58074074M14.73597917 10.75268851l.28444444.26526881c-.25714285.07215054-.61386243-.01182795-.75587301-.26526881h.47142857M17.09947123 10.93340191c-.19248677.19247312-.51132275.17-.70380952.04817204-.19259259-.12193548-.33407408-.12967742-.45407408-.11688172-.01280423.10860215-.0410582.24784946-.08973544.38548387h1.14190476c.02835979-.07053763.08359788-.23494624.10571428-.31677419M16.92899504 11.44779182c-.22412698-.10591398-.45322751-.02193549-.55238095.0544086-.18306878.14118279-.48550265.10290322-.63386243.0227957-.05661376.09236559-.12539683.1832258-.20835979.25258064h1.22179894c.04962963-.08010752.15703704-.27698924.17280423-.32978494M15.15883631 13.07156415c-.38275132.15870967-.8015873.24634408-1.2405291.24634408-.43936508 0-.85798942-.08752688-1.2410582-.24655914.08201058-.00956989.19068783-.04978494.27830688-.09935484.1421164-.08021505.40084656-.09623656.52402116-.0160215.12306879.08021505.27142857.16032258.43873016.16032258s.31566138-.08010753.43873016-.16032258c.12306878-.08021506.38190476-.06419355.52402116.0160215.08751323.0495699.19566138.09.27777778.0995699"></path><path fill="#514537" d="M14.62518552 6.7269220439c-.69121693-.1443010752-1.31301587-.0609677419-1.31301587.5997849461v1.80892473c0 .19881721.00391534.2239785.23671957.27903226.50497355.11946237.55227513.13150538 1.10148148.25967742V7.81423387c-.42920635-.04817204-.59333333-.292903224-.59333333-.577311826 0-.275806452.18931217-.455483871.56814815-.5100000001M12.85387292 11.82849496c-.38507937 0-.78910053-.34-.78910053-.98784947V9.23053797c0-.14591398.01619048-.16645162-.0173545-.20043011-.01968254-.02.0221164-.04967742.05047619-.07860215.04264551-.04333333.07185186-.07935484.01428572-.13795699-.05767196-.05849462-.0331217-.07376344.0031746-.11053763.0362963-.03698925.05047619-.07376344.0157672-.10913979-.034709-.03526882-.04264551-.04645161-.00476191-.08494624.0378836-.03849462.0221164-.05451612-.00941799-.08666666-.03164021-.03204301-.04656084-.05526882-.0063492-.09612903.0394709-.04010753.04253968-.04655914.08835978-.04655914h.18941799c.04423281 0 .04497355.01365591.00783069.05139785-.04814815.0488172-.06232804.06806451-.00783069.12344086.05439154.05526881.0520635.07376344.0173545.10903225-.05216931.05290323-.07502645.08903226-.0221164.1427957.05291005.05365592.05756614.07774194.0173545.11860215-.04021164.04086022-.04423281.07698925 0 .12182796.03396825.03451613.03629629.05462366.03629629.11548387v1.64376344c0 .27580645.19566138.44258065.56814815.44258065.37248677 0 .49873016-.1539785.60603175-.25655914-.06941799.49387096-.27142857.93655914-.75756614.93655914M13.94066871 10.25494657c.05206349.01591398.10253968.09290323.10253968.17634409h.10264551c0-.07053764-.03005291-.1795699-.08444445-.24698925-.00084656-.01763441-.0031746-.0327957-.00708994-.04806452.03788359-.04817204.09312169-.12516129.09153439-.19892473-.0010582-.04655914-.0552381-.04483871-.0615873-.00795699-.00518519.03032258-.02518519.07698925-.06306879.09301075 0-.05935483-.03322751-.12989247-.0805291-.12989247-.04730158 0-.0805291.07053764-.0805291.12989247-.0378836-.0160215-.0578836-.06268817-.06306878-.09301075-.00634921-.03688172-.06063492-.03860215-.0615873.00795699-.0015873.07376344.05365079.15075269.09153439.19892473-.00391535.01526882-.00624339.03043011-.00708995.04806452-.05439153.06741935-.08444444.17645161-.08444444.24698925h.1026455c0-.08344086.05047619-.16043011.10253968-.17634409"></path><path fill="#514537" d="M13.41156818 10.25494657c.0520635.01591398.10264551.09290323.10264551.17634409h.10253968c0-.07053764-.02994709-.1795699-.08444445-.24698925-.00074074-.01763441-.0031746-.0327957-.00708994-.04806452.03788359-.04817204.09312169-.12516129.09153439-.19892473-.00095238-.04655914-.0552381-.04483871-.0615873-.00795699-.00518519.03032258-.02529101.07698925-.06306879.09301075 0-.05935483-.03312169-.12989247-.0805291-.12989247-.04730158 0-.08042328.07053764-.08042328.12989247-.0378836-.0160215-.05798942-.06268817-.0631746-.09301075-.00634921-.03688172-.0605291-.03860215-.0615873.00795699-.0015873.07376344.05365079.15075269.09153439.19892473-.00391534.01526882-.00624339.03043011-.00708995.04806452-.05439153.06741935-.08444444.17645161-.08444444.24698925h.1026455c0-.08344086.05047619-.16043011.10253968-.17634409M12.88246765 10.25494657c.0520635.01591398.10253969.09290323.10253969.17634409h.1026455c0-.07053764-.03005291-.1795699-.08444445-.24698925-.00084656-.01763441-.0031746-.0327957-.00708994-.04806452.0378836-.04817204.09312169-.12516129.09153439-.19892473-.0010582-.04655914-.0552381-.04483871-.0615873-.00795699-.00518519.03032258-.02529101.07698925-.06317461.09301075 0-.05935483-.03312169-.12989247-.08042328-.12989247-.0474074 0-.0805291.07053764-.0805291.12989247-.03788359-.0160215-.05788359-.06268817-.06306878-.09301075-.00634921-.03688172-.06063492-.03860215-.0615873.00795699-.0015873.07376344.05365079.15075269.09153439.19892473-.00391534.01526882-.00634921.03043011-.00708995.04806452-.05449735.06741935-.08444444.17645161-.08444444.24698925h.10253968c0-.08344086.05058201-.16043011.1026455-.17634409M14.46976924 10.25494657c-.05206349.01591398-.10253968.09290323-.10253968.17634409h-.1026455c0-.07053764.02994709-.1795699.08444444-.24698925.00074074-.01763441.0031746-.0327957.00719577-.04806452-.03798942-.04817204-.09322752-.12516129-.09164021-.19892473.0010582-.04655914.05523809-.04483871.0615873-.00795699.00518518.03032258.025291.07698925.06306878.09301075 0-.05935483.03322751-.12989247.0805291-.12989247.04740741 0 .0805291.07053764.0805291.12989247.03777778-.0160215.0578836-.06268817.06306878-.09301075.00634921-.03688172.06052911-.03860215.06158731.00795699.0015873.07376344-.0536508.15075269-.0915344.19892473.00391535.01526882.00634921.03043011.00708995.04806452.05449736.06741935.08444445.17645161.08444445.24698925h-.10264551c0-.08344086-.05047619-.16043011-.10253968-.17634409M14.99886977 10.25494657c-.05206349.01591398-.10253968.09290323-.10253968.17634409h-.1026455c0-.07053764.03005291-.1795699.08444444-.24698925.00084656-.01763441.0031746-.0327957.00708995-.04806452-.0378836-.04817204-.0931217-.12516129-.09153439-.19892473.00095238-.04655914.05523809-.04483871.0615873-.00795699.00518518.03032258.02518518.07698925.06306878.09301075 0-.05935483.03322751-.12989247.0805291-.12989247.04740741 0 .0805291.07053764.0805291.12989247.0378836-.0160215.0578836-.06268817.06306878-.09301075.00634921-.03688172.0605291-.03860215.06158731.00795699.0015873.07376344-.0536508.15075269-.0915344.19892473.00391535.01526882.00624339.03043011.00708995.04806452.05449736.06741935.08444445.17645161.08444445.24698925h-.10253969c0-.08344086-.05058201-.16043011-.1026455-.17634409M12.5714289 10.53763474h2.77756614v.13333334H12.5714289z"></path><path fill="#514537" d="M15.02211674 11.82849496c.38507936 0 .78910052-.34.78910052-.98784947V9.23053797c0-.14591398-.01619047-.16645162.0173545-.20043011.01968254-.02-.0221164-.04967742-.05047619-.07860215-.0426455-.04333333-.07185185-.07935484-.01428571-.13795699.05767195-.05849462.03312169-.07376344-.00306879-.11053763-.03640211-.03698925-.05058201-.07376344-.01587301-.10913979.03470899-.03526882.0426455-.04645161.0047619-.08494624-.03788359-.03849462-.0221164-.05451612.00941799-.08666666.03164021-.03204301.04656085-.05526882.00634921-.09612903-.0394709-.04010753-.04253968-.04655914-.08835979-.04655914h-.18941799c-.04412698 0-.04497354.01365591-.00783069.05139785.04814815.0488172.06232805.06806451.00783069.12344086-.05439153.05526881-.05206349.07376344-.0173545.10903225.05216932.05290323.07492064.08903226.02211641.1427957-.05291006.05365592-.05767196.07774194-.0173545.11860215.04021164.04086022.0442328.07698925 0 .12182796-.03396826.03451613-.0362963.05462366-.0362963.11548387v1.64376344c0 .27580645-.19576719.44258065-.56814815.44258065-.37248677 0-.49862433-.1539785-.60603174-.25655914.06941799.49387096.27142857.93655914.75756614.93655914"></path><path fill="#EEA339" d="M12.5714289 9.67430141s.00010582-.09462366.00010582-.21193549l.5552381.21204302-.55534392-.00010753M11.90910086 9.77279603L10.666667 9.60258098c.0360846561-.27053764.104338624-.53430108.202539683-.78537635l1.039894177.41946237v.53612903M14.47619081 7.69591431l.22084656-.921720428c.2584127.063655914.50962963.159569892.74772487.286021505l-.71227513 1.385376343.00253968-.6955914c-.08222222.00043011-.20835979-.01236559-.25883598-.05408602M11.93840648 9.86301109l-1.265608463-.07806452c-.0162962963.26967742-.0001058201.54182796.0485714286.81032258 0 0 1.2170370344.00774194 1.2170370344 0v-.73225806M11.92582044 8.99559173c-.04095238-.05451613-.01566138-.08354839.02846561-.11247312.0442328-.0288172.0378836-.05129032.01587301-.09290322-.0221164-.04172043-.0442328-.08666667-.0031746-.13150538.0410582-.04494624.02518519-.06419355-.00634921-.09623656-.03153439-.03204301-.03470899-.06731183-.0063492-.09301075.02846561-.02569893.0221164-.04494624.00328042-.07053764-.01904762-.02569892-.05619048-.07774193-.02296296-.11139784l-.516296298-.43806452c-.170582011.20731183-.316613757.43612903-.434179895.68150538l.941693123.46462365M13.16275166 9.23440894l-.61534392-.60634409c.08677249-.08817204.09544974-.10258065.03396825-.16516129-.06708994-.06817204-.0695238-.07526882.06698413-.21408602.04656085-.0472043.0205291-.08021506-.04571428-.08021506h-.40560847c-.03470899 0-.06201058.00182796-.08740741.02763441l-.490582008-.48258064c.187195768-.195806454.396296298-.366666669.622116398-.509354841l.92158731 1.505913981v.52419355M12.52276983 9.326667c0-.15064516.00010582-.29978495.00010582-.32096774 0-.04494624-.00317461-.06258065-.0378836-.09784946-.034709-.03526882-.0173545-.05215054.00952381-.09064517l.5837037.49408603v.29010752l-.55544973-.27473118M13.06952414 8.44634442v-.7111828c0-.461827953.02550265-.692795695.09174603-.739247308l-.05301587-.22172043c-.25915344.070860215-.51037037.166774193-.74846561.293225806l.70973545 1.378924732M15.34899504 9.67430141s-.00010582-.09462366-.00010582-.21193549l-.55523809.21204302.55534391-.00010753M15.95767229 9.77279603l1.24243386-.17021505c-.03608465-.27053764-.10433862-.53430108-.20253968-.78537635l-1.03989418.41946237v.53612903M15.95767229 9.86301109l1.26550265-.07806452c.01629629.26967742.00021164.54182796-.04857143.81032258 0 0-1.21693122.00774194-1.21693122 0v-.73225806M15.91768419 8.99559173c.0410582-.05451613.01566138-.08354839-.0284656-.11247312-.04423281-.0288172-.0378836-.05129032-.01587302-.09290322.0221164-.04172043.0442328-.08666667.0031746-.13150538-.0410582-.04494624-.02518518-.06419355.00634921-.09623656s.03470899-.06731183.00634921-.09301075c-.02846561-.02569893-.02211641-.04494624-.00328043-.07053764.01904762-.02569892.05608466-.07774193.02296296-.11139784l.5162963-.43806452c.17058201.20731183.31650794.43612903.43407408.68150538l-.94158731.46462365M14.79365113 9.23440894l.61534391-.60634409c-.0868783-.08817204-.09555555-.10258065-.03396825-.16516129.06708995-.06817204.06952381-.07526882-.06698413-.21408602-.04666667-.0472043-.0205291-.08021506.04571429-.08021506h.40560846c.034709 0 .06201058.00182796.08740741.02763441l.49058201-.48258064c-.18719577-.195806454-.3962963-.366666669-.6221164-.509354841l-.9215873 1.505913981v.52419355M15.34910086 9.326667c0-.15064516-.00010582-.29978495-.00010582-.32096774 0-.04494624.00317461-.06258065.0378836-.09784946.03470899-.03526882.0173545-.05215054-.00952381-.09064517l-.5837037.49408603v.29010752l.55544973-.27473118"></path><path fill="#D82332" d="M12.14814848 9.0322584c.0221164.02247312.03164021.04483871.03164021.09935484v1.71591398c0 .57086021.34084656.88838709.69121693.88838709.32190477 0 .53343916-.29827957.64391535-.64462365-.14201058.11225806-.35037037.14752688-.54931217.14752688-.23037037 0-.60275132-.15709678-.60275132-.49709678V9.07709711c0-.04483871-.04423281-.04483871-.214709-.04483871M14.16104315 6.784039473c-.44010582-.0452688173-.84835978.047741935-.84835978.657849462V9.06285668c0 .27064516-.02095239.23849462.2047619.29537634.40952381.10322581.45597884.11634409.95269841.2316129V7.94059861c-.42412698-.0472043-.60793651-.329462363-.60793651-.642043008 0-.248709678.10814815-.482795699.29883598-.514516129M15.73714319 9.0322584c-.0221164.02247312-.03164021.04483871-.03164021.09935484v1.71591398c0 .57086021-.34084656.88838709-.69121693.88838709-.32190476 0-.53343916-.29827957-.64391535-.64462365.14211641.11225806.35037037.14752688.54931217.14752688.23037037 0 .60275133-.15709678.60275133-.49709678V9.07709711c0-.04483871.0442328-.04483871.21470899-.04483871"></path><g transform="translate(10.666667 6.666667)"><mask id="PFd" fill="#fff"><use xlink:href="#PFc"></use></mask><circle cx="3.33333333" cy="8.66666667" r="3.33333333" fill="#064A89" mask="url(#PFd)"></circle></g></g></g></svg>