<svg  xmlns="http://www.w3.org/2000/svg" xmlns:xlink="http://www.w3.org/1999/xlink" width="28" height="20"><defs><rect id="GBa" width="28" height="20" x="0" y="0" rx="0"></rect></defs><g fill="none" fill-rule="evenodd"><mask id="GBb" fill="#fff"><use xlink:href="#GBa"></use></mask><use fill="#FFF" xlink:href="#GBa"></use><path fill="#0A17A7" d="M0 0h28v20H0z" mask="url(#GBb)"></path><path fill="#FFF" d="M6.67374124 13.3333333H0V6.66666667h6.67374124L-2.77365027.29432063l1.49118107-2.21076686 11.9491359 8.05979391v-7.47668101h6.6666666v7.47668101l11.9491359-8.05979391L30.7736503.29432063l-9.4473915 6.37234604H28v6.66666663h-6.6737412l9.4473915 6.3723461-1.4911811 2.2107668-11.9491359-8.0597939v7.476681h-6.6666666v-7.476681l-11.9491359 8.0597939-1.49118107-2.2107668 9.44739151-6.3723461z" mask="url(#GBb)"></path><path stroke="#DB1F35" stroke-linecap="round" stroke-width=".666666667" d="M18.6679688 6.33219401L31.3333333-2" mask="url(#GBb)"></path><path stroke="#DB1F35" stroke-linecap="round" stroke-width=".666666667" d="M20.0127767 21.3503418l11.3538411-7.652832" mask="url(#GBb)" transform="matrix(1 0 0 -1 0 35.047852)"></path><path stroke="#DB1F35" stroke-linecap="round" stroke-width=".666666667" d="M8.00553385 6.31046549L-3.83748372-1.67097982" mask="url(#GBb)"></path><path stroke="#DB1F35" stroke-linecap="round" stroke-width=".666666667" d="M9.29003906 22.3104655l-13.12752278-8.7055664" mask="url(#GBb)" transform="matrix(1 0 0 -1 0 35.915364)"></path><path fill="#E6273E" d="M0 12h12v8h4v-8h12V8H16V0h-4v8H0z" mask="url(#GBb)"></path></g></svg>