<svg class="SVGInline-svg" xmlns="http://www.w3.org/2000/svg" xmlns:xlink="http://www.w3.org/1999/xlink" width="28" height="20"><defs><rect id="AZa" width="28" height="20" x="0" y="0" rx="0"></rect><path id="AZd" d="M15.1114252 8.33699899C15.0745975 8.33456805 15.037443 8.33333333 15 8.33333333c-.9204746 0-1.6666667.74619209-1.6666667 1.66666667 0 .9204746.7461921 1.6666667 1.6666667 1.6666667.037443 0 .0745975-.0012348.1114252-.0036657C14.7935634 11.8758579 14.4112792 12 14 12c-1.1045695 0-2-.8954305-2-2s.8954305-2 2-2c.4112792 0 .7935634.12414214 1.1114252.33699899zm.2219081 2.32966771c-.3681898 0-.6666666-.2984769-.6666666-.6666667 0-.36818983.2984768-.66666667.6666666-.66666667C15.7015232 9.33333333 16 9.63181017 16 10c0 .3681898-.2984768.6666667-.6666667.6666667z"></path><filter id="AZc" width="125%" height="150%" x="-12.5%" y="-12.5%" filterUnits="objectBoundingBox"><feOffset dy="1" in="SourceAlpha" result="shadowOffsetOuter1"></feOffset><feColorMatrix in="shadowOffsetOuter1" values="0 0 0 0 0 0 0 0 0 0 0 0 0 0 0 0 0 0 0.06 0"></feColorMatrix></filter></defs><g fill="none" fill-rule="evenodd"><mask id="AZb" fill="#fff"><use xlink:href="#AZa"></use></mask><use fill="#FFF" xlink:href="#AZa"></use><path fill="#24AAD5" d="M0 0h28v6.66666667H0z" mask="url(#AZb)"></path><path fill="#21BF75" d="M0 13.3333333h28v6.66666667H0z" mask="url(#AZb)"></path><path fill="#ED1845" d="M0 6.66666667h28v6.66666667H0z" mask="url(#AZb)"></path><g mask="url(#AZb)"><use fill="#000" filter="url(#AZc)" xlink:href="#AZd"></use><use fill="#FFF" xlink:href="#AZd"></use></g></g></svg>