<svg class="SVGInline-svg" xmlns="http://www.w3.org/2000/svg" xmlns:xlink="http://www.w3.org/1999/xlink" width="28" height="20"><defs><rect id="BRa" width="28" height="20" x="0" y="0" rx="0"></rect><circle id="BRc" cx="4.66666667" cy="4.66666667" r="4.66666667"></circle></defs><g fill="none" fill-rule="evenodd"><mask id="BRb" fill="#fff"><use xlink:href="#BRa"></use></mask><use fill="#FFF" xlink:href="#BRa"></use><path fill="#05AB41" d="M0 0h28v20H0z" mask="url(#BRb)"></path><path fill="#FDD216" d="M3.22868843 10.3636611c-.31039605-.2008445-.30401527-.53060648 0-.72732224L13.4379782 3.03032781c.3103961-.2008445.8200283-.19671577 1.1240436 0l10.2092898 6.60601105c.310396.2008445.3040152.53060654 0 .72732224l-10.2092898 6.6060111c-.3103961.2008445-.8200283.1967158-1.1240436 0L3.22868843 10.3636611z" mask="url(#BRb)"></path><g mask="url(#BRb)"><g transform="translate(9.333333 5.333333)"><mask id="BRd" fill="#fff"><use xlink:href="#BRc"></use></mask><use fill="#053087" xlink:href="#BRc"></use><path stroke="#FFF" stroke-linecap="square" stroke-width="1.33333333" d="M-.666666667 4C0 3.33333336 2.41015625 3.64518235 4.66666667 4.00000001 6.92317708 4.35481767 9.34145555 5.34145565 10 6" mask="url(#BRd)" transform="rotate(6 4.666667 4.804198)"></path></g></g></g></svg>