<svg class="SVGInline-svg" xmlns="http://www.w3.org/2000/svg" xmlns:xlink="http://www.w3.org/1999/xlink" width="28" height="20"><defs><rect id="AIa" width="28" height="20" x="0" y="0" rx="0"></rect><path id="AIc" d="M0 3.33333333V0l1.33333333.666666667L2.66666667 0 4 .666666667 5.33333333 0v3.33333333c0 2-2.66666666 3.33333334-2.66666666 3.33333334S0 5.33333333 0 3.33333333z"></path><linearGradient id="AIe" x1="50%" x2="50%" y1="0%" y2="100%"><stop offset="0%" stop-color="#FFA51B"></stop><stop offset="100%" stop-color="#FF9A00"></stop></linearGradient></defs><g fill="none" fill-rule="evenodd"><mask id="AIb" fill="#fff"><use xlink:href="#AIa"></use></mask><use fill="#FFF" xlink:href="#AIa"></use><path fill="#0A17A7" d="M0 0h28v20H0z" mask="url(#AIb)"></path><g mask="url(#AIb)"><g transform="translate(17.333333 6.666667)"><mask id="AId" fill="#fff"><use xlink:href="#AIc"></use></mask><use fill="#FFF" xlink:href="#AIc"></use><path fill="#9ACCFF" d="M0 5.33333333h5.33333333v1.33333333H0z" mask="url(#AId)"></path><path fill="url(#AIe)" d="M2.66666667 2.66666667C2.29847683 2.66666667 2 2.36818983 2 2s.29847683-.66666667.66666667-.66666667c.36818983 0 .66666666.29847684.66666666.66666667s-.29847683.66666667-.66666666.66666667zM1.33333333 4C.9651435 4 .666666667 3.70152317.666666667 3.33333333c0-.36818983.298476833-.66666666.666666663-.66666666C1.70152317 2.66666667 2 2.9651435 2 3.33333333 2 3.70152317 1.70152317 4 1.33333333 4zM4 4c-.36818983 0-.66666667-.29847683-.66666667-.66666667 0-.36818983.29847684-.66666666.66666667-.66666666s.66666667.29847683.66666667.66666666C4.66666667 3.70152317 4.36818983 4 4 4z" mask="url(#AId)"></path></g></g><path fill="#FF2E3B" stroke="#FFF" stroke-width=".666666667" d="M4.33333333 4.15331164L-.901085803-.333333333h1.56775247l.193746064.062088843L5.44015502 3h1.1309129L12.3333333-.601415881v.934749214c0 .295645035-.1705232.626674936-.4175331.803110567L7.66666667 4.1715393v1.00848239l4.29936353 3.68516874c.3766735.32286301.184941.80147624-.2993635.80147624-.2574482 0-.5890636-.10636322-.8050253-.26062159L6.55984498 6.33333333h-1.1309129L-.333333333 9.93474921V8.49512737L4.33333333 5.16179403V4.15331164z" mask="url(#AIb)"></path><path fill="#FFF" d="M0 3.33333333V6h4.66666667v3.33948135c0 .36479438.30590057.66051865.67291259.66051865h1.32084148c.37163936 0 .67291259-.30065012.67291259-.66051865V6h4.65786297c.373052 0 .6754704-.30590057.6754704-.6729126V4.00624593c0-.37163936-.3020242-.6729126-.6754704-.6729126H7.33333333V0H4.66666667v3.33333333H0z" mask="url(#AIb)"></path><path fill="#FF2E3B" d="M0 4h5.33333333V0h1.33333334v4H12v1.33333333H6.66666667v4H5.33333333v-4H0z" mask="url(#AIb)"></path></g></svg>