<svg class="SVGInline-svg" xmlns="http://www.w3.org/2000/svg" xmlns:xlink="http://www.w3.org/1999/xlink" width="28" height="20"><defs><rect id="GEa" width="28" height="20" x="0" y="0" rx="0"></rect></defs><g fill="none" fill-rule="evenodd"><mask id="GEb" fill="#fff"><use xlink:href="#GEa"></use></mask><rect width="27.5" height="19.5" x=".25" y=".25" rx="2"></rect><path fill="#FF2B37" d="M12 8v-9.33333333h4V8h13.3333333v4H16v9.3333333h-4V12H-1.33333333V8H12z" mask="url(#GEb)"></path><path fill="#FD0D1B" d="M21.6 3.6L21.3333333 2h1.3333334L22.4 3.6l1.6-.26666667v1.33333334L22.4 4.4l.2666667 1.6h-1.3333334L21.6 4.4l-1.6.26666667V3.33333333L21.6 3.6zM5.6 3.6L5.33333333 2h1.33333334L6.4 3.6 8 3.33333333v1.33333334L6.4 4.4 6.66666667 6H5.33333333L5.6 4.4 4 4.66666667V3.33333333L5.6 3.6zM5.6 15.6L5.33333333 14h1.33333334L6.4 15.6l1.6-.2666667v1.3333334L6.4 16.4l.26666667 1.6H5.33333333L5.6 16.4l-1.6.2666667v-1.3333334L5.6 15.6zM21.6 15.6l-.2666667-1.6h1.3333334L22.4 15.6l1.6-.2666667v1.3333334L22.4 16.4l.2666667 1.6h-1.3333334L21.6 16.4l-1.6.2666667v-1.3333334L21.6 15.6z" mask="url(#GEb)"></path></g></svg>