<svg class="SVGInline-svg" xmlns="http://www.w3.org/2000/svg" xmlns:xlink="http://www.w3.org/1999/xlink" width="28" height="20"><defs><rect id="BAa" width="28" height="20" x="0" y="0" rx="0"></rect><path id="BAd" d="M22.6666667 20V0H8.66666667z"></path><filter id="BAc" width="128%" height="125.9%" x="-17.3%" y="-7.5%" filterUnits="objectBoundingBox"><feMorphology in="SourceAlpha" operator="dilate" radius=".5" result="shadowSpreadOuter1"></feMorphology><feOffset in="shadowSpreadOuter1" result="shadowOffsetOuter1"></feOffset><feColorMatrix in="shadowOffsetOuter1" values="0 0 0 0 0 0 0 0 0 0 0 0 0 0 0 0 0 0 0.06 0"></feColorMatrix></filter></defs><g fill="none" fill-rule="evenodd"><mask id="BAb" fill="#fff"><use xlink:href="#BAa"></use></mask><use fill="#FFF" xlink:href="#BAa"></use><path fill="#0B36B2" d="M0 0h28v20H0z" mask="url(#BAb)"></path><g mask="url(#BAb)"><use fill="#000" filter="url(#BAc)" xlink:href="#BAd"></use><use fill="#FFD045" xlink:href="#BAd"></use></g><path fill="#FFF" d="M17.3333333 18.6666667l-.942809.2761423L16.6666667 18l-.2761424-.942809.942809.2761423.9428091-.2761423L18 18l.2761424.942809zM14.6666667 14.6666667l-.9428091.2761423L14 14l-.2761424-.942809.9428091.2761423.942809-.2761423L15.3333333 14l.2761424.942809zM12 10.6666667l-.942809.2761423L11.3333333 10l-.2761423-.94280904L12 9.33333333l.942809-.27614237L12.6666667 10l.2761423.942809zM9.33333333 6.66666667l-.94280904.27614237L8.66666667 6l-.27614238-.94280904.94280904.27614237.94280907-.27614237L10 6l.2761424.94280904zM6.66666667 2.66666667l-.94280904.27614237L6 2l-.27614237-.94280904.94280904.27614237.94280904-.27614237L7.33333333 2l.27614238.94280904z" mask="url(#BAb)"></path></g></svg>