<svg class="SVGInline-svg" xmlns="http://www.w3.org/2000/svg" xmlns:xlink="http://www.w3.org/1999/xlink" width="28" height="20"><defs><rect id="DOa" width="28" height="20" x="0" y="0" rx="0"></rect></defs><g fill="none" fill-rule="evenodd"><mask id="DOb" fill="#fff"><use xlink:href="#DOa"></use></mask><rect width="27.5" height="19.5" x=".25" y=".25" rx="2"></rect><path fill="#083D7A" d="M0 0h12v8H0zM16 12h12v8H16z" mask="url(#DOb)"></path><path fill="#DF1E35" d="M0 12h12v8H0zM16 0h12v8H16z" mask="url(#DOb)"></path><path stroke="#0F6D1A" stroke-width=".666666667" d="M13.8671466 8.33855108c-.8583617.06769525-1.5338133.785692-1.5338133 1.66144892 0 .9204746.7461921 1.6666667 1.6666667 1.6666667.8757569 0 1.5937537-.6754516 1.6614489-1.5338133l-1.7943023-1.79430232z" mask="url(#DOb)" transform="rotate(-45 14 10)"></path><circle cx="14" cy="10" r="1" fill="#042F60" mask="url(#DOb)"></circle></g></svg>