<svg class="SVGInline-svg" xmlns="http://www.w3.org/2000/svg" xmlns:xlink="http://www.w3.org/1999/xlink" width="28" height="20"><defs><rect id="SVa" width="28" height="20" x="0" y="0" rx="0"></rect><linearGradient id="SVc" x1="50%" x2="50%" y1="0%" y2="100%"><stop offset="0%" stop-color="#3C7839"></stop><stop offset="100%" stop-color="#31642E"></stop></linearGradient></defs><g fill="none" fill-rule="evenodd"><mask id="SVb" fill="#fff"><use xlink:href="#SVa"></use></mask><rect width="27.5" height="19.5" x=".25" y=".25" rx="2"></rect><path fill="#1B57C4" d="M0 0h28v6.66666667H0zM0 13.3333333h28v6.66666667H0z" mask="url(#SVb)"></path><path fill="url(#SVc)" d="M12.3999479 7.86651047l.9333854 2.80015623h1.3333334l.9333854-2.80015623C16.2477274 8.35302292 16.6666667 9.1275872 16.6666667 10c0 1.4727593-1.1939074 2.6666667-2.6666667 2.6666667-1.4727593 0-2.6666667-1.1939074-2.6666667-2.6666667 0-.8724128.4189393-1.64697708 1.0666146-2.13348953z" mask="url(#SVb)"></path><path fill="#F9C92E" d="M14 7.33333333l.6666667 3.33333337h-1.3333334z" mask="url(#SVb)"></path></g></svg>