<svg class="SVGInline-svg" xmlns="http://www.w3.org/2000/svg" xmlns:xlink="http://www.w3.org/1999/xlink" width="28" height="20"><defs><rect id="KHa" width="28" height="20" x="0" y="0" rx="0"></rect></defs><g fill="none" fill-rule="evenodd"><mask id="KHb" fill="#fff"><use xlink:href="#KHa"></use></mask><use fill="#FFF" xlink:href="#KHa"></use><path fill="#0F3EB6" d="M0 0h28v5.33333333H0zM0 14.6666667h28v5.33333333H0z" mask="url(#KHb)"></path><path fill="#ED1A3C" d="M0 5.33333333h28v9.33333333H0z" mask="url(#KHb)"></path><path fill="#FFF" d="M10 10.6666667h1.3333333v2.6666666H8.66666667L10 10.6666667zm2 0h4v2.6666666h-4v-2.6666666zm4.6666667 0H18l1.3333333 2.6666666h-2.6666666v-2.6666666zm0-2.00069566c0-.36780565.2959098-.66597104.6666666-.66597104C17.7015232 8 18 8.29510689 18 8.66597104V10h-1.3333333V8.66597104zM12 8.72721354h1.3333333V7.997615c0-.36687263.2959099-.66428167.6666667-.66428167.3681898 0 .6666667.29560614.6666667.66428167v.72959854H16V10h-4V8.72721354zm-2-.0612425C10 8.29816539 10.2959099 8 10.6666667 8c.3681898 0 .6666666.29510689.6666666.66597104V10H10V8.66597104z" mask="url(#KHb)"></path></g></svg>