<svg class="SVGInline-svg" xmlns="http://www.w3.org/2000/svg" xmlns:xlink="http://www.w3.org/1999/xlink" width="28" height="20"><defs><rect id="HTa" width="28" height="20" x="0" y="0" rx="0"></rect><linearGradient id="HTd" x1="50%" x2="50%" y1="0%" y2="100%"><stop offset="0%" stop-color="#FFF"></stop><stop offset="100%" stop-color="#F0F0F0"></stop></linearGradient><rect id="HTc" width="9.33333333" height="8" x="0" y="0" rx=".666666667"></rect></defs><g fill="none" fill-rule="evenodd"><mask id="HTb" fill="#fff"><use xlink:href="#HTa"></use></mask><use fill="#FFF" xlink:href="#HTa"></use><path fill="#112EBC" d="M0 0h28v9.33333333H0z" mask="url(#HTb)"></path><path fill="#E3264A" d="M0 9.33333333h28v10.6666667H0z" mask="url(#HTb)"></path><g mask="url(#HTb)"><g transform="translate(9.333333 6.666667)"><mask id="HTe" fill="#fff"><use xlink:href="#HTc"></use></mask><use fill="url(#HTd)" xlink:href="#HTc"></use><path fill="#AABCAE" stroke="#366C14" stroke-width=".666666667" d="M.333333333 6.872678v.79398867H9V6.872678l-1.28946446-.64473223c-.6089841-.30449205-1.69413993-.5612791-2.37581095-.5612791H3.99860875c-.68780612 0-1.76130083.25402403-2.37581096.5612791L.333333333 6.872678z" mask="url(#HTe)"></path><circle cx="4.66666667" cy="3.33333333" r="2" fill="#D4B872" mask="url(#HTe)"></circle><path fill="#C28321" stroke="#0D3488" stroke-width=".666666667" d="M1.66666667 4.02687495v1.96524198c0 .18640397.15142897.3412164.33026504.3412164h5.33946991c.17732339 0 .33026505-.15439321.33026505-.3412164V4.02687495L5.39573168 5.84362294c-.40473476.3237878-1.05060633.32601895-1.45813003 0L1.66666667 4.02687495z" mask="url(#HTe)"></path><path fill="#216C30" d="M2.8960921 1.56275876c-.12670817-.12670816-.07750511-.22942543.11161232-.22942543h3.3179245c.18834994 0 .23350906.10752869.11161232.22942543L4.8960921 3.1039079c-.12670817.12670817-.33695412.12189675-.45885086 0L2.8960921 1.56275876z" mask="url(#HTe)"></path></g></g></g></svg>