<svg class="SVGInline-svg" xmlns="http://www.w3.org/2000/svg" xmlns:xlink="http://www.w3.org/1999/xlink" width="28" height="20"><defs><rect id="DZa" width="28" height="20" x="0" y="0" rx="0"></rect></defs><g fill="none" fill-rule="evenodd"><mask id="DZb" fill="#fff"><use xlink:href="#DZa"></use></mask><rect width="27.5" height="19.5" x=".25" y=".25" rx="2"></rect><path fill="#048345" d="M0 0h14.6666667v20H0z" mask="url(#DZb)"></path><path fill="#E81B42" d="M17.3333333 11.04l-1.5674273 1.1173787.5783285-1.836001-1.5470519-1.14542302 1.924854-.01733239.6112967-1.82528896.6112967 1.82528896 1.924854.01733239-1.5470519 1.14542302.5783286 1.836001z" mask="url(#DZb)"></path><path fill="#E81B42" d="M17.6800003 5.61866715c-.7091262-.33754242-1.5112425-.52775806-2.3606729-.52775806-2.8873949 0-5.228091 2.19787487-5.228091 4.90909091 0 2.711216 2.3406961 4.9090909 5.228091 4.9090909.8494304 0 1.6515467-.1902156 2.3606729-.527758C16.6519042 15.3853259 15.2702044 16 13.7509001 16 10.5747657 16 8 13.3137085 8 10s2.5747657-6 5.7509001-6c1.5193043 0 2.9010041.61467411 3.9291002 1.61866715z" mask="url(#DZb)"></path></g></svg>