<svg class="SVGInline-svg" xmlns="http://www.w3.org/2000/svg" xmlns:xlink="http://www.w3.org/1999/xlink" width="28" height="20"><defs><rect id="HKa" width="28" height="20" x="0" y="0" rx="0"></rect></defs><g fill="none" fill-rule="evenodd"><mask id="HKb" fill="#fff"><use xlink:href="#HKa"></use></mask><use fill="#FFF" xlink:href="#HKa"></use><path fill="#F0371D" d="M0 0h28v20H0z" mask="url(#HKb)"></path><path fill="#FFF" d="M16 9.58717391c-1.0639648-.66666667-1.3333333.54466849-1.3333333 0 0-1.1045695 1.1939073-2 2.6666666-2 1.4727594 0 2.6666667.8954305 2.6666667 2-1.2651367 0-1.3915185.66666669-2 .66666669-.7465347 0-.9360352 0-2-.66666669zm1.6666667-.25384058C17.8507616 9.33333333 18 9.18409492 18 9s-.1492384-.33333333-.3333333-.33333333S17.3333333 8.81590508 17.3333333 9s.1492385.33333333.3333334.33333333zm-2.414595 2.61660897c.3052544-1.2179021-.9300332-1.0997636-.4120227-1.2680754 1.050508-.3413307 2.2710507.5174394 2.7261584 1.9181167.4551076 1.4006774-.0275597 2.812854-1.0780678 3.1541847-.3909487-1.2032165-1.0640405-1.1174014-1.2520716-1.6961017-.2306919-.7099966-.2892508-.8902223.0160037-2.1081243zm.756445 1.5066531c.0568885.1750847.2449399.2709017.4200245.2140132.1750847-.0568885.2709017-.2449398.2140132-.4200245-.0568885-.1750847-.2449398-.2709016-.4200245-.2140132-.1750847.0568885-.2709016.2449398-.2140132.4200245zm-3.2346939-1.4878397c1.2526225-.0860381.7585413-1.2243597 1.0786894-.7837136.6492496.8936155.2096792 2.3197951-.9818082 3.1854613-1.1914873.8656662-2.6836995.8430088-3.33294913-.0506067 1.02351713-.7436287.73390523-1.3572587 1.22617713-1.7149151.6039593-.4388021.7572684-.5501877 2.0098908-.6362259zm-1.1991579 1.1850035c-.1489359.1082082-.1819522.3166648-.0737439.4656007.1082083.1489359.3166649.1819522.4656008.0737439.1489359-.1082082.1819522-.3166648.0737439-.4656007-.1082083-.1489359-.3166648-.1819522-.4656008-.0737439zm.4154443-3.53614447c.4689088 1.16472747 1.3988374.3430676 1.0786893.78371367-.6492497.8936155-2.1414618.9162729-3.33294915.0506067-1.19148733-.86566627-1.63105781-2.29184588-.98180815-3.18546138 1.0235171.74362871 1.5176189.27856939 2.0098908.63622584.6039593.43880207.7572684.55018766 1.2261772 1.71491517zm-1.4975654-.77428075c-.1489359-.10820828-.3573925-.075192-.4656008.07374392-.10820825.14893591-.07519198.35739247.0737439.46560074.148936.10820828.3573925.07519201.4656008-.07374391.1082083-.14893592.075192-.35739247-.0737439-.46560075zm3.4914525-.69761777c-.9628209.80587937.1059879 1.43638718-.4120226 1.26807536-1.0505081-.34133075-1.5331754-1.75350734-1.0780678-3.1541847.4551077-1.40067736 1.6756504-2.25944747 2.7261584-1.91811672-.3909488 1.20321652.2040348 1.52942406.0160037 2.10812436-.2306919.70999666-.2892508.89022233-1.2520717 1.6961017zm.2736116-1.66353524c.0568885-.17508467-.0389285-.36313605-.2140132-.42002451-.1750846-.05688846-.363136.03892851-.4200245.21401318-.0568884.17508467.0389285.36313604.2140132.4200245.1750847.05688846.363136-.0389285.4200245-.21401317z" mask="url(#HKb)"></path></g></svg>