<svg class="SVGInline-svg" xmlns="http://www.w3.org/2000/svg" xmlns:xlink="http://www.w3.org/1999/xlink" width="28" height="20"><defs><rect id="EGa" width="28" height="20" x="0" y="0" rx="0"></rect></defs><g fill="none" fill-rule="evenodd"><mask id="EGb" fill="#fff"><use xlink:href="#EGa"></use></mask><rect width="27.5" height="19.5" x=".25" y=".25" rx="2"></rect><path fill="#E41D33" d="M0 0h28v6.66666667H0z" mask="url(#EGb)"></path><path fill="#262626" d="M0 13.3333333h28v6.66666667H0z" mask="url(#EGb)"></path><path fill="#F4B32E" fill-opacity=".25" stroke="#C6A846" stroke-width=".666666667" d="M11 8.66051865v2.67896275c0 .0972396-.049027.0703642.0282754.0188293l1.4534912-.9689941.1849001-.0559833h1v1c0 .1855763.148151.3333334.3333333.3333334.1855763 0 .3333333-.1481511.3333333-.3333334v-1h1l.1849001.0559833 1.4534912.9689941c.0792138.0528092.0282754.0803718.0282754-.0188293V8.66051865c0-.17716622-.1506395-.32718532-.3333333-.32718532h-.3302104c-.0647801 0-.1597997.05870944-.1862688.11164775l-.8168542 1.63370822-.2981424-.59628477c-.075161-.15032213-.2117728-.38451371-.3851909-.61573786-.253646-.33819462-.4975694-.53333334-.65-.53333334-.0258964 0-.0662011.01227335-.11896.04151949-.1456499.08073901-.3240279.25649222-.509527.4959493-.1811137.23379609-.3288049.47031314-.4126918.62302063l-.3060351.55710545-.8029736-1.60594712c-.024879-.049758-.1261551-.11164775-.1862688-.11164775h-.3302104c-.1862661 0-.3333333.14609954-.3333333.32718532z" mask="url(#EGb)"></path></g></svg>