<svg class="SVGInline-svg" xmlns="http://www.w3.org/2000/svg" xmlns:xlink="http://www.w3.org/1999/xlink" width="28" height="20"><defs><rect id="ECa" width="28" height="20" x="0" y="0" rx="0"></rect></defs><g fill="none" fill-rule="evenodd"><mask id="ECb" fill="#fff"><use xlink:href="#ECa"></use></mask><use fill="#FFF" xlink:href="#ECa"></use><path fill="#0748AE" d="M0 9.33333333h28v5.33333333H0z" mask="url(#ECb)"></path><path fill="#DE2035" d="M0 14.6666667h28v5.33333333H0z" mask="url(#ECb)"></path><path fill="#FFD935" d="M0 0h28v9.33333333H0z" mask="url(#ECb)"></path><path fill="#FFD935" d="M12.3999479 8l.9333854 2.8001562h1.3333334L15.6000521 8c.6476753.48651244 1.0666146 1.26107673 1.0666146 2.1334895 0 1.4727594-1.1939074 2.6666667-2.6666667 2.6666667-1.4727593 0-2.6666667-1.1939073-2.6666667-2.6666667 0-.87241277.4189393-1.64697706 1.0666146-2.1334895z" mask="url(#ECb)"></path><path fill="#5FC0DC" d="M14 7.33333333l.6666667 3.33333337h-1.3333334z" mask="url(#ECb)"></path><path stroke="#3F2821" stroke-linecap="round" stroke-linejoin="round" stroke-width=".666666667" d="M17.3333333 6l-2-.66666667L14 6.66666667l-1.3333333-1.33333334-2 .66666667" mask="url(#ECb)" opacity=".66"></path></g></svg>